<?xml version="1.0" standalone="no"?>
<!DOCTYPE svg PUBLIC "-//W3C//DTD SVG 20010904//EN"
 "http://www.w3.org/TR/2001/REC-SVG-20010904/DTD/svg10.dtd">
<svg version="1.0" xmlns="http://www.w3.org/2000/svg"
 width="1500.000000pt" height="1500.000000pt" viewBox="0 0 1500.000000 1500.000000"
 preserveAspectRatio="xMidYMid meet">
<metadata>
Created by potrace 1.11, written by Peter Selinger 2001-2013
</metadata>
<g transform="translate(0.000000,1500.000000) scale(0.100000,-0.100000)"
fill="#000000" stroke="none">
<path d="M7460 10154 c-646 -356 -1443 -795 -1813 -998 -147 -81 -273 -145
-280 -143 -7 3 -7 6 -2 6 7 1 10 29 8 76 -2 57 1 74 10 70 7 -4 4 0 -6 8 -17
14 -17 15 0 21 15 6 15 8 3 16 -8 6 -11 10 -7 10 4 0 3 10 -4 21 -7 14 -7 19
0 15 7 -4 8 9 4 40 -4 36 -3 45 7 39 10 -6 11 -4 4 6 -5 8 -10 41 -10 74 -1
33 -7 61 -13 63 -6 2 -11 10 -11 18 0 12 -32 14 -202 12 l-203 -3 -1 -368 c0
-202 -3 -369 -5 -370 -2 -2 -281 -156 -619 -342 -338 -186 -691 -380 -785
-433 l-170 -94 -275 -2 -275 -1 -6 -30 c-6 -35 -1 -57 12 -49 8 4 14 -17 10
-38 0 -5 4 -8 9 -8 6 0 10 5 10 10 0 6 9 10 20 10 11 0 20 -5 20 -12 0 -6 6
-4 13 7 11 14 16 15 22 5 6 -9 4 -11 -5 -5 -9 5 -11 4 -6 -4 5 -8 12 -9 20 -2
13 11 34 10 53 -2 6 -4 15 -2 19 4 5 8 3 9 -6 4 -9 -6 -11 -4 -5 4 5 9 11 9
17 3 6 -6 17 -8 26 -5 11 5 13 3 7 -8 -7 -11 -6 -12 6 -2 15 12 36 12 56 0 6
-4 15 -2 19 4 5 8 3 9 -6 4 -8 -5 -11 -4 -7 3 7 10 44 5 62 -9 6 -4 17 -4 24
0 7 5 22 6 34 3 12 -3 18 -1 14 5 -4 6 3 8 19 5 19 -3 22 -7 12 -13 -9 -6 -9
-9 -1 -9 6 0 15 4 18 10 6 10 33 9 52 -3 6 -4 15 -2 19 4 5 8 3 9 -6 4 -9 -6
-11 -4 -6 4 6 9 13 8 29 -6 11 -10 17 -13 14 -6 -5 8 2 11 22 11 19 -1 28 -5
24 -12 -4 -7 -1 -6 7 1 7 6 19 9 28 6 11 -5 13 -3 7 8 -5 8 2 5 15 -6 13 -11
20 -14 16 -7 -4 7 -2 12 6 12 8 0 20 -6 27 -12 8 -7 11 -8 8 -2 -5 8 15 11 63
10 39 -1 70 -5 70 -10 0 -6 6 -2 13 9 11 14 16 15 22 5 6 -9 4 -11 -5 -5 -9 5
-11 4 -6 -4 5 -8 12 -9 20 -2 13 11 34 10 55 -3 9 -6 12 -5 7 2 -4 7 4 10 23
10 19 -1 28 -5 24 -12 -4 -7 -1 -6 8 1 15 12 36 12 56 0 6 -4 15 -2 19 4 5 8
3 9 -6 4 -8 -5 -11 -4 -7 2 7 12 54 5 63 -9 3 -5 12 -4 20 3 11 9 18 8 31 -2
9 -8 14 -9 10 -3 -5 9 17 11 83 9 50 -2 88 0 86 4 -3 5 6 6 20 3 19 -3 22 -7
12 -13 -9 -6 -9 -9 -1 -9 6 0 15 4 18 10 6 10 33 9 52 -3 6 -4 15 -2 19 4 5 8
3 9 -6 4 -9 -6 -11 -4 -6 4 6 9 13 8 29 -6 11 -10 17 -12 13 -5 -6 11 0 12 29
8 26 -4 34 -3 29 6 -5 7 -2 9 7 6 10 -4 15 1 15 12 0 10 -3 17 -7 14 -4 -2
-10 3 -13 12 -4 11 -2 15 8 11 16 -6 12 16 -7 41 -7 9 -5 11 8 6 14 -6 16 -4
9 7 -14 23 -13 37 3 43 13 5 13 9 2 23 -10 12 -10 15 -1 9 7 -4 15 -1 18 8 3
9 11 13 17 9 5 -3 15 0 21 8 6 8 18 14 26 14 8 0 14 5 13 12 -2 7 4 10 12 7 8
-4 15 -1 15 4 0 6 9 9 19 7 14 -3 18 1 14 11 -4 10 3 14 27 14 24 0 31 4 26
15 -3 8 -2 14 2 13 11 -2 45 14 67 31 18 15 19 15 6 -2 -12 -15 -12 -17 2 -11
8 3 18 12 21 20 3 8 11 14 18 13 7 -1 21 1 31 6 15 6 16 10 5 17 -9 7 -7 8 10
5 12 -3 22 -1 22 4 0 5 7 9 15 9 8 0 15 5 15 11 0 6 7 8 16 5 8 -3 12 -2 9 4
-6 9 8 14 28 11 4 0 7 4 7 10 0 6 7 9 15 5 10 -3 15 1 15 11 0 9 3 13 6 10 4
-4 19 2 35 13 20 15 29 17 32 8 4 -8 6 -7 6 4 1 9 6 20 13 24 6 4 8 3 4 -4 -3
-6 7 -4 24 4 16 9 30 20 30 25 0 6 5 7 10 4 6 -3 10 -1 10 5 0 7 6 10 13 7 6
-2 18 3 25 12 11 13 12 13 7 1 -4 -9 0 -7 9 4 8 10 19 15 25 11 6 -3 11 1 11
11 0 10 3 14 6 11 4 -4 20 3 37 15 19 13 28 16 23 7 -4 -7 2 -3 14 11 12 14
19 18 15 10 -4 -10 -2 -9 8 2 8 10 17 15 21 11 3 -4 16 4 27 16 17 18 23 20
30 9 7 -10 9 -9 9 5 0 10 5 15 10 12 6 -3 10 -1 10 6 0 8 4 8 16 -2 13 -11 15
-10 12 5 -2 12 4 20 17 22 11 1 25 10 31 18 6 9 14 13 18 9 3 -4 13 2 22 13 8
10 13 13 9 7 -3 -7 -2 -13 3 -13 6 0 12 7 16 15 3 8 12 15 20 15 7 0 17 7 20
16 3 8 10 12 16 9 15 -10 51 5 44 17 -5 7 -1 9 9 5 11 -4 17 -1 17 8 0 8 5 15
11 15 5 0 7 -6 4 -12 -4 -7 3 -2 14 11 13 14 21 18 21 10 1 -10 3 -9 10 2 5 9
21 20 35 23 15 4 25 14 25 24 0 9 3 13 8 7 9 -13 35 -18 27 -6 -3 6 6 13 20
17 14 3 22 11 18 17 -4 6 0 8 10 4 9 -3 18 1 21 9 3 9 12 14 19 11 6 -2 20 5
30 16 12 14 17 16 17 6 0 -11 2 -11 10 1 5 8 10 11 10 7 0 -4 6 -2 14 5 8 7
11 18 8 23 -3 6 3 3 13 -5 10 -8 16 -10 12 -4 -4 7 1 18 10 25 12 10 14 10 9
2 -4 -7 -2 -13 3 -13 6 0 11 4 11 8 0 10 50 37 63 34 4 -1 7 3 7 9 0 5 4 8 9
4 6 -3 14 3 20 12 6 10 11 15 11 10 0 -4 11 0 25 9 14 9 25 13 25 8 0 -4 6 0
14 11 7 10 22 19 32 20 28 2 45 15 38 27 -4 7 -2 8 5 4 6 -4 18 -2 26 4 8 6
19 9 25 5 6 -4 9 -1 8 7 -2 7 5 12 15 12 9 -1 17 2 17 6 0 5 9 12 20 15 11 4
18 11 15 16 -3 5 1 6 9 3 9 -4 16 -1 16 6 0 9 4 9 17 -1 9 -8 14 -9 10 -3 -4
7 5 19 19 29 18 12 24 13 19 4 -3 -8 0 -6 8 3 8 10 17 15 20 11 4 -3 7 -1 7 5
0 7 5 12 12 12 6 0 27 12 47 27 20 15 30 19 22 10 -20 -26 -5 -20 23 8 16 16
26 20 29 12 3 -7 6 -3 6 8 1 17 3 17 11 5 8 -13 10 -13 10 2 0 10 5 15 13 12
8 -3 26 8 42 23 16 15 26 23 22 17 -3 -6 0 -11 8 -11 8 0 12 4 9 9 -3 4 0 8 6
8 6 0 9 4 5 9 -3 6 4 8 15 6 12 -2 23 2 27 11 4 11 8 12 20 3 8 -7 13 -8 12
-3 -5 29 1 35 24 23 20 -11 21 -11 8 5 -8 9 -10 16 -5 15 16 -5 52 11 58 26 3
8 12 12 21 9 8 -4 15 -1 15 6 0 8 9 10 28 6 20 -5 23 -4 12 4 -13 9 -7 14 13
11 4 0 7 4 7 10 0 6 7 8 16 5 8 -3 12 -2 9 4 -6 9 8 14 28 11 4 0 7 4 7 10 0
6 7 9 15 5 10 -3 15 1 15 11 0 9 3 13 6 10 4 -4 19 2 35 13 20 15 29 17 32 8
4 -8 6 -7 6 3 1 18 27 33 42 23 5 -3 12 2 15 10 3 9 15 16 26 16 13 0 18 5 15
14 -4 10 -1 13 7 10 7 -3 20 1 27 9 8 8 22 13 32 11 9 -1 15 2 11 7 -3 5 2 9
10 9 9 0 16 5 16 11 0 5 5 7 10 4 6 -3 10 -1 10 4 0 6 9 11 20 11 11 0 20 5
20 11 0 5 5 7 10 4 6 -3 10 -1 10 6 0 7 3 9 7 6 3 -4 12 1 20 11 9 11 12 11 7
2 -4 -8 3 -4 16 8 18 19 24 21 31 10 7 -10 9 -9 9 5 0 10 5 15 10 12 6 -3 10
-1 10 5 0 6 5 8 10 5 6 -3 10 -1 10 5 0 6 5 8 10 5 6 -3 10 -2 10 3 0 5 8 12
18 15 9 3 33 16 51 29 22 14 32 17 27 8 -4 -8 0 -6 8 4 9 11 16 16 16 11 0 -5
7 0 16 11 8 10 12 12 8 5 -5 -9 5 -6 23 7 17 12 36 22 42 22 6 0 11 5 11 11 0
5 5 7 10 4 6 -3 13 1 16 9 5 13 10 13 27 4 12 -6 19 -7 15 -3 -4 4 -3 15 2 25
6 12 18 15 39 12 17 -2 31 -9 31 -14 0 -6 7 -7 16 -4 8 3 12 2 9 -4 -3 -5 6
-12 20 -16 14 -3 25 -10 25 -16 0 -5 5 -6 10 -3 6 3 10 1 10 -5 0 -6 5 -8 10
-5 6 3 10 3 10 -2 0 -4 23 -19 50 -32 28 -14 50 -29 50 -34 0 -4 4 -6 9 -2 5
3 12 1 16 -4 3 -6 13 -7 22 -4 11 4 14 3 9 -5 -4 -7 -1 -12 9 -12 9 0 13 -5
10 -10 -4 -6 -3 -10 2 -9 23 4 43 -2 38 -12 -4 -6 0 -9 11 -7 12 2 18 -2 16
-11 -2 -8 3 -11 13 -8 8 4 15 2 15 -4 0 -6 5 -7 10 -4 6 3 10 1 10 -4 0 -6 9
-11 19 -11 11 0 23 -5 27 -12 5 -7 3 -8 -6 -3 -8 5 -11 4 -6 -3 4 -6 13 -9 21
-5 8 3 15 0 15 -6 0 -6 3 -10 8 -10 21 4 32 -3 32 -18 0 -15 2 -16 10 -3 7 11
10 11 10 2 0 -7 5 -10 10 -7 6 3 10 2 10 -3 0 -5 13 -15 30 -22 18 -7 27 -17
23 -24 -4 -6 1 -5 10 3 17 13 22 7 19 -20 -1 -4 8 -5 18 -2 12 3 20 0 20 -7 0
-7 7 -10 15 -6 8 3 15 1 15 -4 0 -6 7 -10 15 -10 8 0 15 -6 15 -14 0 -10 7
-12 22 -8 14 3 19 2 14 -6 -5 -8 0 -12 13 -12 12 0 21 -4 21 -10 0 -5 7 -10
16 -10 9 0 12 -5 8 -12 -4 -6 -3 -8 4 -5 12 8 44 -2 38 -12 -3 -4 5 -8 16 -8
12 -1 24 -7 28 -13 4 -6 16 -13 26 -14 10 -2 18 -9 16 -16 -2 -8 5 -9 19 -5
14 5 19 3 15 -3 -3 -6 4 -12 16 -14 13 -2 22 -9 21 -15 -2 -7 4 -10 12 -7 8 4
15 1 15 -6 0 -6 4 -9 9 -5 5 3 16 -2 25 -11 9 -8 20 -12 26 -9 6 4 9 1 8 -6
-2 -7 3 -14 10 -15 6 -1 17 -2 23 -3 5 0 7 -6 3 -13 -4 -6 -3 -8 4 -4 6 3 14
1 17 -5 4 -5 14 -8 22 -5 8 3 11 1 8 -4 -6 -9 8 -14 28 -11 4 0 7 -3 7 -9 0
-5 7 -10 15 -10 8 0 15 -4 15 -10 0 -5 9 -10 20 -10 11 0 20 -4 20 -10 0 -5 7
-10 16 -10 8 0 13 -4 10 -8 -2 -4 5 -9 16 -9 12 -1 24 -7 28 -14 4 -6 13 -8
19 -5 6 4 11 0 11 -9 0 -9 4 -14 9 -10 5 3 12 1 16 -5 4 -6 11 -7 17 -4 7 4 8
2 4 -4 -4 -7 -1 -12 9 -12 10 0 13 -5 9 -12 -5 -9 -2 -9 9 1 11 9 17 10 17 2
0 -6 7 -11 16 -11 8 0 12 -4 9 -10 -3 -5 3 -10 14 -10 12 0 21 -5 21 -11 0 -5
4 -8 9 -4 5 3 16 -2 24 -10 9 -8 25 -16 36 -18 12 -2 27 -10 34 -17 9 -11 7
-11 -8 0 -18 14 -19 14 -6 -2 7 -10 17 -15 22 -12 12 7 51 -15 44 -26 -3 -4 3
-7 12 -6 10 2 24 -3 32 -11 7 -8 21 -11 29 -8 9 3 13 3 9 -1 -11 -11 13 -34
35 -34 10 0 16 -4 13 -10 -3 -5 0 -7 8 -5 7 3 24 -3 36 -14 13 -12 28 -18 32
-15 5 3 9 0 9 -6 0 -6 5 -8 10 -5 6 3 10 1 10 -5 0 -6 5 -8 10 -5 6 3 10 -2
11 -12 0 -15 1 -16 7 -2 4 9 15 15 24 14 10 -2 16 2 15 8 -1 6 8 13 21 15 12
2 20 8 17 13 -6 8 16 14 38 10 5 -1 6 3 2 9 -3 5 0 10 9 10 8 0 16 5 18 11 2
5 12 12 23 13 11 2 19 9 18 14 -2 6 3 9 11 6 8 -3 17 0 21 5 3 6 11 9 16 5 5
-3 8 0 7 7 -2 7 3 13 11 14 8 0 16 6 19 14 3 8 0 11 -7 7 -7 -4 -11 0 -11 11
0 13 -27 33 -87 66 -49 26 -115 62 -148 80 -33 18 -112 62 -175 97 -63 35
-129 71 -147 81 -18 10 -63 35 -100 55 -37 21 -309 170 -603 332 -294 162
-607 334 -695 382 -88 48 -238 131 -333 184 -96 53 -177 96 -180 96 -4 0 -167
-88 -362 -196z"/>
<path d="M10865 9109 c-407 -225 -757 -418 -777 -429 -20 -10 -122 -66 -225
-123 -195 -109 -927 -511 -1023 -564 -283 -154 -340 -188 -299 -182 8 1 23 1
34 0 16 -1 17 -3 5 -10 -8 -6 -19 -7 -25 -4 -5 4 -6 2 -2 -3 10 -10 139 -15
132 -5 -2 5 7 6 21 3 19 -3 22 -7 12 -13 -9 -6 -9 -9 -1 -9 6 0 15 4 18 10 6
10 33 9 52 -3 6 -4 15 -2 19 4 5 8 3 9 -6 4 -9 -6 -11 -4 -6 4 6 9 13 8 29 -6
11 -10 17 -13 14 -6 -5 8 2 11 22 11 19 -1 28 -5 24 -12 -4 -7 -1 -6 7 1 7 6
19 9 28 6 11 -5 13 -3 7 8 -5 8 2 5 15 -6 13 -11 20 -14 16 -7 -4 6 -2 12 3
12 6 0 11 -5 11 -12 0 -6 6 -4 13 7 11 14 16 15 22 5 6 -9 4 -11 -5 -5 -9 5
-11 4 -6 -4 5 -8 12 -9 20 -2 13 11 34 10 53 -2 6 -4 15 -2 19 4 5 8 3 9 -6 4
-9 -6 -11 -4 -5 4 5 9 11 9 17 3 6 -6 17 -8 26 -5 11 5 13 3 7 -8 -7 -11 -6
-12 6 -2 8 7 29 10 48 7 19 -3 31 -2 27 4 -3 5 6 7 19 4 14 -2 28 -9 31 -14 3
-5 12 -4 20 3 11 9 14 8 14 -2 0 -8 5 -6 13 6 11 14 16 15 22 5 6 -9 4 -11 -5
-5 -9 5 -11 4 -6 -4 5 -8 12 -9 20 -2 13 11 34 10 53 -2 6 -4 15 -2 19 4 5 8
3 9 -6 4 -9 -6 -11 -4 -5 4 5 9 11 9 17 3 6 -6 17 -8 26 -5 11 5 13 3 7 -8 -7
-11 -6 -12 6 -2 15 12 36 12 56 0 6 -4 15 -2 19 4 5 8 3 9 -6 4 -8 -5 -11 -4
-7 3 7 10 44 5 62 -9 6 -4 17 -4 24 0 7 5 22 6 34 3 13 -3 18 -1 14 5 -5 7 0
9 13 6 11 -3 17 -9 14 -14 -3 -5 0 -9 5 -9 6 0 11 5 11 10 0 6 10 10 21 10 17
0 20 5 17 25 -3 14 -1 25 5 25 5 0 4 7 -3 15 -10 12 -10 15 1 15 11 0 11 2 -1
10 -13 8 -12 10 4 10 20 0 20 0 0 15 -13 10 -14 14 -5 15 11 0 11 3 1 15 -9
10 -9 15 -1 15 6 0 11 7 11 15 0 14 12 19 33 16 4 0 7 7 8 16 0 12 2 13 6 5 4
-9 10 -7 23 8 13 15 19 17 23 8 4 -11 6 -10 6 0 1 7 6 10 11 7 6 -4 10 -3 9 2
-3 20 2 27 11 13 8 -13 10 -13 10 2 0 11 6 16 20 13 11 -2 19 1 17 8 -1 6 4
12 11 13 6 1 15 3 20 4 4 1 11 2 15 1 5 -1 6 3 2 9 -3 5 -1 10 4 10 34 0 63
18 55 33 -4 7 -4 9 1 5 4 -4 15 -2 23 5 13 10 14 9 7 -2 -5 -9 2 -7 17 5 14
10 23 24 21 29 -3 6 0 5 7 -2 10 -9 17 -7 32 10 11 12 17 16 13 10 -3 -7 -2
-13 3 -13 6 0 13 7 16 16 4 9 13 14 21 10 8 -3 14 0 12 7 -1 7 5 12 13 12 8 0
21 6 29 13 7 7 20 11 27 8 9 -3 11 0 7 11 -5 13 -1 15 20 11 15 -3 24 -2 22 2
-7 11 44 42 55 35 6 -3 10 -2 10 3 0 12 49 34 61 27 5 -3 6 2 2 11 -4 12 -3
15 5 10 7 -4 12 -3 12 3 0 5 10 8 21 6 12 -3 19 -2 16 2 -10 9 35 44 50 39 7
-3 13 -1 13 5 0 6 7 9 15 5 9 -3 15 0 15 9 0 7 5 17 12 21 7 5 8 3 3 -7 -8
-12 -6 -12 8 0 9 7 17 10 17 6 0 -4 9 3 21 16 11 13 18 18 14 12 -10 -21 13
-15 28 7 8 11 17 17 21 13 3 -4 13 2 20 13 8 10 18 15 22 11 4 -4 14 3 22 15
9 16 12 17 7 4 -5 -16 -3 -17 10 -6 8 7 12 17 8 24 -4 6 1 5 10 -3 11 -9 17
-10 17 -2 0 6 7 11 16 11 8 0 13 4 9 9 -6 11 30 25 44 17 5 -3 20 6 34 20 16
15 31 23 38 18 9 -5 10 -2 6 9 -4 11 -2 14 9 10 7 -3 14 0 14 7 0 7 8 10 20 7
13 -3 18 -1 13 6 -4 7 0 8 11 4 10 -4 15 -3 11 3 -7 11 29 32 39 23 3 -3 6 0
6 7 0 7 3 10 6 7 10 -9 46 12 39 23 -4 6 1 7 11 3 11 -4 15 -2 11 4 -4 6 3 9
18 8 18 -2 22 1 18 13 -4 9 -2 13 4 9 6 -4 19 0 27 9 9 9 16 11 16 4 0 -6 10
-1 23 12 14 16 17 17 7 4 -14 -20 -14 -20 5 -6 11 8 23 20 28 27 4 6 16 10 27
8 11 -2 19 -1 16 3 -6 11 18 29 36 26 8 -1 27 9 41 21 14 13 28 21 32 17 3 -4
15 4 27 18 11 14 17 19 13 13 -4 -8 -1 -11 9 -7 8 3 17 12 20 20 3 9 10 12 16
9 5 -3 10 -1 10 5 0 6 4 9 9 5 5 -3 13 0 16 6 4 5 14 8 22 5 8 -3 11 -1 8 4
-3 6 2 13 12 17 10 4 21 11 25 17 5 7 8 7 8 -2 0 -10 3 -10 14 0 8 7 12 17 9
21 -3 5 4 4 16 -2 17 -9 20 -9 15 2 -3 8 2 17 11 21 9 3 13 2 10 -4 -3 -6 1
-7 9 -4 9 3 14 10 11 14 -6 10 24 22 36 14 5 -3 9 3 9 13 1 17 1 17 11 -1 9
-15 13 -16 20 -5 7 11 9 10 9 -3 0 -12 5 -15 17 -11 13 5 15 2 10 -12 -6 -15
-5 -16 8 -5 11 9 15 9 15 1 0 -7 5 -9 12 -5 8 5 9 2 5 -10 -4 -11 -3 -15 4
-10 6 3 25 -4 41 -16 17 -13 27 -17 23 -11 -5 9 -1 9 14 -1 12 -7 21 -16 21
-21 0 -4 5 -5 10 -2 6 3 10 1 10 -4 0 -6 9 -11 20 -11 11 0 20 -3 20 -8 0 -4
9 -13 21 -20 17 -11 20 -11 13 0 -6 10 -3 9 10 -1 11 -9 13 -17 6 -21 -6 -4 4
-7 21 -7 18 0 37 -7 44 -16 7 -9 15 -14 18 -10 4 3 7 1 7 -6 0 -7 5 -9 10 -6
6 3 10 1 10 -6 0 -7 3 -10 6 -6 4 3 13 -1 21 -9 8 -8 19 -12 24 -9 5 4 9 1 9
-4 0 -6 9 -11 20 -11 11 0 20 -7 20 -15 0 -8 3 -14 8 -14 17 3 30 -2 52 -21
12 -11 27 -17 31 -14 5 3 9 0 9 -6 0 -6 5 -8 10 -5 6 3 10 1 10 -5 0 -6 5 -8
10 -5 6 3 10 1 10 -4 0 -6 7 -11 15 -11 8 0 15 -5 15 -11 0 -5 4 -8 9 -4 5 3
16 -2 24 -10 9 -8 25 -16 36 -18 12 -2 27 -10 34 -17 9 -11 7 -11 -8 0 -18 14
-19 14 -6 -2 7 -10 17 -15 22 -12 12 7 51 -15 44 -26 -3 -4 3 -7 12 -6 10 2
24 -3 32 -11 7 -8 21 -11 29 -8 9 3 13 3 9 -1 -11 -11 13 -34 35 -34 10 0 16
-4 13 -10 -3 -6 1 -7 9 -4 9 3 16 1 16 -6 0 -6 5 -8 10 -5 6 3 10 1 10 -4 0
-6 6 -10 13 -8 6 1 11 -4 9 -11 -1 -7 3 -12 10 -11 27 3 39 -1 32 -13 -4 -6
-3 -8 4 -4 6 3 18 -1 26 -10 11 -10 16 -11 16 -3 0 7 8 2 19 -9 10 -12 21 -19
25 -15 3 3 6 1 6 -6 0 -7 4 -10 9 -7 4 3 17 -2 27 -10 10 -9 13 -12 5 -8 -10
5 -12 3 -7 -5 6 -9 12 -9 24 1 10 7 14 9 10 4 -4 -5 -1 -15 7 -22 17 -17 29
-18 18 -1 -4 6 13 -4 37 -23 24 -19 41 -29 37 -22 -11 16 1 15 18 -2 8 -7 11
-17 7 -21 -4 -4 -2 -5 3 -4 6 2 20 -2 33 -9 12 -7 27 -10 32 -7 5 3 12 0 16
-6 5 -8 2 -10 -7 -5 -8 4 -3 -1 11 -12 13 -11 28 -19 31 -16 12 7 39 -7 33
-17 -3 -5 6 -9 20 -9 14 0 26 -4 26 -10 0 -5 7 -10 15 -10 8 0 15 -5 15 -11 0
-6 7 -9 15 -5 8 3 18 0 22 -7 11 -17 80 -57 99 -57 8 0 12 -4 9 -10 -3 -5 3
-10 15 -10 12 0 18 -4 15 -10 -4 -6 1 -7 11 -3 13 5 15 3 9 -7 -5 -9 -4 -11 4
-6 6 4 18 0 27 -8 9 -9 20 -14 25 -11 5 4 9 1 9 -4 0 -6 7 -11 16 -11 9 0 14
-6 11 -13 -4 -10 3 -12 24 -9 22 3 29 0 29 -13 0 -11 5 -15 15 -11 8 3 15 1
15 -4 0 -6 7 -10 16 -10 9 0 12 -5 8 -12 -5 -7 -3 -8 5 -4 7 5 19 0 27 -10 9
-11 13 -13 9 -4 -5 12 -4 12 7 -1 7 -9 19 -14 27 -11 9 3 11 0 6 -8 -6 -10 -4
-12 8 -7 11 4 17 1 17 -8 0 -8 3 -14 8 -14 20 3 32 -2 26 -13 -5 -7 -3 -8 6
-3 8 5 18 1 27 -10 9 -13 13 -14 13 -5 0 9 4 8 13 -5 8 -10 19 -15 25 -11 7 4
12 2 12 -3 0 -6 7 -11 16 -11 8 0 12 -4 9 -10 -3 -5 2 -10 13 -10 10 0 28 -9
40 -20 14 -14 22 -16 22 -8 0 8 4 7 10 -4 8 -13 22 -16 55 -14 26 1 45 -2 45
-8 0 -5 6 -2 13 9 11 14 16 15 22 5 6 -9 4 -11 -5 -5 -9 5 -11 4 -6 -4 5 -8
12 -9 20 -2 13 11 34 10 53 -2 6 -4 15 -2 19 4 5 8 3 9 -6 4 -9 -6 -11 -4 -5
4 5 9 11 9 17 3 6 -6 17 -8 26 -5 11 5 13 3 7 -8 -7 -11 -6 -12 6 -2 15 12 36
12 56 0 6 -4 15 -2 19 4 5 8 3 9 -6 4 -8 -5 -11 -4 -7 3 7 11 44 5 64 -10 7
-5 14 -5 18 2 3 5 14 10 23 10 15 0 15 -2 2 -10 -8 -5 -11 -10 -7 -10 4 0 19
7 33 16 23 16 24 16 17 -2 -6 -17 -5 -18 11 -5 15 13 19 13 27 0 6 -10 9 -10
9 -1 0 8 9 11 25 8 30 -6 37 4 20 27 -7 10 -156 97 -331 193 -384 211 -379
209 -674 371 -129 72 -266 147 -305 168 -38 21 -90 49 -115 63 -65 36 -325
179 -390 214 -30 17 -68 38 -85 48 -16 9 -55 31 -85 47 -30 16 -289 159 -576
316 -286 158 -527 287 -535 286 -7 -1 -347 -185 -754 -410z m546 -242 c-10 -9
-11 -8 -5 6 3 10 9 15 12 12 3 -3 0 -11 -7 -18z m-481 -251 c0 -2 -8 -10 -17
-17 -16 -13 -17 -12 -4 4 13 16 21 21 21 13z m3781 -813 c13 -16 12 -17 -3 -4
-10 7 -18 15 -18 17 0 8 8 3 21 -13z"/>
<path d="M7539 9442 l-46 -3 0 -142 c0 -116 3 -145 16 -161 11 -14 12 -17 2
-11 -10 6 -12 4 -6 -4 4 -8 20 -11 36 -9 20 3 29 0 32 -11 4 -14 5 -14 6 0 1
12 11 14 56 9 36 -4 55 -2 55 4 0 6 5 4 10 -4 6 -10 10 -11 10 -3 0 9 7 10 27
2 20 -7 28 -6 35 3 6 10 8 10 8 -2 0 -13 1 -13 10 0 8 13 10 13 10 1 0 -11 4
-9 14 5 10 13 11 23 4 31 -8 9 -7 13 3 13 12 0 12 2 0 9 -9 6 -10 10 -2 16 9
5 9 10 1 20 -8 10 -8 19 0 34 7 14 7 21 1 21 -7 0 -7 9 -1 25 7 18 6 25 -3 25
-8 0 -8 3 2 9 10 7 10 10 1 13 -10 3 -10 9 -1 26 7 14 8 22 2 22 -6 0 -8 6 -6
13 2 6 -2 20 -9 29 -11 15 -32 18 -117 20 -57 2 -125 2 -150 0z"/>
<path d="M7948 9442 l-38 -3 0 -144 c0 -138 1 -145 23 -167 22 -22 57 -33 57
-19 0 3 21 6 47 6 33 0 50 -5 55 -15 5 -12 7 -12 7 3 1 15 5 16 21 7 15 -8 20
-8 20 2 0 9 3 9 10 -2 8 -12 11 -13 19 -1 7 11 9 11 14 0 4 -11 6 -11 6 -1 1
10 6 10 22 1 15 -8 19 -8 15 0 -4 6 -4 11 1 11 9 0 8 121 0 144 -3 8 1 17 10
20 14 6 14 9 -2 26 -11 12 -13 20 -6 20 9 0 9 5 1 20 -8 15 -8 20 2 20 9 0 9
3 -2 10 -13 9 -13 10 0 10 12 1 11 3 -2 11 -10 5 -18 17 -18 24 0 11 -14 15
-52 16 -29 0 -80 1 -113 2 -33 1 -77 1 -97 -1z"/>
<path d="M7497 9013 c-8 -28 -2 -276 7 -295 4 -9 14 -19 22 -22 10 -4 13 -2 8
7 -6 9 -4 9 7 1 8 -7 25 -11 39 -10 14 1 31 -3 39 -8 11 -8 13 -8 7 2 -6 9 -1
11 20 8 15 -3 33 -1 40 5 8 7 15 6 20 -2 5 -8 3 -9 -6 -4 -9 6 -11 4 -5 -4 5
-9 10 -10 18 -2 7 7 15 7 26 -2 12 -10 13 -9 7 2 -7 10 -3 12 15 6 13 -4 27
-13 31 -19 5 -7 8 -7 8 0 0 5 -6 16 -12 23 -8 9 -9 12 -1 7 6 -3 18 -3 27 0
12 5 14 10 6 20 -8 9 -8 18 0 33 7 14 7 21 1 21 -7 0 -7 9 -1 25 7 17 6 25 -1
25 -8 0 -7 5 1 15 8 10 9 15 1 15 -7 0 -8 8 -1 25 5 14 6 25 1 25 -5 0 -8 8
-6 18 2 9 4 21 4 25 1 5 7 5 14 2 6 -4 4 0 -7 9 -11 9 -16 22 -12 31 3 9 2 13
-4 10 -6 -3 -10 1 -10 9 0 14 -21 16 -149 16 -134 0 -150 -2 -154 -17z"/>
<path d="M7912 8873 c2 -125 6 -157 16 -155 8 1 11 -2 8 -7 -10 -16 14 -23 31
-9 12 9 15 9 9 1 -9 -16 16 -17 31 -2 8 8 13 7 18 -2 6 -8 4 -10 -5 -4 -9 5
-11 4 -6 -4 6 -8 12 -9 20 -2 9 7 17 7 26 -2 10 -9 11 -9 6 1 -6 9 0 11 20 8
15 -3 35 0 43 7 12 9 13 9 7 0 -5 -9 0 -13 14 -13 12 0 18 4 15 10 -3 6 1 7 9
4 9 -3 13 -11 9 -18 -4 -7 -1 -7 7 1 9 8 18 9 25 3 9 -7 11 7 11 55 -1 36 2
65 6 65 4 0 3 14 -2 30 -6 21 -5 30 3 30 7 0 6 4 -3 10 -8 5 -10 10 -5 10 13
0 8 88 -7 118 -11 21 -16 22 -160 22 l-149 0 3 -157z"/>
<path d="M11279 8623 c-3 -203 0 -247 16 -259 9 -7 16 -15 16 -18 -2 -18 0
-19 9 -6 5 8 10 10 10 3 0 -11 60 -11 78 1 4 2 14 1 22 -4 9 -5 20 -4 29 3 12
10 13 9 6 -3 -8 -13 -7 -13 8 -1 9 7 17 9 17 4 0 -5 9 -9 20 -10 11 -1 18 2
16 6 -3 4 2 8 10 8 9 0 13 -6 9 -16 -5 -12 -2 -11 14 3 15 13 20 14 25 4 3 -7
4 -3 2 10 -2 12 -1 22 4 22 4 0 4 16 0 35 -5 24 -4 35 4 35 6 0 5 4 -3 9 -11
7 -10 10 5 14 15 4 16 5 2 6 -13 1 -15 6 -8 29 4 16 4 36 -2 45 -6 12 -5 17 4
17 9 0 9 3 -2 10 -9 6 -10 10 -3 10 8 0 6 12 -5 40 l-17 40 -142 0 -143 0 -1
-37z"/>
<path d="M11679 8648 c0 -7 -1 -73 -2 -145 -2 -104 1 -133 11 -133 7 0 10 -4
7 -10 -3 -5 -1 -10 5 -10 6 0 8 -5 4 -11 -5 -8 -2 -9 12 -1 15 8 24 7 38 -6
11 -9 16 -12 13 -5 -4 6 -3 14 3 18 5 3 10 1 10 -6 0 -9 3 -9 14 0 10 9 15 9
18 1 2 -8 11 -8 31 -1 23 9 27 8 27 -6 0 -14 2 -14 15 3 8 10 15 15 15 9 0
-17 65 -12 85 7 14 14 15 18 4 18 -12 0 -11 2 1 10 8 5 10 10 4 10 -7 0 -9 10
-6 25 2 14 9 22 16 19 6 -3 2 2 -8 10 -13 10 -15 16 -7 16 11 0 11 3 1 15 -7
9 -8 15 -2 15 6 0 7 13 2 35 -5 24 -4 35 4 35 6 0 4 5 -4 10 -9 6 -10 10 -3
10 8 0 6 12 -5 40 l-17 40 -142 0 c-108 0 -143 -3 -144 -12z"/>
<path d="M7385 8428 c-487 -55 -780 -527 -618 -997 14 -42 34 -88 44 -102 10
-14 16 -29 12 -33 -3 -3 0 -6 7 -6 7 0 10 -3 7 -6 -4 -4 3 -15 15 -25 11 -11
18 -19 15 -19 -3 0 4 -11 16 -24 58 -65 65 -74 60 -80 -4 -3 -1 -6 5 -6 18 0
52 -32 45 -43 -3 -6 -1 -7 5 -3 7 4 12 2 12 -4 0 -6 5 -8 10 -5 6 3 10 -1 10
-9 0 -9 7 -16 16 -16 8 0 12 -4 9 -10 -3 -5 1 -10 10 -10 9 0 13 -4 10 -10 -3
-5 0 -10 7 -10 8 0 20 -9 28 -19 7 -11 17 -18 22 -15 4 3 8 -1 8 -9 0 -8 10
-17 21 -20 15 -4 20 -11 15 -22 -3 -9 -2 -14 3 -11 11 7 53 -29 44 -38 -4 -4
1 -4 11 0 14 5 17 4 12 -4 -4 -7 -1 -12 8 -12 10 0 13 -6 9 -15 -3 -9 -1 -15
3 -13 13 4 64 -37 64 -51 0 -6 6 -10 13 -9 6 2 11 -3 9 -9 -1 -7 5 -13 13 -13
8 0 36 -22 63 -49 28 -28 53 -47 56 -44 6 6 10 -13 7 -31 -1 -5 5 -6 12 -3 14
5 30 -9 91 -83 16 -19 26 -27 23 -17 -4 11 -3 16 3 12 6 -3 10 -13 10 -22 0
-9 2 -14 5 -11 8 8 73 -55 68 -65 -3 -4 1 -6 8 -5 7 2 18 -8 26 -22 7 -14 13
-19 13 -12 0 8 6 6 18 -5 10 -10 17 -24 14 -31 -2 -7 0 -12 5 -10 13 4 83 -72
83 -90 0 -7 4 -11 9 -8 4 3 17 -10 27 -29 10 -19 22 -35 27 -35 4 0 5 -4 2
-10 -3 -5 -1 -10 5 -10 7 0 9 -7 6 -16 -3 -8 -2 -13 3 -9 9 5 55 -105 66 -161
43 -218 -77 -484 -290 -642 -33 -25 -50 -41 -37 -37 14 4 29 2 37 -5 10 -9 19
-9 28 -3 6 6 20 9 29 8 10 -2 16 2 15 8 -1 7 4 11 11 9 8 -1 11 1 8 6 -6 10
42 37 59 34 6 -1 1 5 -10 14 -20 16 -20 16 3 9 13 -4 22 -2 22 4 0 6 6 10 13
9 6 -2 11 2 10 9 -2 6 6 15 18 18 11 4 31 24 46 46 14 21 30 36 34 33 5 -3 8
0 7 8 -2 7 3 12 11 10 12 -3 12 -1 1 15 -8 10 -10 15 -5 10 5 -4 15 5 22 20 7
16 11 20 8 10 -3 -10 -1 -15 5 -12 6 3 10 15 10 26 0 11 6 22 14 25 8 3 12 12
9 20 -3 7 2 17 11 20 9 3 16 10 16 16 0 5 -6 6 -12 3 -7 -4 -6 -1 3 7 18 15
35 56 38 94 0 8 5 13 9 10 4 -2 8 3 9 12 1 9 5 31 8 47 4 17 7 38 6 48 0 9 4
15 8 13 4 -3 8 1 8 9 0 8 -5 12 -10 8 -5 -3 -5 3 1 13 6 11 10 22 11 27 1 4 1
8 2 10 6 19 3 47 -5 47 -6 0 -4 5 4 10 13 9 13 11 0 20 -13 9 -13 10 0 10 12
0 12 2 1 9 -10 6 -10 10 -1 16 9 6 9 10 -1 16 -12 7 -12 9 0 9 11 0 11 3 0 17
-8 9 -9 14 -3 10 6 -3 11 0 11 8 0 8 -4 12 -8 9 -4 -2 -7 4 -7 13 1 10 -2 31
-6 46 -5 22 -4 27 6 22 7 -4 6 -1 -2 7 -21 17 -19 43 3 42 9 -1 17 3 18 10 0
6 4 2 9 -9 6 -13 9 -15 9 -5 1 12 17 15 91 13 49 -1 94 -4 100 -8 5 -3 10 -2
10 3 0 6 8 8 19 5 10 -3 22 0 26 6 3 7 1 10 -7 9 -7 -2 -14 7 -16 20 -2 12 -8
23 -13 23 -5 1 -12 2 -16 3 -5 1 -22 6 -40 10 -39 9 -63 43 -52 73 5 14 4 25
-3 29 -7 4 -6 9 3 15 11 7 9 9 -5 9 -19 0 -19 0 -1 13 12 9 14 16 7 21 -8 4
-8 15 -2 31 6 16 6 27 -1 31 -8 4 -7 9 2 15 12 7 12 9 0 9 -11 0 -11 3 -1 15
11 13 10 14 -6 8 -17 -6 -17 -5 -5 10 11 14 11 20 0 34 -12 14 -12 16 0 8 11
-6 13 -2 7 19 -4 18 -3 25 3 21 6 -3 9 0 7 7 -12 37 -15 78 -6 73 5 -3 8 0 6
7 -12 37 -15 78 -6 73 5 -3 8 0 6 7 -12 37 -15 78 -6 73 5 -3 8 0 6 7 -12 37
-15 78 -6 73 5 -3 8 0 6 7 -12 37 -15 78 -6 73 5 -3 8 0 6 7 -12 37 -15 78 -6
73 5 -3 8 0 6 7 -11 33 -15 78 -7 74 4 -3 5 12 1 34 -5 26 -3 41 4 44 8 3 7 5
-1 5 -8 1 -9 10 -3 30 4 16 7 31 5 33 -6 6 84 0 94 -7 6 -3 11 -1 11 5 0 8 6
8 20 0 15 -8 20 -8 20 2 0 9 3 9 10 -2 8 -12 10 -12 10 -1 0 11 3 11 17 0 9
-8 14 -9 10 -3 -8 13 35 13 45 -1 5 -6 8 -5 8 4 0 11 3 11 15 1 8 -7 15 -8 15
-3 0 11 42 9 59 -2 6 -3 11 -1 11 5 0 15 56 -16 64 -35 3 -9 6 -28 6 -41 0
-14 6 -24 15 -24 8 0 12 -6 9 -14 -4 -10 1 -14 15 -13 15 1 21 8 22 27 3 132
1 160 -11 175 -11 13 -10 15 4 9 12 -5 15 -2 10 10 -3 9 -10 13 -15 10 -5 -3
-9 5 -9 16 0 18 -4 21 -24 16 -79 -20 -203 -26 -541 -26 -343 0 -419 4 -521
25 l-32 7 -1 -121 c-2 -107 0 -121 15 -121 13 0 14 -3 5 -14 -10 -11 -9 -14 1
-12 26 6 48 18 48 28 0 5 -4 7 -9 4 -4 -3 -6 6 -3 19 2 14 9 22 15 18 6 -4 8
0 4 11 -4 10 -3 15 3 11 6 -3 10 1 10 10 0 9 5 13 10 10 6 -3 10 -1 10 6 0 8
5 7 17 -2 9 -8 14 -9 10 -2 -9 15 13 23 36 11 9 -5 17 -5 17 -1 0 9 74 8 89
-2 6 -3 11 -1 11 5 0 8 6 8 20 0 15 -8 20 -8 20 2 0 9 3 9 10 -2 7 -11 10 -11
10 -2 0 10 5 10 20 2 16 -9 20 -8 21 7 0 16 1 16 9 -2 5 -11 9 -15 9 -8 1 8
10 9 31 3 21 -6 30 -5 30 3 0 7 4 5 9 -3 12 -19 9 -1000 -2 -1018 -7 -10 -11
-10 -20 1 -22 23 -38 58 -32 67 4 6 1 10 -4 10 -6 0 -21 17 -35 38 -21 33
-114 129 -201 207 -16 15 -57 52 -90 83 -33 32 -116 109 -185 172 -68 63 -134
124 -146 135 -11 11 -70 65 -129 120 -181 166 -244 228 -240 236 3 4 -2 9 -10
12 -14 6 -61 95 -57 110 1 4 -2 7 -7 7 -6 0 -8 9 -6 20 2 11 -1 20 -7 20 -6 0
-8 9 -5 20 3 11 1 20 -4 20 -5 0 -4 11 1 25 7 18 6 23 -4 19 -7 -3 -13 2 -13
11 0 8 5 15 10 15 5 0 4 6 -2 14 -9 11 -9 16 0 21 8 6 7 10 -2 16 -12 7 -12 9
0 9 11 0 11 3 0 17 -12 15 -12 16 5 10 16 -6 17 -5 7 7 -9 11 -9 16 0 21 8 6
7 10 -2 16 -11 7 -9 9 6 10 11 0 14 3 7 6 -10 4 -10 8 -1 19 7 8 9 17 6 21 -4
3 1 12 11 20 9 8 11 12 5 8 -9 -4 -11 -1 -7 9 3 9 10 14 14 11 5 -3 11 8 15
25 4 17 11 28 16 24 5 -3 9 2 9 11 0 8 7 18 15 21 8 4 13 9 10 14 -2 4 7 12
20 18 14 7 25 20 25 29 0 15 2 16 10 3 8 -13 10 -12 10 3 0 9 5 17 11 17 5 0
7 5 3 12 -5 8 -2 9 9 5 10 -3 17 -2 17 4 0 6 5 7 10 4 6 -3 13 1 16 10 4 9 13
14 20 11 8 -3 14 -1 14 5 0 6 4 8 9 4 6 -3 14 2 19 11 7 12 11 13 17 5 5 -9
12 -8 26 5 10 9 25 14 34 10 9 -3 18 1 21 9 4 8 10 12 15 9 5 -3 6 -11 2 -17
-3 -7 3 -3 15 7 14 12 22 14 22 7 0 -7 5 -9 11 -5 19 11 79 12 79 0 0 -6 5 -4
10 4 6 10 10 11 10 3 0 -7 7 -13 15 -13 8 0 15 5 15 11 0 6 7 3 16 -6 13 -13
19 -13 32 -3 10 9 13 9 9 1 -4 -6 -3 -14 3 -18 5 -3 10 -1 10 5 0 6 5 8 10 5
6 -4 8 -10 6 -14 -3 -4 8 -6 25 -5 16 1 29 -2 29 -7 0 -5 7 -9 15 -9 8 0 15
-4 15 -10 0 -5 7 -10 16 -10 9 0 12 -5 8 -12 -5 -8 -2 -9 9 -5 10 3 17 2 17
-4 0 -6 5 -7 10 -4 6 4 9 3 8 -2 -2 -4 1 -9 5 -10 17 -4 68 -77 63 -90 -3 -7
0 -12 6 -10 14 2 46 -97 51 -156 3 -43 19 -82 34 -82 4 0 7 -4 5 -9 -2 -5 4
-4 12 4 9 7 16 8 16 2 0 -5 10 -8 22 -4 12 3 19 1 15 -4 -3 -5 3 -10 13 -10
10 0 17 3 14 7 -2 4 6 9 18 12 18 5 19 8 8 21 -9 12 -9 16 -1 16 7 0 9 5 6 10
-4 6 -12 7 -18 3 -7 -4 -4 6 7 21 10 16 13 25 7 22 -6 -4 -11 -3 -11 3 0 5 5
13 10 16 8 5 8 11 0 20 -8 10 -8 15 0 20 8 5 7 11 -1 22 -10 12 -10 16 2 24
10 6 10 9 2 9 -14 0 -13 26 1 49 6 10 5 12 -2 7 -16 -10 -15 7 1 23 10 11 10
13 0 7 -8 -5 -13 -1 -13 9 0 10 5 14 13 10 6 -4 3 1 -7 9 -20 16 -20 16 0 16
10 0 15 4 9 8 -16 11 -19 46 -3 36 10 -6 11 -5 1 7 -10 12 -10 18 0 29 9 10 9
11 0 6 -7 -4 -13 -3 -13 1 0 5 6 15 13 22 7 9 7 11 1 8 -7 -4 -15 0 -18 9 -3
8 -2 13 3 10 14 -9 21 20 8 34 -9 10 -9 14 1 17 10 4 8 9 -7 20 -12 8 -19 19
-16 24 4 5 -32 9 -87 9 -51 0 -131 7 -178 15 -164 29 -289 36 -405 23z m-275
-302 c0 -2 -7 -7 -16 -10 -8 -3 -12 -2 -9 4 6 10 25 14 25 6z m717 -2758 c1
-13 -1 -18 -5 -11 -5 8 -12 8 -24 -1 -10 -7 -14 -17 -10 -21 4 -5 1 -4 -7 0
-10 6 -13 4 -9 -7 4 -8 1 -15 -5 -15 -7 0 -16 -2 -22 -4 -5 -2 -11 0 -13 5 -2
4 18 23 45 41 26 18 48 33 48 34 1 1 2 -9 2 -21z"/>
<path d="M1340 8418 c-427 -41 -776 -280 -950 -650 -79 -170 -116 -349 -119
-573 -2 -164 20 -325 60 -445 12 -36 22 -69 23 -75 8 -35 96 -205 122 -236 8
-8 14 -24 14 -34 0 -10 3 -15 6 -12 10 10 46 -42 38 -54 -4 -7 -3 -9 3 -6 12
7 46 -26 38 -36 -3 -4 -2 -5 1 -2 8 5 74 -62 74 -75 0 -6 3 -9 8 -8 8 3 26
-10 71 -52 29 -27 35 -30 52 -30 5 0 7 -4 4 -10 -3 -5 1 -10 9 -10 9 0 16 -5
16 -11 0 -5 4 -8 9 -4 6 3 19 -5 30 -17 12 -12 30 -23 41 -25 12 -2 31 -10 44
-18 12 -8 26 -12 29 -8 4 3 7 1 7 -5 0 -7 7 -12 15 -12 8 0 15 -6 15 -12 0 -9
4 -8 10 2 6 10 10 11 10 3 0 -7 7 -13 15 -13 8 0 15 -5 15 -12 0 -9 3 -9 12 0
9 9 15 7 25 -6 8 -9 12 -11 8 -4 -3 6 -1 12 4 12 6 0 11 -7 11 -16 0 -13 3
-14 14 -5 10 9 15 8 19 -2 3 -8 22 -13 52 -12 31 0 49 -4 53 -13 4 -11 6 -11
13 0 6 9 9 10 9 1 0 -7 7 -10 17 -6 10 4 14 2 10 -4 -3 -5 0 -10 8 -10 8 0 12
4 9 9 -3 4 -1 8 5 8 5 0 13 -5 16 -10 5 -8 11 -8 20 0 9 7 16 6 24 -4 9 -11
19 -12 35 -6 13 4 29 4 39 -1 12 -7 17 -6 17 2 0 7 7 4 15 -7 15 -19 15 -19 8
1 -6 17 -4 18 9 8 8 -7 18 -10 21 -6 4 3 7 1 7 -6 0 -7 6 -11 14 -8 7 3 24 -2
36 -10 19 -13 24 -13 31 -2 7 12 9 12 9 0 0 -8 7 -11 20 -8 12 3 24 -1 30 -11
8 -15 11 -15 20 -2 8 13 10 12 10 -5 0 -15 3 -17 9 -7 7 11 9 10 15 -3 4 -11
12 -14 26 -10 11 4 20 2 20 -4 0 -6 7 -7 17 -4 10 4 14 2 10 -4 -4 -6 4 -10
19 -10 13 0 33 -8 43 -17 15 -14 20 -14 24 -4 4 8 6 7 6 -4 1 -12 9 -18 25
-18 14 0 28 -5 32 -12 5 -7 3 -8 -6 -3 -8 5 -11 4 -6 -3 3 -6 15 -9 26 -7 11
2 20 0 20 -6 0 -5 7 -9 15 -9 8 0 15 -5 15 -11 0 -5 4 -7 10 -4 5 3 10 2 10
-4 0 -6 7 -8 15 -5 8 4 15 1 15 -5 0 -6 9 -11 21 -11 13 0 18 -4 13 -12 -5 -8
-2 -9 10 -5 13 5 17 3 13 -6 -3 -8 1 -14 9 -14 7 0 11 4 8 9 -3 4 0 8 5 8 6 0
11 -6 11 -14 0 -8 5 -18 12 -22 7 -4 8 -3 4 4 -10 17 3 15 21 -3 8 -8 19 -13
24 -10 5 4 9 1 9 -5 0 -7 7 -9 16 -6 8 3 13 2 10 -3 -7 -10 23 -25 43 -22 8 2
12 -3 8 -12 -4 -11 0 -13 14 -10 11 3 19 0 19 -6 0 -7 5 -9 10 -6 6 3 10 1 10
-5 0 -6 4 -9 9 -6 5 4 11 2 13 -3 1 -5 10 -11 18 -13 8 -2 21 -9 29 -16 11
-11 15 -11 22 0 7 11 9 11 9 0 0 -8 5 -10 13 -6 9 6 9 4 -1 -8 -11 -14 -10
-16 5 -14 10 2 24 -3 31 -11 8 -7 18 -11 23 -8 5 4 9 1 9 -5 0 -6 4 -9 9 -5 5
3 17 -2 25 -11 9 -9 24 -13 33 -10 14 6 14 4 2 -11 -8 -9 -9 -14 -2 -10 15 10
66 -10 58 -23 -3 -6 1 -7 9 -4 9 3 16 1 16 -5 0 -6 6 -8 14 -5 7 3 16 -2 20
-12 5 -14 9 -14 23 -3 12 10 14 10 9 2 -4 -8 -1 -13 8 -13 9 0 16 -5 16 -12 0
-6 3 -8 7 -5 3 4 15 -1 26 -10 13 -11 17 -13 12 -4 -5 8 9 1 30 -15 22 -16 36
-23 31 -17 -5 9 -2 11 11 6 23 -9 43 -29 38 -37 -3 -3 0 -2 6 3 12 10 62 -7
54 -18 -2 -4 6 -8 17 -8 12 -1 24 -6 27 -10 6 -8 27 -15 49 -16 6 0 12 -4 12
-9 0 -4 7 -8 15 -8 8 0 15 -5 15 -11 0 -8 5 -8 15 1 12 10 15 10 15 -3 0 -9 5
-19 12 -23 7 -4 8 -3 4 4 -4 7 -2 12 3 12 6 0 11 -4 11 -10 0 -5 9 -10 20 -10
11 0 20 -4 20 -9 0 -6 9 -8 20 -6 11 2 24 -3 29 -13 5 -9 12 -16 15 -14 13 5
27 1 22 -6 -3 -5 5 -8 17 -7 30 3 59 -13 50 -28 -4 -7 2 -5 12 3 10 8 16 10
12 4 -4 -7 0 -15 9 -18 8 -3 12 -2 9 4 -3 6 -1 10 4 10 6 0 11 -5 11 -11 0 -5
5 -7 10 -4 5 3 10 1 10 -5 0 -6 4 -8 10 -5 5 3 10 2 10 -4 0 -5 11 -8 25 -7
13 2 24 0 23 -3 -2 -18 4 -22 17 -11 12 10 15 10 15 -3 0 -9 5 -19 12 -23 7
-4 8 -3 4 4 -4 7 -2 12 3 12 6 0 11 -4 11 -10 0 -5 7 -7 15 -4 8 4 15 2 15 -4
0 -6 11 -9 25 -8 13 2 22 -1 19 -5 -5 -9 9 -13 35 -10 7 2 10 -2 7 -7 -3 -5 3
-12 14 -15 11 -3 18 -1 14 4 -3 5 2 6 10 3 9 -3 16 -9 16 -13 0 -4 12 -8 27
-9 15 -1 29 -5 32 -10 6 -7 25 -13 53 -15 10 -1 18 -5 18 -9 0 -4 3 -7 8 -7
23 4 52 -2 48 -10 -4 -5 3 -7 14 -4 11 3 20 0 20 -6 0 -6 5 -11 11 -11 5 0 8
4 4 10 -3 5 7 3 22 -5 15 -8 36 -15 46 -15 12 0 16 -4 11 -12 -4 -7 -4 -10 1
-6 4 4 15 2 23 -5 13 -9 14 -9 8 1 -4 6 -2 12 3 12 6 0 11 -5 11 -11 0 -5 4
-8 9 -5 9 6 64 -9 95 -25 14 -8 16 -8 10 3 -4 8 0 7 12 -3 10 -9 31 -15 47
-14 15 1 27 -1 27 -5 0 -5 7 -11 16 -14 8 -3 12 -2 9 4 -10 16 11 12 25 -5 10
-12 16 -13 26 -4 13 11 19 5 15 -15 -1 -5 5 -4 13 4 13 10 16 10 16 0 0 -10 3
-10 15 0 12 10 16 9 21 -3 6 -16 20 -17 43 -3 10 6 12 5 7 -2 -6 -11 19 -18
47 -13 4 0 7 -4 7 -10 0 -8 4 -8 13 0 8 6 18 7 23 2 20 -18 72 -29 83 -18 7 7
12 5 17 -7 5 -14 9 -15 15 -4 7 10 9 10 9 -2 0 -13 1 -13 10 0 6 9 10 11 10 3
0 -7 7 -10 17 -6 12 5 14 3 8 -8 -7 -11 -6 -12 6 -2 18 14 41 12 63 -6 13 -11
16 -11 16 0 0 9 3 10 8 4 4 -6 17 -10 30 -9 12 1 22 -2 22 -6 0 -4 12 -6 27
-4 15 1 33 -2 39 -7 8 -7 15 -6 20 2 5 9 10 7 15 -7 7 -18 8 -18 8 0 1 17 2
18 27 1 15 -9 23 -12 20 -6 -4 6 -3 11 3 11 5 0 12 -6 14 -12 4 -10 6 -10 6
-1 1 7 8 10 16 7 8 -4 12 -11 9 -18 -3 -6 2 -2 10 8 11 13 16 15 16 6 0 -7 2
-11 6 -8 3 3 21 2 40 -2 20 -5 34 -4 34 2 0 5 6 6 13 1 6 -4 23 -6 36 -4 14 2
21 -1 17 -8 -4 -7 -1 -8 8 -5 9 3 13 11 9 18 -3 6 2 3 13 -6 16 -14 23 -15 32
-6 9 9 12 9 12 -2 0 -13 2 -13 10 0 9 13 10 13 10 0 0 -13 1 -13 10 0 9 13 10
13 10 0 0 -13 1 -13 10 0 5 8 10 10 10 4 0 -12 49 -12 68 0 7 4 12 2 12 -5 0
-8 4 -8 15 1 8 7 15 8 15 3 0 -11 29 -11 48 1 7 4 12 2 12 -5 0 -8 4 -8 15 1
10 9 15 9 15 1 0 -6 5 -11 11 -11 5 0 7 5 4 10 -8 13 17 8 28 -5 4 -6 11 -4
17 5 8 13 11 12 25 -5 9 -11 14 -14 10 -7 -3 6 -3 12 2 13 4 0 20 2 36 4 19 3
25 0 20 -8 -4 -7 0 -6 10 2 9 7 24 10 34 7 9 -4 20 -1 25 6 6 10 8 10 8 -2 0
-13 1 -13 10 0 8 13 10 13 10 1 0 -11 4 -10 16 5 8 10 13 13 9 7 -4 -8 0 -13
10 -13 10 0 13 5 9 13 -5 8 -2 8 9 -2 13 -10 17 -10 17 -1 0 8 4 9 13 4 18
-14 47 -11 57 6 6 10 10 11 10 3 0 -7 7 -10 15 -7 8 4 12 11 8 18 -4 6 1 5 10
-3 14 -11 20 -11 34 0 11 9 14 10 9 2 -5 -9 -2 -11 8 -7 9 3 13 11 9 18 -3 6
4 2 16 -8 19 -17 21 -17 15 -3 -5 15 -3 16 20 7 14 -5 25 -6 25 -2 -3 19 2 25
11 12 7 -11 10 -11 10 -2 0 7 5 10 10 7 6 -3 10 -2 10 4 0 6 7 8 15 5 8 -4 12
-11 9 -18 -3 -6 2 -2 10 8 9 11 16 16 16 12 0 -5 7 -3 15 4 12 10 15 10 15 -1
1 -10 4 -8 11 4 5 9 15 17 20 17 6 0 7 -6 3 -12 -4 -7 3 -4 16 7 14 12 20 14
15 5 -8 -13 -6 -13 8 -2 9 8 22 10 28 6 8 -5 9 -3 4 6 -6 10 -4 12 8 7 9 -3
19 -2 22 4 4 5 11 7 16 4 5 -4 9 -1 9 5 0 8 6 7 21 -1 15 -8 19 -8 15 0 -4 6
-1 11 7 11 8 0 17 6 20 13 6 15 34 16 56 2 8 -4 12 -4 9 1 -3 5 0 15 8 21 9 9
15 10 20 2 4 -8 14 -4 26 12 11 13 16 17 12 9 -7 -13 -5 -13 9 -2 9 8 22 10
28 6 8 -5 9 -3 4 6 -6 10 -4 12 11 6 10 -4 15 -4 11 0 -9 9 42 36 54 28 5 -3
9 -1 9 5 0 6 10 15 21 22 12 6 19 7 16 2 -4 -5 0 -10 8 -10 8 0 14 3 13 6 -2
21 4 30 17 25 8 -4 15 -1 15 7 0 7 3 9 7 6 3 -4 12 1 20 11 8 9 12 11 8 5 -4
-9 -1 -11 9 -7 9 3 13 10 10 15 -5 8 12 13 44 12 10 -1 10 2 0 15 -10 12 -10
14 0 8 7 -4 12 -2 12 5 0 8 4 8 15 -1 13 -11 14 -10 9 4 -5 12 -2 15 12 9 12
-4 15 -3 10 5 -4 7 -3 12 3 12 5 0 17 7 25 16 12 12 16 12 17 2 0 -7 4 -5 8 5
4 10 10 18 14 18 4 -1 23 15 43 35 20 19 42 33 49 30 7 -2 12 3 11 12 0 8 15
26 34 39 19 13 37 29 39 35 6 17 39 47 45 41 3 -4 6 -1 6 6 0 7 4 10 9 7 5 -3
8 2 7 12 0 10 5 16 13 14 8 -2 11 3 8 12 -4 9 -1 15 5 13 6 -1 11 8 13 21 2
26 -11 30 -18 5 -4 -15 -5 -15 -6 -2 0 9 6 22 14 29 15 12 20 4 16 -22 -2 -13
17 -9 22 5 2 6 -3 17 -12 24 -14 10 -14 14 4 34 l20 23 -25 -17 c-291 -200
-462 -286 -755 -381 -325 -105 -627 -150 -1015 -150 -412 -1 -746 41 -1182
150 -476 119 -892 273 -1718 639 -329 146 -502 216 -647 265 -64 21 -120 43
-126 49 -7 7 -3 8 12 4 14 -3 21 -1 21 8 0 11 2 11 10 -1 8 -13 10 -12 10 3 0
9 5 17 11 17 5 0 7 -5 4 -11 -4 -6 2 -5 13 2 12 7 19 17 16 21 -3 4 1 5 9 2 8
-3 18 0 22 6 6 9 10 9 16 -1 7 -11 9 -10 9 4 0 15 11 22 25 15 2 -2 10 6 18
16 8 11 19 16 25 12 7 -4 12 -1 12 8 0 10 7 13 20 11 11 -2 18 0 15 5 -3 5 9
16 27 25 18 8 24 13 13 10 -20 -5 -20 -5 0 10 11 9 25 13 33 10 7 -2 10 0 7 5
-3 6 -2 10 4 10 6 0 8 7 4 16 -5 13 -8 13 -15 2 -7 -9 -9 -7 -5 8 4 18 -6 24
-69 48 l-73 27 -63 -51 c-272 -221 -732 -260 -1067 -90 -130 65 -335 250 -314
283 3 6 1 7 -5 3 -13 -8 -35 28 -24 39 4 5 1 5 -5 1 -11 -6 -18 5 -10 19 1 2
-7 11 -18 20 -11 9 -13 14 -5 10 10 -4 9 -2 -2 8 -10 8 -15 17 -11 20 3 4 1 7
-6 7 -7 0 -9 5 -6 10 3 6 1 10 -5 10 -6 0 -8 5 -5 10 3 6 1 10 -5 10 -6 0 -8
5 -5 10 3 6 1 10 -6 10 -7 0 -9 10 -7 25 3 14 1 23 -6 22 -6 -1 -10 6 -8 16 2
9 -2 17 -7 17 -6 0 -8 6 -5 14 3 8 -2 26 -11 40 -10 14 -15 32 -12 41 4 8 1
17 -5 21 -7 4 -6 9 3 15 11 7 11 9 -2 9 -11 0 -15 9 -13 30 1 17 -3 30 -9 30
-7 0 -5 5 3 10 13 9 13 10 0 10 -13 0 -13 1 0 10 13 8 12 10 -3 10 -15 0 -16
3 -7 20 8 15 8 20 -2 20 -9 0 -9 3 2 10 8 5 10 10 3 10 -6 0 -9 9 -6 20 3 11
1 20 -4 20 -5 0 -10 7 -10 15 0 8 4 12 9 9 13 -8 6 29 -7 39 -6 4 -4 11 5 17
13 9 13 11 0 20 -13 9 -13 10 0 10 13 0 13 1 0 10 -13 9 -13 10 0 10 13 0 13
1 0 10 -13 9 -13 10 0 10 13 0 13 1 0 10 -13 9 -13 11 0 20 10 7 11 13 4 18
-11 8 -14 53 -3 46 4 -2 9 5 12 16 3 11 1 18 -4 14 -15 -9 -5 40 11 54 13 12
13 13 -4 8 -16 -6 -17 -4 -6 9 7 8 9 15 5 15 -4 0 -1 8 6 17 12 15 12 16 -1 8
-13 -8 -13 -6 -2 8 8 9 11 21 7 27 -3 5 -1 10 5 10 6 0 8 5 5 10 -4 6 -1 18 7
27 11 14 11 16 -2 8 -12 -6 -13 -5 -2 6 6 7 12 17 12 22 0 4 -6 5 -12 2 -7 -4
-5 0 4 8 14 11 15 16 5 26 -9 10 -9 12 2 9 13 -3 26 29 35 87 2 11 8 19 14 18
6 -2 9 4 6 12 -4 9 0 15 7 15 12 0 12 2 1 9 -11 7 -11 9 2 14 9 4 16 13 16 21
0 8 6 17 13 19 8 4 8 6 -2 6 -12 1 -11 4 3 14 9 7 19 21 20 32 2 11 9 19 14
18 7 -2 9 4 5 14 -4 11 -3 14 5 9 8 -5 12 0 12 13 0 11 8 25 18 30 9 6 14 11
10 11 -5 0 2 11 14 25 11 13 26 22 31 18 6 -4 7 -1 2 7 -4 7 -3 15 2 19 5 3
19 19 31 35 12 16 22 22 22 15 0 -11 2 -11 9 1 6 8 7 18 4 24 -3 5 -1 6 5 2 6
-3 17 0 25 8 8 8 18 12 21 8 4 -3 4 2 0 12 -5 12 -4 17 2 13 6 -3 17 3 24 13
11 15 17 17 27 8 8 -6 13 -7 12 -2 -3 20 2 35 10 29 5 -3 12 -1 16 5 4 6 10 8
15 5 4 -3 10 2 14 10 3 8 10 15 16 15 6 0 8 -4 5 -10 -3 -5 -1 -10 5 -10 7 0
9 8 5 19 -5 16 -2 18 15 14 12 -3 20 0 20 6 0 7 5 9 10 6 6 -3 10 -1 10 6 0 7
3 9 7 6 3 -4 15 0 25 10 17 15 18 15 18 -3 1 -17 2 -16 13 4 7 12 16 20 20 16
3 -4 13 -2 20 5 8 6 23 8 32 4 14 -5 16 -3 10 8 -7 11 -5 11 10 -1 10 -8 16
-10 12 -4 -4 7 2 14 13 17 13 3 18 1 13 -6 -4 -8 -2 -8 9 0 8 7 18 10 21 6 4
-3 7 -1 7 5 0 8 11 9 32 5 23 -5 29 -3 23 6 -6 10 -3 11 14 1 17 -9 26 -9 37
1 10 8 14 8 14 0 0 -6 5 -11 11 -11 5 0 7 5 3 11 -5 8 -1 8 13 0 14 -7 23 -7
31 1 9 9 12 9 12 0 0 -6 7 -9 15 -6 8 4 12 11 9 16 -4 6 1 6 13 -1 11 -6 23
-7 27 -4 3 3 6 0 6 -8 0 -11 2 -11 10 1 7 11 10 11 10 2 0 -10 5 -10 23 -1 21
12 21 11 7 -6 -14 -17 -14 -17 7 -7 26 14 36 15 29 3 -4 -5 2 -7 13 -4 10 3
22 0 26 -7 5 -8 10 -8 21 1 8 6 14 7 14 2 0 -9 6 -11 50 -15 11 -1 20 -6 20
-11 0 -5 8 -3 18 4 9 7 14 9 10 5 -11 -13 33 -41 56 -37 10 1 22 -1 25 -6 3
-4 17 -14 30 -21 19 -11 22 -11 16 0 -3 7 1 4 10 -7 9 -11 19 -19 23 -19 4 1
6 -2 4 -8 -1 -5 2 -7 8 -3 5 3 10 1 10 -6 0 -7 3 -9 7 -6 3 4 12 2 20 -4 7 -6
13 -8 13 -4 0 5 11 -5 25 -21 14 -16 25 -26 25 -22 0 4 10 -3 23 -15 13 -12
21 -26 19 -31 -3 -5 0 -6 7 -2 13 8 43 -23 35 -36 -3 -4 2 -5 10 -2 10 4 16 1
16 -9 0 -8 3 -17 8 -19 17 -7 62 -70 56 -79 -3 -5 -1 -8 5 -7 12 3 23 -14 79
-127 91 -182 133 -392 127 -635 -5 -198 -57 -426 -131 -572 -20 -40 -21 -47
-8 -52 8 -3 12 -10 9 -16 -3 -5 -1 -10 5 -10 6 0 8 -4 5 -10 -3 -6 1 -7 9 -4
9 4 18 0 22 -10 5 -12 10 -13 27 -5 16 9 19 9 14 -4 -4 -10 0 -14 11 -12 9 1
20 -2 23 -7 3 -5 18 -11 32 -12 20 -2 25 1 22 15 -3 13 1 16 12 12 10 -4 14
-2 10 4 -4 6 -1 18 7 26 11 11 12 17 3 26 -9 9 -8 11 7 5 16 -6 18 -4 14 20
-4 19 0 31 13 40 10 7 16 16 12 19 -3 4 -1 7 6 7 7 0 9 5 6 10 -3 6 -1 10 5
10 6 0 8 5 5 10 -3 6 -1 10 5 10 6 0 9 4 5 10 -3 5 1 25 9 45 8 19 12 35 8 35
-4 0 0 5 8 10 9 6 14 21 12 42 -2 25 0 29 7 18 13 -19 14 0 1 20 -6 10 -3 20
9 31 12 11 17 28 15 45 -1 16 1 33 6 39 5 6 5 17 1 24 -5 8 -5 27 -1 42 6 18
5 31 -2 35 -7 5 -4 12 7 21 14 9 15 13 4 13 -12 0 -12 2 1 10 9 6 10 10 3 10
-7 0 -10 11 -8 28 2 15 4 31 4 35 1 5 7 5 14 1 6 -4 2 3 -10 15 -23 22 -31 37
-14 27 5 -3 11 1 15 9 3 8 1 17 -4 20 -15 9 -12 37 3 29 10 -6 10 -4 0 7 -7 7
-13 27 -13 44 0 17 -6 37 -12 44 -10 11 -10 13 0 7 6 -4 12 -3 12 1 0 5 -6 15
-12 22 -11 11 -10 12 2 6 13 -8 13 -6 2 7 -10 13 -10 17 0 21 10 4 10 6 1 6
-8 1 -13 15 -13 36 0 19 -5 35 -11 35 -8 0 -8 5 1 15 10 12 9 16 -2 20 -9 4
-14 16 -12 31 1 13 -2 24 -7 24 -6 0 -7 5 -4 10 3 6 1 10 -5 10 -6 0 -9 4 -6
8 3 5 -1 21 -9 36 -8 14 -10 24 -5 21 6 -3 7 1 4 9 -3 9 -11 16 -16 16 -6 0
-7 7 -4 15 3 9 -1 18 -8 21 -8 3 -13 14 -11 25 3 12 0 17 -7 13 -8 -5 -9 -1
-5 10 4 10 3 15 -3 11 -6 -3 -10 0 -10 8 0 8 -11 31 -25 51 -13 20 -22 36 -19
36 3 0 -1 7 -8 15 -29 33 -38 45 -33 45 4 0 0 6 -7 14 -8 7 -30 33 -49 56
-242 298 -658 451 -1109 408z"/>
<path d="M11280 8223 c-1 -98 -2 -191 -1 -220 1 -35 26 -67 47 -59 8 3 14 1
14 -5 0 -6 7 -6 20 1 15 8 20 8 20 -1 0 -9 3 -9 14 0 10 9 15 9 18 1 2 -8 11
-8 31 -1 23 9 27 8 27 -6 0 -14 2 -14 15 3 10 13 14 15 15 5 0 -8 3 -11 7 -8
3 4 13 1 21 -6 10 -8 13 -8 9 -1 -4 7 0 14 8 18 8 3 15 1 15 -4 0 -5 7 -7 15
-4 8 4 13 10 10 14 -3 4 3 11 13 15 15 6 15 8 2 18 -16 13 -21 87 -6 87 5 0 2
8 -5 17 -12 14 -12 15 -1 9 11 -7 12 -4 3 13 -7 11 -8 21 -2 21 5 0 6 14 1 35
-5 23 -4 36 4 39 7 3 6 5 -2 5 -7 1 -10 6 -7 11 3 6 1 10 -4 10 -6 0 -11 7
-11 15 0 13 -23 15 -145 15 l-145 0 0 -37z"/>
<path d="M11679 8248 c-5 -90 2 -273 10 -276 6 -2 9 -8 5 -13 -3 -5 0 -9 6 -9
6 0 8 -5 4 -11 -5 -8 -1 -8 14 0 14 7 23 8 27 1 3 -5 11 -10 16 -10 6 0 8 4 5
8 -2 4 4 8 14 8 10 0 16 -4 14 -8 -8 -13 11 -9 25 5 11 10 12 9 6 -3 -8 -13
-7 -13 8 -1 9 7 17 9 17 4 0 -5 7 -10 15 -10 8 0 15 5 15 11 0 6 5 4 10 -4 9
-13 10 -13 10 0 0 13 1 13 10 0 7 -11 12 -12 21 -3 8 8 18 9 30 2 14 -7 21 -5
28 10 6 10 8 21 5 24 -3 3 -7 17 -8 31 -2 18 2 26 13 27 12 0 11 2 -4 9 -11 5
-15 9 -9 9 8 1 9 12 4 36 -5 21 -4 35 2 35 5 0 6 5 3 11 -11 17 -13 59 -2 59
5 0 5 5 -2 13 -6 8 -8 17 -4 20 3 4 1 7 -5 7 -7 0 -12 7 -12 15 0 13 -23 15
-145 15 -109 0 -145 -3 -146 -12z"/>
<path d="M3905 7538 c12 -56 18 -1090 6 -1120 -13 -35 -47 -56 -93 -60 -43 -2
-57 -24 -31 -45 10 -8 12 -11 4 -7 -9 5 -12 3 -7 -5 4 -6 11 -9 16 -6 5 3 13
-3 19 -12 10 -17 10 -17 11 0 0 20 16 23 23 5 3 -10 7 -10 17 -1 8 8 20 9 36
3 17 -7 24 -6 24 3 0 8 4 7 10 -3 7 -11 10 -11 10 -2 0 10 5 10 20 2 15 -8 20
-8 20 2 1 8 7 5 15 -6 15 -20 15 -20 15 0 0 16 2 17 10 4 7 -11 10 -11 10 -2
0 9 5 10 18 4 9 -5 28 -6 42 -2 14 4 33 3 43 -2 10 -5 17 -5 17 1 0 6 7 8 15
5 10 -4 15 0 15 16 0 11 -4 18 -10 15 -5 -3 -10 2 -10 12 0 14 -9 18 -36 20
-48 3 -87 29 -81 54 3 10 2 21 -3 24 -4 2 -6 21 -3 41 3 27 1 34 -9 28 -10 -6
-9 -3 1 9 7 9 11 23 8 30 -3 8 -1 20 3 27 5 8 6 18 3 24 -9 14 -12 77 -4 71 4
-2 8 2 8 10 0 8 -7 15 -16 15 -11 0 -11 3 5 16 10 8 14 13 8 10 -8 -4 -11 3
-10 19 0 16 6 23 14 20 7 -3 10 0 7 5 -3 6 -14 10 -23 10 -13 0 -13 2 4 16 10
8 14 13 7 10 -8 -4 -11 2 -8 21 2 16 4 28 5 28 1 0 3 10 4 23 2 13 -4 27 -13
32 -12 7 -12 9 -2 10 9 0 12 8 9 24 -3 14 -1 30 3 37 4 7 5 18 1 24 -10 15 -8
39 3 47 6 5 5 8 -2 8 -7 0 -13 5 -13 11 0 5 4 8 9 5 10 -7 9 20 -2 30 -3 4 -2
15 3 25 7 11 7 20 0 24 -11 7 -9 65 3 65 5 0 5 5 1 12 -4 7 -3 8 4 4 7 -4 12
-14 12 -21 0 -9 6 -12 17 -8 9 4 14 2 11 -3 -2 -5 7 -20 20 -34 14 -14 21 -19
17 -11 -5 9 -4 12 3 7 7 -4 12 -14 12 -22 0 -8 5 -12 10 -9 6 3 10 -2 10 -11
0 -10 3 -15 6 -11 9 9 44 -25 37 -37 -3 -6 -3 -8 1 -4 11 9 46 -23 39 -35 -3
-6 -1 -7 6 -3 6 4 14 0 17 -8 3 -9 10 -13 15 -10 8 5 13 -9 10 -28 0 -4 6 -5
14 -2 9 4 15 0 15 -10 0 -9 4 -16 8 -16 18 0 54 -39 46 -51 -4 -8 -3 -9 4 -5
12 7 69 -42 65 -56 -2 -4 0 -7 5 -7 19 3 33 -2 27 -11 -3 -5 1 -10 9 -10 9 0
16 -9 16 -21 0 -11 4 -17 10 -14 6 4 39 -23 75 -59 35 -36 69 -66 75 -66 6 0
8 -4 5 -10 -3 -5 1 -10 10 -10 11 0 15 -5 11 -16 -3 -8 -2 -12 4 -9 6 3 10 1
10 -4 0 -6 6 -11 13 -11 14 0 47 -35 47 -51 0 -5 4 -8 9 -4 6 3 15 -4 21 -15
6 -11 15 -18 21 -15 5 4 9 1 9 -4 0 -13 59 -71 72 -71 5 0 6 -4 3 -10 -3 -5
-1 -10 6 -10 14 0 59 -46 59 -61 0 -5 3 -8 8 -8 4 1 14 1 22 0 13 -1 13 -2 0
-11 -12 -8 -10 -10 8 -10 13 0 21 -4 18 -8 -6 -10 30 -43 38 -35 3 4 6 1 6 -6
0 -7 5 -9 10 -6 6 3 10 0 10 -7 0 -10 2 -10 9 1 6 9 6 24 0 38 -6 16 -5 22 1
18 6 -3 10 -1 10 4 0 6 -5 11 -12 11 -6 0 -8 3 -5 6 3 4 2 15 -3 25 -7 12 -6
20 2 25 6 4 8 3 4 -4 -3 -6 -2 -13 3 -16 10 -7 9 9 -4 37 -4 9 -5 33 -3 52 2
19 -1 37 -7 39 -5 2 -4 5 3 5 9 1 10 6 2 20 -7 14 -6 21 3 24 7 3 8 6 1 6 -8
1 -9 14 -4 40 4 22 4 45 0 51 -4 6 -4 29 0 50 4 22 3 37 -1 34 -5 -3 -9 0 -9
5 0 6 5 11 10 11 7 0 7 6 0 19 -7 14 -6 21 3 24 7 3 8 6 1 6 -8 1 -9 14 -4 40
4 22 4 45 0 51 -4 6 -4 29 0 50 4 22 3 37 -1 34 -5 -3 -9 0 -9 5 0 6 5 11 10
11 7 0 7 6 0 19 -7 14 -6 21 3 24 7 3 8 6 1 6 -8 1 -9 14 -4 40 4 22 4 45 0
51 -4 6 -4 29 0 50 4 22 3 37 -1 34 -5 -3 -9 0 -9 5 0 6 5 11 10 11 7 0 7 6 0
19 -7 14 -6 21 3 24 7 3 8 6 1 6 -8 1 -9 14 -4 40 4 25 3 44 -3 50 -8 8 -7 11
2 11 7 0 9 5 6 10 -4 6 -1 17 5 25 6 8 9 19 5 25 -3 5 1 10 10 10 9 0 13 5 10
10 -4 6 -3 10 2 9 26 -4 44 2 37 14 -5 8 -2 8 9 -2 15 -12 17 -11 17 5 0 16 1
16 13 2 10 -14 14 -15 24 -3 10 11 10 17 -2 29 -8 8 -15 19 -15 25 0 8 -63 11
-196 11 l-195 0 3 -22 c2 -13 9 -22 17 -20 7 1 11 -3 9 -10 -3 -7 5 -18 16
-24 16 -8 25 -7 40 5 11 9 16 11 13 4 -4 -7 1 -14 13 -18 11 -4 18 -11 15 -16
-4 -5 -1 -9 4 -9 8 0 11 -130 11 -415 l0 -415 -34 33 c-18 17 -93 88 -166 157
-73 69 -147 139 -165 155 -17 17 -91 86 -164 155 -74 69 -154 145 -180 169
-323 304 -318 300 -340 301 -10 0 -11 -8 -6 -32z"/>
<path d="M5346 7562 c-3 -5 -1 -35 4 -68 4 -32 9 -288 9 -567 l1 -508 -29 -30
c-16 -16 -37 -30 -45 -30 -9 -1 -24 -2 -33 -3 -32 -2 -45 -16 -32 -32 6 -7 16
-11 23 -7 6 4 6 0 -2 -9 -10 -13 -10 -17 3 -22 9 -3 13 -2 10 4 -3 6 -1 10 4
10 6 0 11 -5 11 -10 0 -8 6 -8 17 -1 13 7 23 5 36 -7 16 -15 17 -15 12 1 -6
14 -2 15 24 7 18 -5 31 -5 31 0 0 6 12 5 27 -1 19 -7 28 -6 33 2 6 8 9 7 13
-2 4 -11 6 -11 6 -1 1 10 6 10 21 2 15 -8 20 -8 20 2 1 8 7 5 15 -6 15 -20 15
-20 15 0 0 16 2 17 10 4 7 -11 10 -11 10 -2 0 10 5 10 20 2 13 -7 20 -7 20 -1
0 6 7 8 15 5 10 -4 15 0 15 16 0 11 -4 18 -10 15 -5 -3 -10 2 -10 12 0 15 -8
19 -35 20 -41 1 -85 27 -86 51 0 9 -1 36 -2 60 -1 23 0 42 3 42 3 0 6 9 6 19
0 11 -4 17 -8 15 -4 -3 -8 0 -8 5 0 6 6 11 13 11 9 0 9 2 0 8 -8 5 -9 13 -3
22 5 8 5 21 -1 32 -7 12 -6 18 1 18 6 0 8 5 5 11 -10 14 -14 59 -6 59 4 0 7 9
7 19 0 11 -4 17 -8 15 -4 -3 -8 4 -8 15 0 12 5 21 10 21 7 0 7 6 0 20 -8 15
-8 20 2 20 10 0 10 2 1 8 -8 5 -9 13 -3 22 5 8 5 21 -1 32 -7 13 -6 18 3 18 9
0 9 3 -2 10 -13 9 -13 10 0 11 10 0 8 3 -5 9 -18 8 -18 9 -2 9 14 1 16 5 7 20
-7 14 -6 21 3 24 9 4 9 6 0 6 -7 1 -13 6 -13 12 0 5 3 8 8 6 9 -6 8 56 -2 71
-4 7 -2 12 5 12 10 0 10 3 1 12 -14 14 -16 32 -3 24 4 -3 5 12 1 34 -4 22 -4
40 1 40 5 0 6 8 3 18 -5 14 -2 13 13 -3 10 -12 26 -24 36 -28 9 -3 17 -13 17
-22 0 -8 5 -15 11 -15 15 0 39 -26 31 -35 -4 -4 -2 -5 4 -3 6 1 28 -15 48 -36
20 -22 36 -37 36 -33 0 4 14 -6 30 -23 17 -17 27 -36 24 -42 -4 -7 -2 -8 4 -4
7 4 35 -16 70 -51 31 -31 60 -57 65 -55 4 1 7 -8 8 -21 0 -12 3 -17 5 -11 7
16 74 -51 74 -73 0 -13 3 -14 8 -5 6 8 18 1 43 -28 19 -22 40 -40 47 -40 7 0
11 -4 7 -9 -3 -5 4 -12 15 -16 18 -6 25 -17 21 -38 -1 -5 4 -7 11 -5 7 3 22
-6 34 -19 11 -12 24 -19 28 -15 4 4 7 2 6 -3 -4 -19 0 -38 7 -32 3 4 16 -5 29
-18 13 -14 29 -25 35 -25 7 0 9 -3 6 -7 -4 -3 7 -16 23 -28 16 -12 27 -25 23
-28 -3 -4 3 -10 13 -14 25 -9 64 -49 57 -57 -4 -3 0 -6 7 -6 14 0 60 -46 60
-61 0 -5 5 -9 11 -9 8 0 8 5 -1 18 -7 9 0 3 17 -15 16 -18 36 -33 44 -35 8 -2
18 -7 22 -13 5 -6 7 -3 4 6 -3 9 -1 21 5 27 8 8 6 13 -6 18 -14 5 -15 9 -4 15
11 7 11 9 -1 9 -11 0 -11 3 -1 15 10 12 10 15 0 15 -10 0 -10 3 0 15 10 12 10
15 0 15 -8 0 -11 2 -8 6 3 3 2 21 -2 40 -7 28 -5 34 9 35 12 0 12 2 -4 9 -11
5 -15 9 -9 9 11 1 10 53 -1 72 -4 5 0 9 7 9 10 0 10 2 -1 9 -9 6 -10 10 -2 12
9 3 9 12 2 32 -8 20 -7 27 2 27 8 0 8 3 -2 9 -11 7 -11 9 0 14 12 4 11 7 -1
16 -11 8 -11 11 -2 11 9 0 10 5 3 17 -7 12 -5 21 7 30 15 12 15 12 1 7 -14 -4
-16 0 -9 35 4 24 3 44 -3 50 -7 7 -7 11 -1 11 5 0 10 9 10 20 0 11 -5 20 -11
20 -5 0 -3 5 5 10 8 5 11 10 5 10 -11 0 -16 60 -5 60 8 0 4 56 -5 71 -4 5 0 9
7 9 10 0 10 2 -1 9 -9 6 -10 10 -2 12 9 3 9 12 2 32 -8 20 -7 27 2 27 8 0 8 3
-2 9 -11 7 -11 9 0 14 12 4 11 7 -1 16 -11 8 -11 11 -2 11 9 0 10 5 3 17 -7
12 -5 21 7 30 15 12 15 12 1 7 -14 -4 -16 0 -9 35 4 24 3 44 -3 50 -8 8 -8 11
0 11 13 0 12 32 -2 42 -6 5 -6 8 1 8 7 0 14 9 17 20 3 13 1 18 -5 13 -7 -3 -8
-1 -4 5 4 7 14 12 23 12 9 0 13 6 9 15 -3 8 -2 14 2 14 26 -4 42 2 36 14 -6 9
-4 9 8 -1 13 -10 17 -10 22 4 5 12 10 13 19 6 8 -7 18 -7 27 -2 11 7 12 10 2
10 -7 0 -10 5 -7 10 4 6 1 9 -6 8 -7 -2 -13 4 -14 12 0 13 -30 15 -198 18
l-198 2 3 -22 c2 -13 9 -22 17 -20 8 2 11 -3 8 -11 -3 -8 7 -18 27 -25 29 -11
30 -11 11 5 l-20 16 20 -7 c11 -4 25 -8 30 -9 18 -3 45 -39 46 -61 4 -92 1
-787 -3 -791 -3 -3 -28 16 -55 42 -28 27 -108 102 -179 168 -70 66 -163 154
-206 195 -43 42 -78 75 -78 73 0 -1 -15 12 -34 30 -18 17 -95 91 -171 162 -76
72 -150 141 -164 155 -136 129 -153 141 -165 122z"/>
<path d="M9570 7555 c-43 -9 -178 -13 -402 -14 -331 -1 -338 -1 -338 -21 0
-11 6 -20 14 -20 7 0 20 -8 27 -17 13 -16 12 -17 -4 -4 -9 8 -20 11 -23 8 -9
-9 29 -23 55 -21 13 1 34 -8 47 -19 l24 -21 0 -504 0 -504 -29 -29 c-28 -28
-38 -31 -88 -32 -16 0 -23 -6 -23 -18 0 -13 8 -19 23 -20 21 -1 21 -1 -3 -9
-22 -7 -22 -8 -5 -11 11 -1 26 -2 33 -2 6 1 12 -4 12 -11 0 -6 5 -4 10 4 5 8
10 11 10 5 0 -5 14 -10 30 -10 17 0 30 5 30 10 0 6 5 3 10 -5 7 -11 10 -11 10
-2 0 10 5 10 20 2 15 -8 20 -8 20 2 1 8 7 5 15 -6 15 -20 15 -20 15 0 0 16 2
17 10 4 7 -11 10 -11 10 -2 0 7 5 10 11 7 17 -11 119 -11 119 0 0 6 5 3 10 -5
7 -11 10 -11 10 -2 0 10 5 10 20 2 15 -8 20 -8 20 2 1 8 7 5 15 -6 15 -20 15
-20 15 0 0 16 2 17 10 4 7 -11 10 -11 10 -2 0 7 5 10 11 7 17 -11 119 -11 119
0 0 6 5 3 10 -5 7 -11 10 -11 10 -2 0 10 5 10 20 2 15 -8 20 -8 20 2 1 8 7 5
15 -6 15 -20 15 -20 15 0 0 16 2 17 10 4 7 -11 10 -11 10 -2 0 7 5 10 11 7 15
-10 59 -13 59 -5 0 4 11 5 24 3 19 -4 26 1 37 29 7 18 12 39 12 46 0 6 3 12 8
12 5 0 8 6 6 13 -1 6 3 11 9 10 7 -1 9 8 6 24 -3 18 -1 24 6 19 8 -5 10 -1 5
10 -5 13 -3 15 7 9 9 -5 11 -4 6 4 -4 6 -2 19 6 28 11 14 11 16 -2 8 -13 -8
-13 -7 0 11 8 10 20 22 25 26 6 5 5 8 -4 8 -10 0 -11 3 -2 14 9 10 8 15 -4 19
-8 4 -12 13 -9 22 4 10 0 15 -13 15 -13 0 -28 -18 -48 -56 -16 -30 -48 -73
-71 -94 -64 -59 -124 -72 -319 -73 -158 0 -203 6 -174 24 10 6 11 9 2 9 -7 0
-13 5 -13 11 0 5 6 7 13 3 9 -5 9 -4 0 6 -8 9 -9 19 -3 31 6 10 6 20 2 23 -9
5 -8 35 2 99 3 22 1 27 -10 23 -10 -4 -12 -2 -7 7 4 6 8 21 8 32 0 11 5 26 9
34 7 10 5 12 -5 6 -12 -7 -12 -6 -1 7 10 12 10 17 1 20 -9 3 -9 9 0 27 9 16 9
26 2 35 -7 9 -7 16 2 26 6 7 7 10 2 7 -6 -3 -11 3 -11 13 0 10 4 16 9 13 4 -2
14 1 22 7 8 7 15 8 15 3 0 -5 10 -9 23 -7 12 1 26 3 30 3 5 1 5 7 2 14 -4 6 1
3 10 -8 13 -16 17 -17 24 -6 5 7 11 9 14 4 7 -11 37 -11 55 1 7 4 12 2 12 -5
0 -8 4 -8 15 1 8 7 15 8 15 3 0 -10 60 -10 78 1 7 4 12 2 12 -3 0 -6 5 -11 11
-11 5 0 7 6 3 13 -4 6 2 3 14 -7 13 -11 22 -31 22 -48 0 -22 6 -31 21 -35 13
-4 17 -8 9 -13 -9 -5 -8 -9 2 -12 7 -3 19 1 26 8 9 10 9 14 1 14 -8 0 -8 5 2
16 10 13 10 17 -2 25 -12 8 -12 10 1 19 9 6 11 13 5 18 -13 10 -18 35 -5 27 5
-3 10 -1 10 4 0 6 -5 11 -11 11 -8 0 -8 5 1 15 9 11 9 15 1 15 -7 0 -9 5 -5
12 11 18 12 48 2 48 -5 0 -6 6 -2 12 13 21 11 47 -3 52 -7 3 -13 12 -13 21 0
8 -8 15 -18 15 -13 0 -18 -9 -20 -32 -2 -18 -9 -43 -18 -55 -16 -25 -11 -24
-204 -25 -167 0 -177 1 -160 12 13 9 13 10 0 10 -12 0 -13 2 -1 9 10 7 10 10
1 13 -10 3 -10 9 0 27 9 18 9 22 0 16 -9 -6 -9 -2 -1 14 7 11 8 21 2 21 -5 0
-12 7 -15 16 -3 8 -2 13 3 10 5 -3 11 1 15 9 3 8 0 15 -6 15 -7 0 -6 5 2 15
10 12 10 15 0 15 -8 0 -10 7 -5 18 14 36 13 63 -3 57 -12 -4 -13 -3 -2 10 7 8
9 15 6 15 -4 0 -2 10 5 21 8 16 8 20 -1 14 -9 -6 -9 -2 -1 14 9 16 9 21 0 21
-8 0 -8 4 1 15 10 12 10 15 0 15 -9 0 -9 4 1 17 12 14 12 16 0 8 -11 -6 -13
-4 -8 9 4 10 7 19 7 22 0 2 7 1 15 -2 8 -4 15 -1 15 6 0 10 3 10 15 0 12 -10
15 -10 15 1 0 11 2 11 10 -1 9 -13 10 -13 10 0 0 9 3 11 8 5 8 -12 42 -16 42
-6 0 4 23 5 50 1 29 -4 50 -2 50 3 0 5 7 4 15 -3 11 -9 15 -9 15 -1 0 8 5 9
17 2 10 -5 26 -5 41 0 14 5 21 5 17 0 -3 -5 -1 -12 5 -16 5 -3 10 0 10 7 0 10
11 12 40 10 22 -2 37 -8 34 -13 -3 -5 1 -6 9 -3 19 7 39 -19 40 -53 1 -16 9
-35 18 -43 9 -8 18 -22 22 -30 4 -12 6 -11 6 3 1 9 5 17 10 17 5 0 7 18 5 40
-3 31 -1 39 9 34 9 -5 9 -4 0 6 -10 11 -10 17 0 29 8 10 9 13 0 8 -8 -5 -11 9
-10 50 1 41 -3 57 -11 56 -7 -2 -11 0 -11 5 3 16 -1 32 -8 31 -5 -1 -37 -7
-73 -14z"/>
<path d="M10490 7158 c-178 -514 -179 -518 -191 -518 -6 0 -7 5 -4 10 4 6 0
24 -9 40 -8 17 -10 28 -5 25 14 -9 11 5 -6 22 -8 8 -13 19 -10 24 4 5 2 9 -2
9 -5 0 -10 8 -11 18 -3 31 -8 47 -20 70 -7 12 -10 22 -6 22 3 0 1 7 -6 15 -7
8 -9 15 -5 15 4 0 1 8 -6 17 -12 14 -12 16 1 9 8 -4 6 0 -5 9 -16 12 -17 18
-7 24 11 7 10 10 -3 15 -9 3 -13 10 -10 16 3 5 1 10 -4 10 -6 0 -11 5 -11 11
0 5 6 7 13 3 8 -6 8 -3 -1 9 -8 9 -10 22 -6 28 4 7 3 9 -3 6 -6 -4 -13 0 -17
8 -3 8 0 15 7 15 7 0 4 5 -7 11 -15 9 -16 13 -5 20 11 7 11 9 -1 9 -9 0 -16
10 -18 25 -3 37 -6 49 -15 56 -7 5 -13 32 -16 72 -1 5 -5 6 -10 3 -4 -3 -7 6
-5 19 1 14 -2 25 -7 25 -5 0 -9 8 -9 18 0 10 -5 23 -12 30 -7 7 -8 12 -2 12 5
0 10 9 10 20 0 11 -4 20 -8 20 -4 0 1 9 13 21 13 13 29 19 44 17 17 -4 25 0
28 14 3 10 1 18 -4 18 -5 0 -9 9 -9 20 0 19 -7 20 -218 20 -211 0 -218 -1
-219 -20 -1 -11 4 -20 13 -20 8 0 14 -7 14 -15 0 -8 9 -15 20 -15 11 0 20 -6
20 -12 0 -8 5 -6 11 4 9 16 13 15 49 -10 22 -15 37 -33 35 -39 -2 -7 -1 -13 4
-13 5 0 23 -37 40 -82 18 -46 36 -92 41 -103 4 -11 13 -36 20 -55 7 -19 18
-48 25 -65 7 -16 57 -145 110 -285 52 -140 100 -264 105 -275 5 -11 30 -75 56
-142 39 -102 50 -122 70 -126 29 -5 37 2 23 20 -7 8 -8 13 -1 13 5 0 12 9 15
20 3 11 2 18 -3 15 -4 -3 -7 6 -6 19 0 13 4 22 7 20 4 -2 9 5 12 16 3 11 1 20
-5 20 -5 0 -6 5 -3 10 4 6 12 7 18 4 9 -5 9 -4 0 6 -12 13 -6 43 7 35 5 -3 7
6 4 21 -3 19 -1 24 8 18 10 -6 9 -3 -1 9 -12 15 -11 17 2 17 10 0 14 6 11 15
-4 9 0 15 7 15 11 0 11 3 -1 10 -11 7 -11 10 -2 10 7 0 10 5 7 10 -3 6 -1 10
5 10 6 0 9 4 5 9 -3 5 -1 12 5 16 6 4 8 11 5 16 -4 5 -2 9 3 9 5 0 9 6 10 13
3 38 8 53 20 60 7 5 10 17 7 27 -3 11 0 20 11 24 14 5 14 9 3 23 -12 15 -12
16 3 11 11 -5 15 -2 13 10 -1 9 5 26 14 37 15 19 15 19 -2 6 -17 -13 -17 -13
-6 12 7 15 16 24 22 20 6 -4 7 -1 2 7 -4 7 -2 16 6 21 10 6 11 9 2 9 -7 0 -13
5 -13 11 0 5 5 7 10 4 9 -6 14 8 11 28 0 4 4 7 10 7 8 0 8 4 1 13 -7 8 -6 16
3 24 7 6 15 10 18 7 2 -3 2 7 0 21 -3 14 -1 25 4 25 6 0 10 10 9 23 -1 12 8
30 19 40 11 10 14 15 6 11 -9 -4 -12 -2 -9 6 8 24 23 21 35 -7 15 -34 239
-609 290 -743 20 -52 42 -100 50 -106 7 -6 12 -18 10 -25 -2 -8 -2 -11 0 -6 3
4 14 7 25 7 14 0 18 5 14 15 -3 8 0 15 7 15 8 0 6 4 -3 10 -11 7 -11 10 -2 10
7 0 10 5 7 10 -4 6 -1 17 5 25 8 9 8 15 2 15 -5 0 -8 9 -5 20 3 11 9 18 13 15
5 -3 12 0 16 6 4 8 3 9 -4 5 -7 -4 -12 -1 -12 8 0 8 5 18 11 22 8 4 7 9 -2 15
-11 7 -11 9 -1 9 7 0 10 5 7 10 -3 6 -1 10 5 10 6 0 8 5 5 10 -3 6 -1 10 6 10
7 0 9 10 7 24 -3 16 0 27 10 31 8 3 11 12 8 20 -3 8 0 15 6 15 7 0 7 4 -1 14
-9 10 -7 17 6 27 17 13 17 13 3 -6 -14 -19 -14 -19 3 -6 13 10 15 17 6 27 -8
10 -8 14 0 14 6 0 10 3 10 8 -1 4 0 10 1 15 4 12 7 26 9 38 0 5 7 7 14 3 8 -5
8 -2 -2 9 -13 16 -8 22 13 18 5 -1 4 5 -4 13 -10 13 -10 16 0 16 8 0 10 3 7 7
-4 3 1 12 11 20 9 8 11 12 5 8 -7 -3 -13 -1 -13 4 0 6 5 11 11 11 5 0 8 4 5 9
-9 15 5 42 18 34 6 -4 5 1 -3 10 -9 11 -10 17 -2 17 6 0 10 6 8 13 -1 6 4 11
12 9 12 -3 12 0 1 12 -8 10 -9 16 -2 16 6 0 9 6 6 14 -3 8 0 17 5 21 6 3 9 11
6 16 -4 5 2 9 12 9 15 0 15 2 4 9 -12 8 -12 12 -2 25 7 9 11 23 7 31 -3 9 -2
14 3 11 10 -7 21 17 21 45 0 10 6 19 13 19 8 0 7 4 -3 10 -10 6 -11 10 -2 10
6 0 12 9 12 19 0 11 5 23 11 26 5 4 8 12 6 18 -2 7 3 21 12 31 13 16 13 18 1
11 -13 -8 -13 -7 -1 8 7 9 10 17 5 17 -5 0 -2 5 7 10 9 5 16 20 15 32 -1 13 6
30 16 39 10 9 15 19 11 23 -3 3 -1 6 6 6 7 0 10 4 7 8 -2 4 4 13 14 20 17 10
18 9 13 -6 -3 -10 1 -8 12 7 14 18 19 20 26 10 7 -11 9 -9 9 6 0 11 4 16 8 10
12 -17 38 -13 51 7 7 11 8 17 3 14 -6 -3 -13 5 -16 19 l-6 25 -189 0 c-161 0
-190 -2 -195 -15 -3 -9 1 -18 9 -21 8 -4 15 -12 15 -20 0 -12 19 -19 42 -15 4
0 10 -10 14 -24 4 -17 -28 -138 -100 -375 -58 -193 -110 -359 -115 -368 -9
-15 -10 -14 -11 6 0 12 -4 22 -8 22 -4 0 -9 10 -9 22 -1 13 -7 24 -12 26 -5 2
-7 10 -4 18 3 8 0 14 -6 14 -6 0 -11 5 -11 11 0 5 5 7 11 3 8 -5 8 -1 0 14 -6
12 -16 24 -21 27 -6 4 -8 11 -5 16 4 5 1 9 -6 9 -7 0 -9 3 -6 7 4 3 0 17 -8
29 -8 13 -16 35 -17 48 -1 14 -6 22 -12 19 -5 -3 -7 6 -4 21 4 20 0 29 -15 37
-16 9 -17 13 -6 20 10 6 11 9 2 9 -7 0 -12 3 -11 8 1 4 -3 17 -10 28 -6 12 -8
24 -5 28 3 3 1 6 -6 6 -7 0 -9 5 -6 10 3 6 2 10 -4 10 -5 0 -8 9 -6 20 2 11 0
18 -6 15 -5 -4 -9 2 -9 12 0 11 -6 25 -12 32 -11 11 -10 12 2 6 10 -6 9 -2 -3
13 -11 11 -16 26 -12 31 3 6 1 11 -5 11 -6 0 -8 5 -5 10 3 6 1 10 -5 10 -6 0
-9 4 -6 9 4 5 0 12 -6 14 -9 4 -9 6 1 6 12 1 11 4 -3 14 -9 7 -18 22 -19 35 0
12 -5 22 -10 22 -4 0 -5 5 -2 10 3 6 2 10 -3 10 -8 0 -10 6 -14 49 -1 11 -6
18 -9 15 -4 -2 -10 0 -14 6 -3 5 -1 10 4 10 6 0 2 9 -9 20 -11 11 -26 20 -33
20 -9 0 -64 -145 -157 -412z"/>
<path d="M11885 7541 c-10 -38 -56 -152 -108 -261 -24 -52 -56 -120 -70 -150
-14 -30 -46 -100 -72 -155 -26 -55 -78 -165 -115 -245 -124 -267 -139 -295
-172 -327 -31 -29 -54 -40 -104 -47 -23 -3 -32 -36 -10 -36 8 0 18 -4 21 -10
4 -6 -1 -7 -11 -3 -15 6 -15 4 2 -13 13 -14 20 -16 22 -7 2 7 8 13 13 13 6 0
7 -4 4 -10 -4 -7 3 -7 19 0 19 7 26 6 26 -3 0 -8 3 -8 9 2 7 11 9 11 14 0 5
-12 7 -12 15 0 8 11 10 11 15 0 4 -11 6 -11 6 -1 1 10 6 10 21 2 15 -8 20 -8
20 2 1 8 7 5 15 -6 15 -20 15 -20 15 0 0 16 2 17 10 4 7 -11 10 -11 10 -2 0 7
5 10 11 7 15 -10 148 -10 156 0 5 4 -3 4 -17 1 l-25 -7 24 14 c20 12 21 15 7
20 -9 4 -16 13 -16 22 0 8 -3 14 -7 14 -21 -3 -56 2 -50 7 3 4 -1 13 -9 22
-13 12 -13 16 -2 23 7 5 9 9 4 9 -5 0 -2 8 5 17 9 11 10 14 2 9 -9 -5 -11 -2
-7 8 3 9 11 13 17 9 5 -3 7 -1 4 5 -9 14 3 43 14 36 5 -3 6 2 3 10 -4 9 -1 16
6 16 10 0 10 3 1 14 -9 11 -9 16 0 22 8 5 9 3 4 -6 -6 -9 -4 -11 4 -5 7 4 10
16 8 27 -3 11 0 21 9 25 8 3 11 9 8 14 -3 5 0 9 6 9 7 0 10 6 7 14 -3 8 1 17
9 20 8 3 14 12 14 20 0 8 5 18 12 22 7 4 8 3 4 -4 -9 -15 26 -16 41 -1 8 8 13
7 18 -2 6 -8 4 -10 -5 -4 -9 5 -11 4 -6 -4 6 -8 12 -9 20 -2 9 7 17 7 26 -2
10 -9 11 -9 6 1 -6 9 0 11 20 8 15 -3 33 -1 40 5 8 7 15 6 20 -2 5 -8 3 -9 -6
-4 -9 6 -11 4 -5 -4 5 -9 10 -10 18 -2 7 7 15 7 26 -2 12 -10 13 -9 7 1 -6 9
-1 11 20 8 15 -3 33 -1 40 5 8 7 15 6 20 -2 5 -8 3 -9 -6 -4 -9 6 -11 4 -5 -4
5 -9 10 -10 18 -2 8 8 17 6 31 -7 20 -16 20 -16 7 1 -15 20 -12 21 23 7 17 -6
27 -6 32 2 4 6 3 8 -4 4 -6 -3 -13 -2 -16 3 -4 5 2 8 11 6 10 -2 22 -4 26 -4
5 -1 5 -6 1 -13 -5 -7 -3 -8 7 -2 8 4 19 9 26 10 13 2 66 -113 57 -127 -3 -5
-1 -9 4 -9 14 0 52 -98 52 -135 0 -36 -24 -63 -61 -68 -13 -2 -25 -11 -27 -20
-3 -16 9 -22 33 -17 5 1 2 -7 -7 -17 -16 -17 -15 -18 23 -18 21 0 39 5 39 10
0 6 5 3 10 -5 7 -11 10 -11 10 -2 0 10 5 10 20 2 15 -8 20 -8 20 2 1 8 7 5 15
-6 15 -20 15 -20 15 0 0 16 2 17 10 4 7 -11 10 -11 10 -2 0 8 5 10 14 5 8 -4
55 -6 105 -3 101 6 114 4 105 -13 -3 -7 2 -3 10 7 12 15 16 16 16 5 0 -11 2
-11 9 -1 6 11 11 10 25 -3 15 -15 16 -15 16 2 0 15 2 16 10 3 6 -9 10 -11 10
-3 0 7 7 10 15 7 27 -11 135 -9 135 1 0 6 5 3 10 -5 6 -9 10 -10 10 -3 0 8 9
9 30 3 19 -5 30 -5 30 1 0 6 5 7 10 4 6 -4 7 -12 3 -18 -4 -7 0 -6 10 2 9 7
26 11 37 8 11 -3 20 0 20 6 0 8 3 7 9 -1 6 -11 10 -10 15 4 6 17 -18 65 -32
63 -29 -5 -62 4 -82 21 -15 13 -18 20 -9 20 11 0 11 2 -1 10 -17 11 -20 32 -5
42 6 5 4 8 -5 8 -13 0 -13 1 0 10 13 9 13 10 0 10 -13 0 -13 1 0 10 12 8 12
10 1 10 -11 0 -11 3 -1 15 10 12 10 15 -1 15 -11 0 -11 2 1 10 11 7 11 10 2
10 -8 0 -10 5 -6 12 12 19 12 48 0 48 -6 0 -4 5 4 10 12 8 12 10 1 10 -11 0
-11 3 -1 15 9 10 9 15 1 15 -13 0 -10 22 4 32 6 5 5 8 -3 8 -8 0 -10 5 -5 13
12 19 12 38 1 31 -6 -4 -5 2 1 15 9 16 9 21 0 21 -8 0 -7 5 2 17 12 15 12 16
-1 8 -13 -8 -13 -7 -1 8 11 14 11 17 0 17 -11 0 -11 2 1 10 13 9 13 10 0 10
-13 0 -13 1 0 10 12 8 12 10 1 10 -11 0 -11 3 -1 15 9 10 9 15 1 15 -13 0 -10
22 4 32 6 5 4 8 -5 8 -13 0 -13 1 0 10 13 9 13 10 0 10 -13 0 -13 1 0 10 12 8
12 10 1 10 -11 0 -11 3 -1 15 10 12 10 15 -1 15 -11 0 -11 2 1 10 11 7 11 10
2 10 -8 0 -10 5 -6 12 12 19 12 48 0 48 -6 0 -4 5 4 10 12 8 12 10 1 10 -11 0
-11 3 -1 15 9 10 9 15 1 15 -13 0 -10 22 4 32 6 5 5 8 -3 8 -8 0 -10 5 -5 13
12 19 12 38 1 31 -6 -4 -5 2 1 15 9 16 9 21 0 21 -8 0 -8 4 -1 13 16 19 16 21
4 44 -9 16 -9 23 1 26 9 4 8 6 -2 6 -11 1 -11 4 -1 16 10 12 10 15 0 15 -10 0
-10 3 0 15 9 11 9 15 1 15 -7 0 -10 4 -7 9 3 5 28 8 56 8 28 -1 50 2 50 8 0 7
3 7 8 0 10 -14 42 -15 42 -2 0 8 4 7 12 -1 7 -7 17 -8 30 -1 14 8 18 6 18 -8
0 -10 4 -14 8 -8 9 13 46 19 38 6 -4 -6 5 -8 21 -6 16 1 37 -5 47 -14 11 -9
16 -10 12 -3 -7 11 -4 11 12 1 12 -7 19 -16 16 -20 -2 -4 4 -6 14 -5 9 0 16
-5 15 -11 -2 -7 3 -12 9 -10 17 3 46 -58 53 -115 15 -113 -35 -222 -123 -265
-46 -22 -70 -27 -173 -31 -66 -3 -122 -9 -125 -13 -3 -5 4 -21 16 -36 17 -21
29 -27 53 -25 25 2 28 0 17 -7 -12 -9 -10 -11 10 -11 31 -1 60 -22 60 -44 0
-10 4 -15 9 -12 5 3 25 -14 46 -39 20 -25 34 -45 31 -45 -3 0 8 -15 25 -32 16
-18 29 -38 29 -45 0 -7 5 -13 10 -13 6 0 10 -4 10 -10 0 -9 19 -36 48 -66 7
-8 10 -19 6 -25 -4 -7 -3 -9 3 -6 6 4 17 -1 24 -10 12 -14 12 -16 -1 -8 -8 4
0 -7 17 -25 18 -18 30 -36 27 -41 -3 -5 3 -6 12 -2 12 4 15 3 10 -5 -4 -7 -3
-12 1 -12 5 0 18 -7 29 -16 10 -8 13 -12 5 -8 -9 5 -12 3 -7 -5 4 -6 12 -9 17
-6 5 4 19 -4 32 -17 13 -13 34 -25 47 -26 13 -2 30 -10 38 -19 11 -10 17 -11
22 -3 5 8 9 8 13 -2 3 -9 17 -13 36 -12 17 1 38 -5 46 -13 13 -13 15 -12 15 4
0 15 2 16 10 3 6 -9 10 -11 10 -3 0 7 6 10 13 8 6 -3 28 -6 49 -8 38 -4 37 -4
26 43 -4 18 -24 28 -56 29 -75 3 -162 84 -340 316 -42 55 -84 109 -94 119 -10
11 -18 23 -18 28 0 4 -7 8 -15 8 -18 0 -20 16 -2 18 6 0 21 3 32 6 11 2 24 5
28 5 5 1 5 6 1 13 -4 6 -3 8 4 4 6 -3 13 -2 17 4 4 6 11 8 16 5 5 -4 12 1 15
9 3 9 11 13 17 9 7 -4 8 0 3 12 -6 16 -4 16 11 4 15 -12 16 -12 10 4 -4 11 -3
16 3 12 6 -3 10 -1 10 5 0 6 5 8 10 5 6 -3 10 3 10 14 0 12 5 20 12 18 6 -1
14 9 18 23 4 14 12 24 17 23 6 -1 9 7 5 19 -3 14 -1 19 6 14 7 -4 10 1 7 14
-2 11 1 22 6 25 5 4 7 11 3 16 -3 5 0 17 8 26 11 14 11 16 -2 8 -13 -7 -13 -6
-2 7 9 11 10 18 2 23 -7 4 -7 12 0 24 5 10 6 21 3 25 -7 6 -13 29 -15 54 -1 6
-5 12 -10 12 -4 0 -8 5 -8 11 0 5 6 7 13 4 6 -4 4 0 -6 8 -14 11 -15 16 -5 20
8 4 7 6 -4 6 -10 1 -18 6 -18 11 0 6 0 12 0 15 0 14 -101 100 -143 122 -86 43
-173 53 -478 53 -267 0 -279 -1 -279 -19 0 -10 7 -22 16 -25 8 -3 13 -10 10
-15 -3 -5 3 -11 14 -14 11 -3 20 0 20 5 0 6 10 3 22 -8 12 -10 18 -13 14 -7
-5 9 -2 11 8 7 9 -3 16 -13 16 -21 0 -8 5 -11 10 -8 12 8 12 45 11 -527 0
-329 -3 -483 -11 -497 -18 -35 -56 -53 -114 -53 -54 -1 -122 26 -117 46 2 5
-4 13 -13 18 -9 5 -14 13 -11 18 3 4 -2 11 -11 14 -8 3 -12 10 -9 16 3 5 2 10
-4 10 -6 0 -8 7 -5 15 4 8 1 15 -6 15 -7 0 -10 7 -6 15 3 8 1 15 -4 15 -12 0
-41 60 -34 71 3 5 0 9 -5 9 -6 0 -11 8 -11 19 0 10 -7 24 -15 31 -9 7 -14 19
-11 27 3 7 1 13 -4 13 -6 0 -10 9 -10 19 0 11 -5 21 -11 23 -6 2 -12 15 -12
30 -1 14 -5 25 -8 23 -6 -4 -29 53 -28 69 0 5 -3 12 -8 15 -15 11 -38 45 -26
37 9 -5 11 -2 7 8 -3 9 -10 16 -16 16 -5 0 -6 5 -3 10 3 6 1 10 -4 10 -6 0
-11 6 -11 14 0 7 -7 26 -14 42 -8 15 -13 31 -10 36 3 4 0 8 -5 8 -6 0 -11 7
-11 15 0 8 -4 15 -8 15 -4 0 -9 10 -9 22 -1 13 -7 24 -13 26 -5 2 -8 8 -4 13
3 5 0 9 -6 9 -6 0 -8 5 -5 10 3 6 2 10 -3 10 -6 0 -13 7 -16 16 -3 8 -2 12 4
9 15 -9 12 2 -6 20 -9 8 -17 26 -18 39 0 13 -4 22 -8 20 -6 -4 -23 37 -19 45
2 2 -2 7 -8 11 -6 3 -13 15 -15 26 -2 10 -18 46 -35 78 -17 33 -29 62 -27 64
6 5 -36 46 -50 48 -7 1 -15 -10 -19 -25z m35 -281 c0 -19 2 -25 10 -35 5 -5
22 -44 38 -85 17 -41 55 -135 86 -207 l55 -133 -201 0 c-187 0 -200 1 -187 17
12 14 12 16 -1 9 -9 -5 -8 -2 2 7 12 9 14 17 7 24 -8 8 -7 13 2 18 8 6 10 4 4
-5 -5 -9 -4 -11 3 -6 7 4 12 16 12 27 0 10 5 19 11 19 5 0 7 5 4 10 -3 6 0 10
7 10 11 0 10 2 0 9 -11 6 -10 10 4 15 16 6 16 8 4 16 -13 8 -12 10 3 10 10 0
15 5 12 11 -4 6 1 17 11 25 11 9 13 13 7 9 -7 -3 -13 -1 -13 5 0 6 7 13 15 16
12 5 13 9 4 21 -8 9 -8 13 -2 11 6 -2 11 1 11 6 0 5 6 13 14 17 10 7 10 9 -2
9 -9 0 -11 3 -5 8 17 12 41 47 28 38 -7 -4 -13 -3 -13 2 0 6 7 12 15 16 8 3
14 11 13 18 -2 7 2 12 9 11 7 -2 10 4 7 12 -4 9 -1 21 5 29 6 7 8 16 4 19 -3
4 -1 7 5 7 7 0 12 -4 12 -10z"/>
<path d="M13600 7455 c0 -90 3 -120 15 -132 8 -8 12 -20 8 -26 -5 -8 -2 -8 9
0 8 7 18 10 22 6 4 -4 5 5 2 20 -3 16 1 33 9 41 11 10 11 16 2 26 -9 10 -9 11
1 6 6 -4 12 -2 12 4 0 6 5 8 10 5 8 -5 13 5 12 25 -1 10 63 5 70 -5 5 -6 8 -4
8 5 0 13 1 13 10 0 9 -13 10 -13 10 0 0 13 1 13 10 0 7 -11 10 -11 10 -2 0 10
5 10 22 1 18 -10 20 -9 14 7 -5 17 -5 18 7 2 9 -11 18 -14 27 -8 9 6 17 4 22
-3 6 -9 8 -8 8 3 0 13 1 13 10 0 9 -13 10 -13 10 0 0 13 1 13 10 0 6 -10 10
-11 10 -2 0 6 5 12 11 12 5 0 8 -3 6 -7 -3 -5 6 -8 19 -8 13 0 24 3 24 6 0 3
14 4 30 1 19 -3 30 -10 31 -21 0 -9 1 -233 1 -498 1 -440 -1 -484 -16 -508
-20 -30 -69 -54 -103 -50 -17 2 -23 -3 -23 -16 0 -17 10 -23 31 -21 4 1 5 -9
2 -21 -4 -18 -3 -19 6 -7 10 13 11 13 11 0 0 -12 2 -13 9 -1 7 11 9 11 14 0 4
-9 6 -10 6 -2 1 7 7 10 14 8 29 -11 77 -12 77 -1 0 6 5 4 10 -4 5 -8 10 -10
10 -3 0 13 41 5 52 -11 5 -7 8 -3 8 8 0 15 3 16 15 6 12 -10 15 -10 15 1 0 9
3 10 8 4 8 -12 42 -16 42 -5 0 4 18 4 40 0 22 -4 40 -4 40 1 0 5 12 4 27 -2
27 -10 27 -10 8 11 -19 21 -19 21 1 15 17 -6 18 -6 1 5 -9 6 -15 15 -12 21 4
5 3 9 -2 10 -76 8 -123 33 -115 62 3 14 1 18 -6 13 -9 -5 -9 -1 -3 17 6 16 6
28 -2 36 -6 6 -7 11 -1 11 12 0 12 133 -1 142 -6 5 -5 8 2 8 9 0 10 7 3 25 -8
20 -6 25 7 25 14 0 14 2 -3 15 -14 11 -15 14 -4 15 13 0 13 1 0 10 -12 8 -12
10 -1 10 11 0 11 3 1 15 -7 8 -8 15 -3 15 10 0 8 54 -2 71 -4 5 2 9 11 9 16 0
16 1 -2 15 -14 11 -15 14 -4 15 13 0 13 1 0 10 -11 7 -11 10 -2 10 9 0 10 5 3
19 -8 15 -7 20 6 25 14 6 14 8 -2 26 -10 11 -14 20 -9 20 12 0 11 113 -1 122
-6 5 -6 8 1 8 8 0 9 11 4 35 -7 29 -5 35 9 35 10 0 12 3 5 8 -6 4 -13 17 -16
30 -5 16 -2 22 10 22 13 0 12 3 -4 15 -14 11 -15 14 -4 15 13 0 13 1 0 10 -12
8 -12 10 -1 10 11 0 11 3 1 15 -7 8 -8 15 -3 15 10 0 8 60 -3 90 -3 8 -2 11 2
8 4 -4 15 -3 25 3 14 7 19 6 19 -3 0 -10 2 -10 8 -1 4 7 13 9 20 4 8 -4 31 -5
53 -1 26 5 39 4 39 -4 0 -6 5 -4 10 4 9 13 10 13 10 0 0 -12 2 -13 9 -1 7 11
9 11 14 0 4 -11 6 -11 6 -1 1 10 6 10 23 1 18 -10 20 -9 14 7 -5 17 -5 17 7 2
9 -12 18 -14 30 -7 9 6 17 6 17 1 0 -5 7 -9 15 -9 8 0 12 4 9 9 -3 4 0 8 5 8
6 0 11 -6 11 -12 0 -9 4 -8 10 2 6 10 10 11 10 3 0 -7 5 -13 11 -13 5 0 7 6 4
13 -4 6 0 4 8 -5 8 -10 17 -15 20 -11 7 6 28 -42 25 -55 -5 -17 15 -52 28 -52
8 0 12 -4 9 -10 -3 -5 0 -7 8 -4 7 2 14 11 14 19 0 8 -5 11 -11 8 -6 -3 -6 -1
1 7 6 7 9 19 6 28 -5 11 -3 13 7 7 10 -6 11 -4 4 6 -12 19 -11 41 1 58 7 11 7
13 -2 7 -14 -8 -18 6 -6 17 3 4 7 18 8 32 0 17 -4 24 -13 20 -8 -3 -10 0 -5 8
12 20 12 37 0 34 -7 -1 -11 4 -10 11 4 15 4 15 -90 -3 -62 -12 -163 -15 -465
-15 -347 0 -442 5 -534 26 l-28 6 0 -117z"/>
<path d="M1910 7520 c0 -11 5 -20 10 -20 6 0 10 -8 10 -17 0 -15 2 -16 10 -3
8 13 10 13 10 -2 0 -11 5 -15 15 -12 8 4 23 0 32 -7 14 -12 16 -12 8 1 -6 12
-5 13 5 3 8 -7 15 -21 17 -30 2 -10 5 -187 7 -393 1 -206 6 -391 11 -410 9
-42 58 -152 77 -175 7 -10 24 -29 38 -43 13 -15 24 -31 22 -35 -1 -5 2 -6 7
-3 5 4 12 2 16 -4 4 -6 11 -8 16 -5 5 4 9 -1 9 -9 0 -9 6 -15 13 -13 6 1 11
-3 10 -10 -2 -7 6 -10 17 -8 13 2 20 -2 20 -11 0 -8 5 -14 11 -14 5 0 7 6 4
13 -4 6 0 4 8 -5 10 -13 16 -15 25 -6 9 9 12 8 12 -4 0 -11 6 -15 20 -11 11 3
20 1 20 -5 0 -5 13 -9 29 -8 17 1 27 -2 24 -7 -3 -5 4 -6 17 -2 17 6 21 4 14
-6 -6 -12 -5 -12 9 0 13 10 17 10 17 1 0 -10 3 -10 15 0 12 10 15 10 15 0 0
-10 4 -10 16 1 13 10 17 10 25 -2 8 -12 10 -12 19 1 6 9 13 11 18 5 9 -13 35
-19 28 -6 -3 5 3 11 15 14 15 4 18 3 9 -7 -8 -10 -5 -12 15 -8 14 2 25 8 25
12 0 4 14 7 30 6 22 -2 29 2 26 11 -3 7 -1 13 4 13 6 0 10 -5 10 -11 0 -5 5
-7 10 -4 6 4 7 11 4 17 -4 6 2 5 15 -1 17 -9 21 -9 19 1 -2 8 4 12 15 10 9 -2
20 4 23 13 5 12 9 13 20 4 12 -10 13 -9 8 5 -3 9 -2 16 4 16 5 0 24 13 42 30
18 16 36 27 41 24 5 -3 6 2 3 10 -3 9 4 21 20 31 14 10 24 21 21 25 -9 14 6
40 19 33 6 -3 8 -3 4 2 -4 4 -2 15 5 23 10 13 9 14 -3 7 -13 -8 -13 -7 0 10 8
10 16 26 16 37 1 10 2 27 3 39 0 11 5 18 10 14 5 -3 13 0 17 6 4 7 3 9 -3 6
-6 -4 -13 2 -16 13 -3 11 -1 20 4 20 6 0 5 8 -1 20 -8 15 -8 20 1 20 9 0 9 3
0 14 -9 11 -8 15 4 20 13 5 13 9 3 26 -11 17 -11 22 0 29 11 6 10 10 -4 15
-16 6 -16 8 -4 16 13 8 13 10 1 10 -11 0 -10 4 5 16 10 8 14 13 7 10 -6 -4
-14 -2 -18 4 -3 5 -2 10 2 10 11 0 11 53 0 61 -5 3 -1 13 8 23 9 9 12 16 6 16
-8 0 -11 30 -9 88 1 49 -2 94 -6 100 -4 7 -2 12 6 12 9 0 9 3 -2 10 -8 5 -10
10 -4 10 6 0 10 11 8 25 -2 14 -6 36 -8 50 -2 14 1 28 6 31 5 3 4 12 -3 20 -6
8 -7 14 -2 14 5 0 7 16 5 36 -3 27 -1 35 7 29 8 -5 11 -1 9 11 -2 13 3 19 14
18 10 -1 17 1 16 5 -2 19 4 22 19 10 9 -8 14 -9 10 -3 -4 7 0 14 8 18 8 3 15
0 16 -7 0 -7 4 -2 9 10 5 11 6 30 3 42 -5 20 -11 21 -188 21 -161 0 -183 -2
-181 -16 1 -8 8 -19 15 -24 8 -4 10 -13 6 -20 -5 -9 -4 -11 3 -6 7 4 12 0 13
-11 0 -16 1 -16 8 2 8 19 8 19 19 0 11 -20 11 -20 12 0 1 11 4 14 7 7 2 -6 9
-10 13 -7 27 17 31 -47 28 -433 l-3 -397 -29 -62 c-32 -70 -104 -145 -164
-170 -148 -64 -337 -47 -429 37 -18 16 -33 34 -33 40 0 5 -3 10 -7 10 -5 0
-16 14 -25 31 -10 17 -12 27 -5 23 6 -4 4 2 -6 14 -11 11 -16 26 -12 31 3 6 2
11 -4 11 -5 0 -8 11 -6 25 1 14 -2 25 -7 25 -5 0 -7 4 -4 8 2 4 1 14 -4 22 -5
9 -4 20 2 28 9 10 8 16 -3 23 -12 7 -12 9 1 9 13 0 13 2 1 9 -12 8 -12 12 -2
25 8 9 9 16 4 16 -12 0 -11 73 2 83 6 4 5 10 -4 16 -11 7 -11 9 0 14 12 5 12
6 0 6 -11 1 -11 4 -1 16 9 11 9 15 1 15 -9 0 -9 5 -1 20 6 12 7 20 1 20 -10 0
-9 19 2 38 5 6 4 12 0 12 -12 0 -10 73 2 83 6 4 5 10 -4 16 -11 7 -11 9 0 14
12 5 12 6 0 6 -11 1 -11 4 -1 16 9 11 9 15 1 15 -9 0 -9 5 -1 20 6 12 7 20 1
20 -10 0 -9 19 2 38 5 6 4 12 -1 12 -10 0 -9 30 2 48 4 7 2 12 -6 12 -10 0
-10 2 -1 8 7 5 9 13 3 21 -4 8 -4 25 1 39 5 13 6 28 3 34 -4 7 -2 8 4 4 6 -3
15 1 20 10 5 9 13 17 18 17 5 1 8 6 6 11 -2 5 4 4 12 -4 11 -9 16 -9 16 -1 0
9 5 9 20 1 12 -6 20 -7 20 -1 0 5 3 17 7 27 4 11 3 15 -4 11 -6 -4 -13 2 -16
13 -5 19 -14 20 -201 20 -189 0 -196 -1 -196 -20z"/>
<path d="M3270 7520 c0 -11 5 -20 11 -20 6 0 9 -6 6 -14 -4 -11 4 -14 33 -12
21 0 36 -2 34 -5 -2 -3 9 -11 24 -18 25 -11 26 -10 8 4 -11 8 -15 15 -10 15 6
0 20 -11 32 -25 22 -25 22 -26 22 -524 l0 -499 -35 -31 c-20 -17 -45 -32 -55
-32 -11 -1 -30 -2 -42 -3 -16 -1 -23 -7 -23 -21 0 -12 6 -19 14 -17 8 2 11 -3
8 -12 -3 -8 2 -16 14 -19 10 -3 19 -1 19 5 0 5 5 6 11 2 18 -11 109 -10 109 1
0 6 5 3 10 -5 7 -11 10 -11 10 -2 0 10 5 10 20 2 15 -8 20 -8 20 2 1 8 7 5 15
-6 15 -20 15 -20 15 0 0 16 2 17 10 4 7 -11 10 -11 10 -2 0 7 5 10 11 7 5 -4
35 -8 65 -8 42 -2 54 1 54 13 0 9 3 11 8 4 10 -15 40 -25 46 -15 11 17 -11 66
-30 67 -70 2 -138 50 -113 80 9 11 8 14 -1 14 -9 0 -10 3 -1 13 8 10 7 17 -1
25 -9 9 -9 12 3 12 12 0 12 2 0 9 -8 6 -10 14 -5 22 11 19 12 109 1 116 -5 3
-3 9 4 14 11 7 11 9 -1 9 -13 0 -13 1 0 10 12 8 12 10 1 10 -11 0 -9 5 5 21
11 13 13 19 5 17 -15 -3 -24 29 -13 46 10 16 11 37 2 31 -10 -6 -8 15 3 33 5
7 3 12 -4 12 -9 0 -9 3 0 14 9 11 9 16 0 21 -8 6 -7 10 2 16 11 7 11 9 -1 9
-13 0 -13 1 0 10 12 8 12 10 1 10 -10 0 -11 3 -2 14 9 11 9 16 0 21 -8 6 -7
10 2 16 11 7 11 9 1 9 -8 0 -10 5 -5 13 12 19 12 36 1 43 -6 4 -5 10 3 15 11
7 11 9 -1 9 -13 0 -13 1 0 10 12 8 12 10 1 10 -11 0 -9 5 5 21 13 14 14 20 4
17 -14 -3 -21 19 -11 37 10 18 9 35 -1 41 -6 4 -5 10 3 15 11 7 11 9 -1 9 -13
0 -13 1 0 10 12 8 12 10 1 10 -11 0 -9 5 5 21 11 13 13 19 5 17 -16 -4 -24 29
-10 38 6 3 5 11 -2 20 -9 11 -8 14 2 14 11 0 11 2 -1 10 -11 7 -11 10 -2 10 7
0 10 5 7 10 -3 6 -2 10 3 10 6 0 9 8 8 18 -1 11 5 16 17 14 10 -2 17 3 17 12
0 8 5 18 12 22 7 4 8 3 4 -4 -5 -8 -2 -10 8 -6 9 3 13 11 9 18 -4 6 1 5 10 -3
13 -10 17 -10 17 -1 0 10 3 10 15 0 10 -9 15 -9 15 -1 0 6 8 11 18 11 16 1 16
1 0 11 -10 5 -18 19 -18 29 0 19 -9 20 -235 20 -228 0 -235 -1 -235 -20z"/>
<path d="M3195 7489 c-4 -6 -5 -12 -2 -15 2 -3 7 2 10 11 7 17 1 20 -8 4z"/>
<path d="M2605 6560 c-3 -5 -2 -10 4 -10 5 0 13 5 16 10 3 6 2 10 -4 10 -5 0
-13 -4 -16 -10z"/>
<path d="M3750 6321 c0 -6 4 -13 10 -16 6 -3 7 1 4 9 -7 18 -14 21 -14 7z"/>
<path d="M4832 5987 c-8 -9 -66 -12 -227 -11 -198 0 -243 -4 -215 -21 14 -8
14 -445 0 -445 -5 0 -10 -4 -10 -10 0 -5 9 -10 20 -10 11 0 20 -5 20 -11 0 -5
-4 -8 -8 -5 -5 3 -9 -1 -9 -8 0 -14 25 -15 46 -2 7 5 16 4 20 -1 6 -9 42 -10
58 0 5 3 15 2 23 -3 9 -5 20 -4 29 3 12 10 13 9 6 -3 -8 -13 -7 -13 8 -1 13
11 17 11 17 1 0 -8 3 -10 7 -7 3 4 13 1 21 -6 11 -8 14 -8 9 0 -4 6 -3 14 3
18 5 3 10 1 10 -6 0 -8 4 -8 15 1 9 7 15 8 15 2 0 -10 61 -9 78 2 4 2 14 1 22
-4 8 -5 21 -5 31 1 13 6 20 5 26 -5 13 -23 37 -23 38 -1 0 11 -3 25 -8 32 -4
6 -3 14 3 18 8 5 7 11 -2 23 -8 9 -8 13 -1 9 7 -5 9 0 6 14 -4 16 -8 17 -14 7
-6 -9 -9 -4 -9 15 0 15 -4 27 -10 27 -5 0 -10 -4 -10 -10 0 -6 -59 -10 -156
-10 -135 0 -155 2 -150 15 3 8 0 15 -7 15 -8 0 -8 3 2 9 11 7 11 9 0 14 -11 4
-11 6 -1 6 7 1 10 6 6 12 -8 13 16 30 29 22 17 -10 87 -8 87 2 0 6 5 3 10 -5
6 -10 10 -11 10 -3 0 9 7 10 24 3 13 -5 27 -6 31 -2 4 4 14 -2 22 -13 13 -16
15 -17 10 -2 -4 11 -1 17 8 17 20 0 19 9 -2 33 -10 11 -12 17 -5 13 9 -5 11 2
10 28 -2 19 -7 34 -13 33 -5 -1 -10 4 -11 11 -3 26 -5 27 -14 12 -7 -12 -31
-15 -105 -16 l-96 -1 3 38 c1 26 5 35 13 29 6 -5 17 -5 24 0 8 4 20 6 28 3 7
-3 21 1 30 8 9 8 14 9 10 3 -5 -8 7 -12 36 -11 24 0 48 -3 55 -7 6 -3 15 2 21
11 6 10 11 13 11 7 0 -6 10 -10 23 -10 12 1 28 -3 36 -8 12 -9 13 -8 7 3 -6 9
-5 12 5 9 8 -3 13 -10 12 -16 -1 -5 5 -9 14 -8 12 2 17 12 17 32 0 16 4 32 10
36 7 5 6 8 -3 8 -11 0 -11 3 0 17 10 12 10 15 1 9 -8 -5 -14 2 -18 24 -8 36
-18 45 -32 27z"/>
<path d="M7128 5988 c-3 -9 -63 -12 -224 -13 -245 -2 -244 -2 -225 -14 19 -12
22 -441 4 -448 -20 -8 -15 -23 7 -23 11 0 19 -3 19 -7 -4 -27 1 -35 16 -23 12
10 15 10 15 0 0 -10 3 -10 15 0 9 7 15 8 15 2 0 -10 61 -9 78 2 4 2 14 1 22
-4 8 -5 21 -5 30 0 9 5 22 5 30 0 7 -4 24 -4 37 1 18 7 23 5 23 -8 0 -14 2
-14 15 3 10 13 14 15 15 5 0 -8 3 -11 7 -8 3 4 13 1 21 -6 10 -8 13 -8 9 -1
-4 7 0 14 8 18 8 3 15 1 15 -5 0 -6 6 -7 12 -3 16 10 48 13 43 4 -2 -3 5 -11
16 -18 12 -8 19 -9 19 -1 0 5 6 7 13 3 7 -5 7 -1 -2 10 -13 15 -13 19 0 27 8
5 9 9 4 9 -6 0 -12 14 -13 31 -2 21 1 28 9 23 8 -4 9 -3 5 5 -4 6 -11 9 -16 6
-4 -3 -11 2 -14 11 -4 10 -2 13 7 8 8 -5 7 -2 -2 9 -10 12 -17 14 -26 7 -8 -7
-69 -9 -161 -8 l-149 3 3 24 c2 13 -1 21 -6 17 -6 -4 -8 2 -5 14 3 11 10 23
16 27 6 4 8 0 4 -11 -4 -10 -3 -15 3 -11 6 3 10 12 10 19 0 18 33 15 42 -4 5
-12 7 -12 7 3 1 15 5 16 21 7 15 -8 20 -8 20 2 0 8 3 9 8 3 9 -13 42 -16 42
-4 0 5 16 2 36 -6 33 -13 35 -13 24 0 -11 13 -10 14 2 10 9 -4 15 0 15 10 0 8
-5 15 -10 15 -5 0 -4 7 3 15 10 12 10 15 0 15 -9 0 -9 4 -2 13 15 17 -23 63
-41 49 -6 -5 -50 -9 -97 -7 -101 2 -100 2 -100 16 0 5 6 7 13 3 7 -5 7 -2 -2
10 -13 15 -12 20 9 39 17 16 21 18 17 5 -5 -13 -1 -15 21 -9 15 5 33 6 40 4 7
-3 19 0 26 7 11 8 16 8 22 -1 5 -8 3 -9 -6 -4 -9 6 -11 4 -6 -4 6 -9 12 -8 26
4 11 10 20 12 24 6 4 -6 23 -9 44 -8 20 2 45 -1 56 -6 13 -6 16 -6 12 2 -4 6
-3 11 3 11 5 0 15 -8 20 -17 10 -17 10 -17 11 0 0 10 7 20 15 23 12 5 13 10 4
20 -9 11 -8 14 2 14 8 0 6 6 -7 16 -10 8 -14 13 -7 9 8 -4 12 3 10 24 -1 16
-5 27 -9 24 -5 -2 -8 3 -8 11 0 19 -17 21 -22 4z"/>
<path d="M8257 5990 c-9 -28 -27 -123 -25 -124 2 -1 14 -10 27 -21 14 -11 21
-14 16 -6 -6 11 -4 13 9 8 10 -4 15 -3 11 3 -4 6 6 7 26 3 26 -5 31 -3 24 8
-5 8 2 5 15 -6 13 -11 20 -15 17 -9 -4 7 0 15 9 18 8 3 12 2 9 -4 -3 -6 -2
-10 3 -10 5 0 8 -74 8 -163 -1 -123 -4 -168 -15 -180 -12 -15 -11 -17 9 -17
17 0 21 -5 17 -19 -3 -15 1 -18 18 -17 13 0 21 4 18 9 -2 4 1 7 6 7 6 0 11 -6
11 -12 0 -10 3 -9 9 1 6 9 10 10 12 2 7 -20 52 3 54 27 1 12 -2 22 -7 22 -4 0
-8 5 -8 11 0 5 6 7 13 3 9 -6 9 -5 0 7 -6 8 -10 24 -9 34 2 11 -1 29 -7 40 -9
17 -8 18 4 8 11 -9 14 -7 14 12 0 13 -3 21 -8 18 -9 -6 -4 28 7 46 6 9 5 12
-2 7 -12 -7 -11 39 1 51 4 3 7 11 7 17 0 6 -4 5 -9 -3 -6 -9 -9 1 -9 28 -1 29
3 39 11 35 9 -5 9 -3 0 6 -10 11 -8 16 10 25 12 6 27 8 32 4 11 -8 39 -12 68
-10 12 1 16 6 11 14 -5 9 -4 9 6 0 7 -6 19 -9 26 -6 9 3 12 0 9 -9 -4 -9 0
-15 9 -15 8 0 12 6 8 15 -3 10 -1 13 6 8 7 -4 12 -2 12 3 0 6 -3 11 -7 11 -5
0 -8 25 -7 55 0 30 -3 52 -8 49 -4 -3 -8 2 -8 10 0 19 -17 21 -22 4 -7 -19
-406 -17 -418 2 -8 12 -10 12 -13 0z m10 -125 c0 -8 -4 -12 -9 -9 -5 3 -6 10
-3 15 9 13 12 11 12 -6z"/>
<path d="M9310 5929 c0 -44 4 -68 10 -64 6 3 10 0 10 -8 0 -17 34 -12 59 7 12
9 13 8 7 -3 -6 -9 -5 -12 5 -9 8 3 22 1 33 -4 12 -7 16 -7 12 0 -4 7 4 10 21
9 l28 -2 3 -169 c2 -152 1 -170 -15 -182 -17 -12 -16 -13 5 -14 12 0 22 -5 22
-11 0 -5 -4 -7 -10 -4 -6 3 -7 -1 -3 -10 4 -12 8 -13 13 -5 5 9 9 9 14 1 5 -8
13 -8 28 0 18 10 20 9 14 -6 -5 -15 -4 -16 9 -5 8 7 15 9 15 4 0 -4 5 -3 12 4
9 9 16 8 32 -6 17 -14 19 -14 8 0 -10 13 -10 17 0 21 10 4 10 6 1 6 -7 1 -13
6 -13 12 0 5 6 7 13 4 6 -4 5 -1 -3 7 -15 13 -22 58 -9 58 4 0 4 12 0 27 -4
16 -4 45 -1 65 5 24 3 39 -4 42 -7 3 -6 5 2 5 9 1 10 6 2 20 -7 14 -6 21 3 24
6 3 7 6 1 6 -6 1 -9 20 -7 48 4 48 18 77 34 67 20 -12 53 -13 68 -1 12 10 14
9 8 -7 -7 -18 -6 -18 18 -2 26 17 34 10 13 -14 -10 -11 -9 -11 6 0 21 17 26
17 36 0 5 -8 9 -4 13 10 4 17 2 20 -10 16 -14 -6 -14 -4 -2 10 19 23 19 54 0
55 -9 0 -11 3 -5 5 9 4 8 13 -3 34 -12 24 -17 27 -27 17 -17 -16 -438 -15
-444 2 -2 6 -8 11 -13 11 -5 0 -9 -32 -9 -71z"/>
<path d="M10364 5986 c-7 -8 -77 -11 -232 -10 -122 0 -222 -3 -222 -8 0 -4 5
-8 10 -8 16 0 13 -447 -2 -453 -10 -4 -10 -8 2 -16 8 -5 18 -7 22 -5 4 3 8 0
8 -5 0 -6 -5 -11 -12 -11 -12 0 -2 -15 10 -15 4 0 13 -4 21 -9 9 -6 12 -5 8 1
-4 6 0 13 8 17 8 3 15 0 15 -6 0 -6 6 -5 17 3 15 12 16 12 8 -1 -8 -13 -7 -13
8 -1 13 11 17 11 17 1 0 -8 3 -10 7 -7 3 4 13 1 21 -6 11 -8 14 -8 9 0 -4 6
-3 14 3 18 5 3 10 1 10 -6 0 -8 4 -8 15 1 9 7 15 8 15 2 0 -10 67 -8 77 2 3 3
13 1 22 -4 10 -5 23 -5 31 0 8 5 21 5 31 0 9 -5 19 -6 23 -3 14 15 38 11 32
-4 -6 -13 -4 -14 10 -3 13 11 17 11 24 0 5 -7 16 -15 24 -16 9 -1 14 2 10 7
-3 5 -10 7 -15 4 -5 -4 -9 -2 -9 4 0 5 5 11 11 13 6 2 11 27 13 55 1 28 -2 49
-6 47 -5 -3 -5 -11 -2 -17 4 -7 3 -9 -1 -4 -5 4 -10 17 -12 29 -4 27 -14 37
-20 21 -4 -10 -44 -13 -158 -13 l-154 0 5 26 c3 15 1 23 -5 20 -5 -3 -8 2 -6
11 2 10 4 21 4 25 1 4 8 5 16 2 9 -4 15 0 15 7 0 11 3 11 10 -1 6 -10 10 -11
10 -3 0 9 7 10 25 3 18 -7 25 -6 25 3 0 8 4 7 10 -3 9 -13 10 -13 10 0 0 9 3
11 8 5 9 -13 42 -16 42 -3 0 5 10 2 22 -6 28 -20 49 -21 23 -2 -18 13 -17 14
10 9 17 -2 26 -1 20 4 -14 12 -17 33 -4 33 8 0 8 4 0 13 -8 10 -7 17 2 27 8 8
8 11 0 6 -6 -3 -15 7 -22 26 -10 28 -13 30 -24 15 -10 -13 -29 -16 -102 -14
-81 2 -90 4 -87 21 2 10 -1 15 -7 11 -7 -3 -8 0 -5 9 3 9 10 16 16 16 5 0 6 5
3 10 -9 14 8 12 24 -2 11 -10 13 -10 7 0 -5 7 -1 12 9 12 10 0 14 -5 9 -12 -4
-7 1 -5 11 4 14 13 21 14 37 5 15 -10 21 -9 28 3 5 8 10 10 10 4 0 -14 121
-15 139 0 12 9 13 8 6 -3 -6 -11 -3 -13 13 -9 16 4 19 2 15 -10 -9 -21 14 -6
27 18 9 16 8 19 -7 14 -17 -5 -17 -5 -1 9 13 10 15 16 6 25 -9 9 -9 12 0 12 6
0 9 7 6 15 -4 8 -11 12 -18 8 -6 -4 -4 2 4 12 9 11 10 16 3 11 -8 -4 -13 -2
-13 8 0 20 -13 26 -26 12z"/>
<path d="M11197 5978 c-139 -18 -237 -119 -237 -246 0 -65 25 -133 60 -168 16
-16 30 -35 30 -43 0 -8 3 -12 6 -8 4 3 13 -1 21 -9 8 -8 19 -12 24 -9 5 4 9
-1 9 -10 0 -9 4 -14 9 -10 5 3 12 1 16 -5 4 -6 11 -8 16 -5 5 4 9 1 9 -6 0 -8
4 -8 15 1 12 10 15 10 15 0 0 -8 3 -10 7 -7 3 4 13 1 21 -6 13 -10 15 -9 8 3
-4 8 0 6 8 -4 9 -11 16 -14 16 -8 0 7 7 12 16 12 9 0 13 5 9 13 -4 6 1 3 9 -7
9 -11 16 -15 16 -9 0 6 11 8 26 5 20 -4 25 -2 19 8 -6 9 -3 9 15 0 18 -10 21
-9 15 1 -6 9 -2 11 13 7 13 -4 23 0 27 10 5 14 7 14 15 2 8 -13 10 -13 10 -1
0 8 3 11 7 8 3 -4 12 1 20 11 8 9 12 12 9 5 -5 -8 0 -8 19 0 16 8 24 18 22 28
-3 9 0 24 6 34 6 12 6 16 -1 11 -6 -3 -13 -2 -17 4 -3 5 -1 10 5 10 8 0 8 6 0
20 -7 14 -7 20 0 20 5 0 10 5 10 11 0 5 -4 7 -10 4 -15 -9 -12 2 6 19 12 12
12 16 2 17 -7 0 -4 5 7 10 17 8 16 9 -8 5 -26 -3 -27 -3 -11 15 17 18 13 19
-110 19 -103 0 -128 3 -132 15 -10 26 -22 7 -22 -37 -1 -54 6 -80 20 -72 8 5
9 1 4 -11 -7 -18 -6 -18 14 0 20 19 21 19 15 -1 -6 -17 -5 -18 7 -2 9 11 19
14 28 8 9 -6 17 -4 22 3 6 9 8 8 8 -3 0 -11 2 -12 8 -3 10 16 36 -1 29 -19 -7
-21 -117 -42 -174 -34 -49 6 -121 46 -128 71 -3 8 -8 23 -11 33 -12 33 -11 53
5 62 14 8 14 10 1 10 -10 1 -9 4 5 10 14 6 15 9 5 10 -11 0 -8 7 10 21 14 11
19 17 11 13 -10 -5 -12 -3 -7 5 5 7 14 10 22 7 9 -3 11 0 7 11 -4 11 -2 14 5
9 7 -4 12 -2 12 4 0 6 4 9 9 5 6 -3 14 3 20 12 7 12 10 13 11 4 0 -10 3 -11
13 -2 18 14 88 12 80 -3 -4 -6 1 -5 10 3 9 7 17 10 17 5 0 -5 15 -10 33 -11
18 -1 39 -11 48 -22 9 -11 20 -17 24 -13 5 4 5 -2 1 -12 -5 -15 -4 -17 7 -8 8
7 18 8 23 4 4 -4 3 0 -4 10 -10 12 -10 18 -1 24 8 4 9 3 5 -4 -4 -7 -5 -12 -1
-12 3 0 10 12 15 26 6 14 14 23 18 20 5 -3 6 8 4 24 -2 17 -9 27 -14 24 -6 -4
-8 2 -3 15 5 18 2 21 -24 21 -16 0 -42 5 -57 10 -46 18 -136 26 -197 18z"/>
<path d="M3695 5972 c-2 -2 2 -11 10 -19 12 -12 15 -54 15 -220 0 -178 -2
-209 -17 -225 -15 -17 -15 -18 5 -18 15 0 22 -6 22 -20 0 -20 11 -26 24 -13
10 10 46 11 40 1 -8 -13 10 -10 25 5 8 6 11 8 8 2 -3 -5 5 -10 17 -10 16 0 22
6 22 22 0 12 -3 20 -7 17 -4 -2 -9 7 -11 21 -3 14 -1 25 5 25 5 0 4 7 -3 15
-9 11 -9 15 -1 15 9 0 9 5 1 20 -9 16 -8 20 7 20 15 0 15 2 -3 15 -12 9 -14
14 -6 15 7 0 11 4 8 9 -4 5 8 7 25 4 17 -2 29 -1 26 5 -4 5 0 9 8 9 8 0 11 -5
8 -10 -4 -6 4 -7 19 -4 17 5 29 1 41 -13 9 -11 14 -20 12 -20 -3 0 4 -10 15
-22 36 -39 60 -86 47 -92 -9 -5 -9 -7 1 -12 24 -11 42 -36 35 -47 -3 -7 3 -3
15 7 17 14 22 16 22 5 0 -12 2 -12 9 0 7 11 9 11 13 0 4 -12 7 -12 21 0 10 7
17 9 17 4 0 -5 7 -10 15 -10 8 0 12 4 9 9 -3 4 0 8 5 8 6 0 11 -5 11 -11 0 -8
5 -8 15 1 15 13 11 35 -6 25 -5 -4 -9 -2 -9 3 0 6 -15 25 -32 44 -18 18 -40
44 -48 57 -8 13 -20 29 -26 35 -15 16 -26 48 -14 41 6 -3 10 -1 10 4 0 6 5 11
11 11 5 0 7 -6 4 -12 -4 -7 1 -4 9 6 9 11 16 16 16 10 0 -5 9 6 20 24 11 17
25 32 30 32 6 0 8 5 5 10 -3 6 0 10 7 10 10 0 10 2 -1 9 -9 6 -10 11 -2 15 8
5 8 13 0 28 -8 15 -8 19 1 13 6 -4 0 16 -14 44 -19 36 -38 57 -72 77 -46 27
-49 27 -240 29 -107 1 -196 0 -199 -3z m235 -112 c0 -4 7 -7 15 -7 8 0 15 5
15 11 0 6 4 5 9 -3 6 -9 11 -10 15 -2 11 17 26 13 26 -6 0 -15 2 -16 10 -3 5
8 10 11 10 6 0 -5 7 -3 15 4 12 10 16 9 21 -4 3 -9 10 -14 14 -11 17 11 17
-36 0 -58 -17 -20 -28 -22 -129 -24 -67 -2 -111 1 -111 7 0 6 5 10 10 10 7 0
7 6 0 20 -8 15 -8 20 2 21 10 0 10 2 0 6 -22 9 13 38 47 39 17 1 31 -2 31 -6z"/>
<path d="M5170 5963 c0 -7 5 -13 10 -13 17 0 12 -14 -51 -147 -34 -70 -76
-160 -95 -200 -18 -39 -42 -80 -53 -90 -16 -15 -17 -20 -5 -31 8 -7 14 -8 14
-2 0 5 5 10 10 10 7 0 7 -6 1 -18 -8 -16 -6 -18 17 -17 15 1 34 5 41 10 10 6
12 4 6 -6 -8 -12 -6 -12 8 0 9 7 17 9 17 4 0 -5 7 -10 15 -10 8 0 15 5 14 11
-3 29 2 47 12 40 8 -4 8 0 0 15 -8 15 -9 21 -1 21 6 0 9 3 7 8 -3 4 1 13 9 20
8 7 14 10 14 6 0 -3 7 -1 15 6 12 10 15 10 15 0 0 -9 4 -9 13 -2 8 7 18 7 27
2 9 -6 17 -5 22 3 6 9 10 9 17 -2 7 -11 9 -11 14 0 5 12 6 12 6 0 1 -11 4 -11
18 0 15 12 16 12 8 -1 -8 -13 -7 -13 8 -1 11 8 17 9 17 3 0 -6 6 -9 13 -7 7 3
18 -9 26 -27 11 -23 11 -33 3 -36 -18 -6 -14 -22 5 -22 9 0 14 -3 10 -6 -9 -9
19 -34 43 -39 11 -2 18 0 15 4 -3 5 2 11 10 15 8 3 15 0 15 -6 0 -7 4 -7 13 1
10 8 17 7 25 -1 9 -9 12 -9 12 1 0 10 3 11 14 2 11 -9 16 -9 22 0 5 8 3 9 -6
4 -10 -6 -12 -4 -8 7 4 9 -4 26 -18 41 -13 14 -24 33 -24 42 0 8 -4 15 -10 15
-5 0 -10 9 -10 20 0 11 -5 20 -11 20 -5 0 -7 5 -4 10 3 6 1 10 -5 10 -6 0 -8
5 -5 10 3 6 1 10 -4 10 -6 0 -11 9 -11 20 0 11 -4 20 -10 20 -5 0 -10 7 -10
16 0 8 -7 23 -16 31 -13 13 -13 17 -2 24 10 7 9 9 -5 9 -10 0 -15 5 -12 10 3
6 1 10 -5 10 -6 0 -8 5 -5 10 3 6 1 10 -6 10 -7 0 -9 3 -6 7 4 3 -2 20 -13 38
-11 18 -17 35 -13 38 3 4 0 7 -7 7 -10 0 -11 3 -3 11 14 14 6 39 -10 35 -7 -1
-9 -1 -4 1 4 3 7 10 7 17 0 9 -22 13 -80 12 -59 0 -80 -4 -80 -13z m102 -281
c-24 -2 -51 -1 -60 3 -13 5 -12 8 6 21 12 8 19 21 15 29 -3 8 3 27 12 42 l17
26 28 -59 27 -59 -45 -3z"/>
<path d="M5670 5969 c0 -4 5 -11 10 -14 6 -4 10 -90 10 -226 0 -139 -4 -219
-10 -219 -5 0 -10 -4 -10 -10 0 -5 7 -10 16 -10 10 0 14 -5 10 -16 -3 -8 -2
-13 3 -10 5 3 12 -1 15 -10 5 -14 9 -14 22 -3 20 17 44 20 44 7 0 -6 6 -5 15
2 9 7 15 8 15 2 0 -10 61 -9 78 2 4 2 14 1 22 -4 9 -5 20 -4 29 3 12 10 13 9
6 -3 -8 -13 -7 -13 8 -1 9 7 17 9 17 4 0 -5 7 -10 15 -10 8 0 15 5 15 11 0 6
4 5 9 -3 6 -8 14 -10 22 -5 24 15 41 13 35 -3 -5 -12 -3 -13 6 -6 19 16 64 10
60 -7 -3 -10 3 -8 16 5 10 11 15 22 10 23 -5 2 -3 11 3 19 10 12 10 16 -2 24
-12 7 -12 9 0 9 11 0 9 5 -5 21 -10 12 -18 23 -16 25 1 2 2 12 2 21 0 13 -3
14 -12 5 -18 -18 -322 -17 -311 1 12 20 12 37 0 37 -7 0 -5 5 3 10 11 7 11 10
2 10 -10 0 -10 5 -2 20 8 14 8 20 0 20 -6 0 -8 5 -4 12 11 17 12 78 1 78 -4 0
-3 9 3 20 8 14 8 20 0 20 -6 0 -8 5 -3 13 12 19 12 37 1 37 -6 0 -4 7 3 17 8
9 9 14 4 11 -6 -4 -11 2 -11 12 0 14 4 16 12 9 8 -7 15 -6 20 2 4 7 3 9 -2 6
-6 -3 -16 3 -23 15 -7 11 -8 17 -2 13 6 -3 11 -1 11 4 0 14 1 13 -87 16 -40 1
-73 -2 -73 -6z"/>
<path d="M7497 5965 c-45 -16 -83 -48 -104 -89 -19 -36 -12 -109 12 -136 9
-10 14 -24 10 -30 -3 -6 -3 -10 2 -9 16 4 73 -23 73 -34 0 -8 3 -7 9 1 6 11
10 10 15 -3 5 -14 9 -15 21 -5 10 9 15 9 15 1 0 -6 5 -11 11 -11 5 0 7 4 4 10
-3 6 1 7 9 4 9 -3 13 -10 10 -15 -3 -5 6 -5 20 1 17 6 26 6 30 -3 3 -9 5 -9 5
1 1 10 6 10 21 2 15 -8 20 -8 20 2 0 10 2 10 9 -1 5 -8 14 -10 21 -6 9 6 11 4
5 -5 -6 -10 -4 -12 9 -7 33 13 12 -27 -24 -46 -28 -15 -50 -17 -106 -14 -70 5
-154 36 -154 57 0 23 -21 7 -36 -27 -33 -79 -34 -81 -18 -87 10 -4 12 -2 8 6
-4 7 -3 8 5 4 9 -6 9 -11 1 -21 -13 -15 5 -16 29 -1 10 7 12 6 6 -4 -6 -10 -3
-12 13 -8 15 4 19 2 15 -9 -3 -7 -2 -13 3 -12 23 4 55 -2 50 -9 -3 -5 1 -9 9
-9 8 0 12 4 10 8 -3 4 4 5 15 2 11 -3 17 -10 13 -17 -4 -6 1 -5 10 3 12 9 17
10 17 2 0 -7 5 -9 11 -6 17 11 89 11 89 0 0 -7 3 -7 8 0 4 6 13 10 20 11 29 2
33 5 27 14 -3 5 0 7 9 4 8 -3 25 2 38 10 14 9 28 13 33 9 4 -5 5 -2 1 5 -4 6
-2 12 4 12 7 0 10 7 7 15 -4 8 -1 17 5 21 7 5 8 2 3 -6 -5 -8 -3 -11 4 -9 7 3
12 8 11 13 -1 5 4 13 12 17 11 7 10 9 -1 9 -11 0 -10 4 5 16 10 8 12 12 4 8
-13 -7 -13 -5 -1 9 8 11 9 17 3 17 -6 0 -9 7 -6 15 4 8 1 15 -7 15 -7 0 -9 3
-6 7 4 3 1 13 -6 21 -10 13 -9 14 3 7 8 -4 -4 11 -27 33 -47 47 -107 68 -223
77 -41 3 -77 10 -78 15 -2 6 -7 8 -12 5 -10 -6 -8 15 3 33 6 9 13 9 28 2 10
-6 19 -7 18 -3 -3 21 2 24 18 12 11 -10 14 -10 9 -1 -4 7 -1 12 9 12 9 0 14
-4 10 -9 -6 -10 27 -7 45 4 6 3 10 2 10 -2 0 -5 12 -10 28 -11 15 -1 29 -7 30
-12 2 -6 12 -10 22 -10 10 0 26 -10 34 -21 14 -21 54 -21 42 0 -3 5 1 11 9 15
8 3 15 14 15 24 0 10 3 22 7 26 4 3 8 13 9 21 2 12 -2 13 -19 3 -20 -10 -21
-10 -9 5 14 17 8 42 -8 32 -5 -3 -42 6 -84 20 -85 28 -187 33 -249 10z"/>
<path d="M8924 5968 c-3 -5 2 -11 10 -14 17 -7 15 -12 -37 -124 -109 -235
-149 -311 -162 -316 -18 -7 -20 -24 -2 -24 7 0 22 -8 33 -17 20 -19 84 -27 84
-11 0 5 6 6 13 1 6 -4 18 -8 25 -9 10 -2 10 1 2 11 -7 8 -9 19 -6 24 4 5 1 13
-5 16 -7 5 -3 15 11 30 12 13 19 28 16 33 -8 13 28 22 45 11 8 -5 17 -3 21 4
6 9 10 8 17 -2 8 -12 12 -12 25 -2 13 11 16 11 16 0 0 -12 2 -12 9 -1 4 8 12
14 16 14 4 0 12 -6 16 -14 8 -11 11 -11 18 1 8 12 11 12 23 0 31 -31 37 -53
21 -71 -15 -17 -14 -18 5 -18 16 0 20 -4 15 -17 -4 -11 -3 -14 5 -9 8 4 12 0
13 -11 0 -16 1 -16 9 2 5 11 9 14 9 7 1 -8 6 -10 13 -6 23 14 49 12 43 -4 -4
-12 -3 -13 10 -2 8 7 15 9 15 4 0 -5 5 -2 10 6 8 12 10 12 10 1 0 -10 3 -11
13 -2 8 6 17 7 22 3 4 -4 3 3 -4 15 -6 12 -17 26 -25 30 -19 11 -58 91 -51
104 4 5 3 8 -2 7 -4 -2 -8 0 -8 3 0 4 -8 16 -18 27 -11 12 -16 25 -13 31 3 5
2 11 -3 13 -5 1 -11 10 -13 18 -2 8 -9 21 -16 28 -7 8 -10 18 -7 23 4 5 1 9
-4 9 -6 0 -11 6 -11 14 0 7 -7 19 -15 26 -9 7 -14 19 -11 27 3 7 1 13 -4 13
-6 0 -10 7 -10 15 0 8 -3 15 -7 15 -5 0 -9 11 -9 24 -1 19 2 23 15 19 11 -4
10 -1 -4 10 -11 8 -24 13 -30 10 -5 -3 -4 0 3 8 6 7 12 16 12 20 0 9 -160 6
-166 -3z m115 -205 c10 -21 22 -48 25 -60 7 -22 5 -23 -48 -23 -41 0 -56 4
-56 14 0 8 8 17 17 20 15 6 15 8 3 16 -13 8 -12 10 3 10 10 0 16 4 13 9 -3 5
1 11 9 15 8 3 15 11 14 18 0 10 -2 10 -6 1 -2 -7 -9 -13 -15 -13 -6 0 -6 6 2
15 17 20 17 20 39 -22z"/>
<path d="M11717 5967 c-9 -6 -9 -10 1 -14 9 -3 12 -58 12 -223 0 -166 -3 -219
-12 -223 -9 -3 -6 -11 9 -24 13 -11 20 -22 18 -25 -3 -2 2 -5 10 -5 8 0 11 5
8 11 -3 6 0 6 7 -1 9 -9 19 -9 33 -2 15 8 18 8 12 -1 -6 -9 -2 -9 14 -1 14 8
21 8 21 1 0 -5 5 -10 11 -10 5 0 8 4 5 9 -4 5 0 11 6 14 10 3 10 7 -1 20 -7 9
-11 24 -7 32 3 8 1 15 -5 15 -6 0 -6 7 1 20 8 14 8 20 0 20 -7 0 -8 6 -1 18 7
13 7 22 0 29 -7 7 -1 16 17 28 14 9 24 12 20 7 -8 -14 54 -13 71 0 9 7 15 5
20 -8 3 -11 17 -33 30 -50 12 -17 20 -34 15 -39 -4 -5 -2 -6 3 -2 6 3 18 -8
27 -24 10 -16 13 -29 8 -29 -6 0 -10 -4 -10 -10 0 -5 7 -10 15 -10 17 0 19
-12 5 -26 -6 -6 -3 -10 10 -11 11 -1 22 3 25 8 4 5 11 6 17 2 18 -10 78 -10
78 1 0 6 5 5 12 -2 17 -17 25 -15 31 8 3 11 1 18 -4 14 -5 -3 -9 0 -9 6 0 6
-16 24 -35 41 -19 17 -35 37 -35 44 0 7 -7 16 -16 19 -8 3 -13 10 -10 15 3 5
-1 11 -9 15 -8 3 -15 13 -15 22 0 10 5 14 16 10 8 -3 13 -2 10 2 -8 13 10 33
32 35 11 0 19 5 16 9 -3 4 4 13 16 20 11 7 20 16 20 21 0 4 -6 5 -12 1 -9 -5
-9 -3 1 9 7 9 11 26 8 36 -3 11 -1 21 4 23 5 2 2 16 -6 32 -9 16 -13 31 -11
34 9 8 -69 72 -102 83 -39 13 -378 18 -395 6z m231 -113 c6 -1 12 3 12 9 0 7
5 5 10 -3 9 -13 10 -13 10 0 0 13 1 13 10 0 5 -8 12 -11 16 -7 4 4 13 2 21 -5
11 -8 12 -7 7 6 -5 12 -2 15 10 10 9 -3 13 -11 10 -16 -4 -6 4 -4 17 2 13 7
21 9 17 5 -4 -4 -1 -13 6 -19 20 -16 3 -54 -29 -66 -35 -13 -225 -13 -205 0
13 9 13 11 0 20 -13 9 -13 10 0 10 13 0 13 1 0 11 -11 7 -12 12 -3 15 7 3 9
12 6 21 -4 11 -2 14 5 9 7 -4 20 -3 29 3 10 5 22 6 28 3 5 -4 16 -7 23 -8z"/>
<path d="M12561 5969 c-106 -32 -181 -132 -181 -241 0 -40 25 -122 43 -144 41
-48 73 -79 79 -76 5 1 8 -2 8 -8 0 -5 5 -10 11 -10 7 0 18 -8 26 -17 8 -10 12
-12 8 -5 -3 6 -1 12 4 12 6 0 11 -7 11 -15 0 -8 5 -15 11 -15 5 0 8 4 5 9 -4
5 1 8 10 7 8 -1 20 -9 25 -17 5 -8 9 -9 9 -4 0 14 53 13 62 0 5 -6 8 -5 8 4 0
11 3 11 15 1 12 -10 15 -10 15 0 0 7 6 10 14 7 8 -3 17 1 20 10 5 12 9 13 21
3 11 -9 15 -9 15 -1 0 7 5 9 10 6 6 -3 10 -1 10 5 0 6 4 9 9 5 6 -3 14 3 20
12 6 10 11 14 11 9 0 -5 14 7 31 27 18 21 36 34 43 30 6 -4 5 1 -3 10 -8 10
-9 17 -3 17 6 0 14 16 18 35 4 22 10 32 18 28 6 -4 5 1 -3 10 -10 13 -10 17
-1 17 10 0 10 3 1 14 -9 11 -9 16 0 21 8 6 7 10 -2 16 -12 7 -11 9 1 9 13 1
13 2 -1 10 -10 6 -15 21 -14 39 1 17 -2 28 -6 26 -10 -7 -20 25 -12 38 3 7 3
9 -1 5 -4 -3 -23 10 -41 31 -53 58 -116 84 -210 88 -44 1 -95 -2 -114 -8z
m132 -102 c4 3 7 1 7 -7 0 -8 4 -9 13 -3 17 13 36 10 47 -7 5 -8 10 -11 10 -7
0 5 7 1 16 -7 8 -9 13 -20 9 -26 -3 -5 0 -7 8 -4 17 6 27 -23 27 -82 0 -49
-31 -100 -78 -127 -40 -23 -134 -27 -172 -7 -28 14 -65 50 -53 50 4 0 2 4 -4
8 -12 8 -17 42 -14 90 0 13 5 20 11 17 6 -3 7 1 4 9 -3 9 -1 16 5 16 6 0 10 3
10 8 -3 17 1 35 7 29 3 -3 17 5 31 19 21 21 27 23 41 12 10 -8 13 -9 9 -1 -4
6 -3 14 3 18 5 3 10 2 10 -4 0 -6 7 -8 15 -5 8 4 12 11 8 18 -4 7 -1 7 9 -1 8
-7 18 -10 21 -6z"/>
<path d="M13153 5972 c-22 -3 -33 -22 -13 -22 6 0 10 -59 10 -157 0 -166 9
-222 40 -253 10 -10 16 -21 13 -24 -4 -3 -1 -6 6 -6 7 0 9 -5 6 -10 -4 -6 -3
-10 2 -9 18 3 34 -1 29 -9 -2 -4 5 -9 16 -9 12 -1 24 -7 28 -14 6 -8 9 -8 14
0 4 6 12 11 17 11 6 0 8 -4 5 -9 -3 -5 3 -11 14 -14 11 -3 18 -1 14 4 -3 5 -1
9 5 9 5 0 12 -6 14 -12 4 -10 6 -9 6 1 1 11 6 10 21 -4 16 -14 19 -15 15 -4
-8 20 33 19 46 -2 7 -11 9 -11 9 4 0 14 5 17 19 12 11 -3 23 -1 26 6 6 8 10 7
16 -2 6 -10 9 -10 9 -2 0 7 7 10 15 7 11 -5 14 -2 9 12 -6 15 -4 17 6 7 10 -9
17 -7 32 13 11 13 24 21 30 18 6 -4 8 -2 4 4 -3 6 -2 13 3 17 6 3 7 13 4 22
-4 10 -2 14 4 10 6 -4 13 6 15 24 3 16 1 32 -4 35 -5 3 -3 13 4 22 11 12 11
16 0 20 -10 3 -10 7 0 20 11 13 11 14 -2 7 -13 -8 -13 -7 -1 8 8 11 9 17 3 17
-6 0 -9 7 -6 15 4 8 10 12 15 9 5 -3 6 2 3 10 -3 9 -10 16 -14 16 -5 0 -5 14
0 30 5 19 5 30 -1 30 -6 0 -7 6 -2 13 4 6 6 20 4 31 -2 13 1 16 11 11 10 -6
10 -5 2 4 -14 15 -6 53 9 44 6 -3 7 -1 3 6 -6 9 -11 9 -22 0 -9 -7 -14 -8 -14
-1 0 6 5 14 10 17 22 14 -2 20 -72 18 -90 -2 -84 -1 -70 -15 15 -15 17 -294 2
-332 -5 -14 -20 -32 -34 -41 -32 -21 -128 -26 -166 -7 -28 14 -33 23 -33 65 0
9 -5 17 -11 17 -6 0 -5 4 3 9 9 6 10 10 2 16 -9 5 -9 10 0 21 9 11 9 17 -1 29
-10 12 -10 15 0 15 10 0 10 3 1 14 -8 10 -9 16 -1 21 6 3 7 12 3 18 -10 17
-10 40 1 55 5 8 4 12 -4 12 -9 0 -9 4 -2 13 7 8 7 18 2 27 -5 8 -6 18 -4 22 3
4 0 8 -7 8 -7 0 -4 7 7 15 19 14 19 14 -1 15 -78 5 -103 5 -122 2z"/>
<path d="M13897 5967 c-9 -6 -9 -10 1 -14 15 -6 18 -443 2 -443 -18 0 -10 -19
11 -25 20 -7 20 -7 2 -21 -16 -13 -16 -13 7 -5 18 6 28 4 38 -8 7 -9 11 -11 8
-4 -4 6 -2 14 4 18 5 3 10 3 10 -2 0 -4 18 -8 39 -8 24 0 37 4 33 10 -4 6 -5
18 -4 28 2 9 -2 17 -9 17 -10 0 -10 3 -2 11 7 7 8 20 3 34 -5 14 -5 26 2 33 6
6 6 12 0 16 -16 9 -2 48 15 42 8 -3 11 -1 8 4 -3 6 1 10 10 10 10 0 13 -5 9
-12 -4 -7 1 -5 12 4 19 16 22 16 44 1 13 -9 20 -11 15 -4 -5 10 -2 11 14 6 13
-4 29 -1 38 7 15 11 16 11 10 -5 -6 -16 -4 -16 23 -2 17 9 30 11 30 5 0 -5 5
-10 11 -10 5 0 7 4 4 10 -3 6 1 7 9 4 9 -4 16 -1 16 6 0 8 8 10 21 7 12 -3 19
-3 16 0 -3 3 5 15 18 27 13 12 25 29 27 37 2 7 10 20 18 27 8 8 10 11 3 8 -6
-4 -14 -2 -18 4 -3 5 -2 10 4 10 5 0 9 13 9 30 -1 17 -5 27 -11 23 -6 -4 -8 0
-4 10 3 10 3 17 -1 17 -4 0 -15 14 -24 31 -33 57 -87 71 -285 73 -96 0 -180
-3 -186 -7z m163 -107 c0 13 1 13 10 0 9 -13 10 -13 10 0 0 13 1 13 11 0 8
-11 12 -12 16 -3 3 9 10 10 22 3 10 -5 21 -6 25 -3 10 11 56 12 56 2 0 -6 -5
-7 -12 -3 -7 4 -8 3 -4 -5 4 -6 13 -8 19 -4 17 11 29 11 50 1 23 -12 22 -31
-4 -54 -29 -26 -213 -35 -222 -10 -3 8 -1 18 5 22 7 4 6 9 -3 15 -9 5 -10 9
-2 9 6 0 9 9 6 23 -4 18 -3 19 6 7 10 -13 11 -13 11 0z"/>
<path d="M13287 5936 c-3 -8 -2 -18 3 -21 13 -8 20 9 11 24 -6 10 -10 9 -14
-3z"/>
<path d="M10150 5851 c0 -6 4 -13 10 -16 6 -3 7 1 4 9 -7 18 -14 21 -14 7z"/>
<path d="M6155 5560 c-3 -5 -1 -10 4 -10 6 0 11 5 11 10 0 6 -2 10 -4 10 -3 0
-8 -4 -11 -10z"/>
<path d="M5126 5482 c-2 -4 -1 -14 4 -22 7 -11 9 -9 7 8 -1 24 -3 26 -11 14z"/>
<path d="M8740 5462 c0 -5 7 -9 15 -9 8 0 12 4 9 9 -3 4 -9 8 -15 8 -5 0 -9
-4 -9 -8z"/>
<path d="M435 5122 c-9 -9 -5 -73 4 -67 6 3 14 -3 20 -12 5 -10 13 -15 17 -11
3 4 15 3 25 -3 11 -5 19 -6 19 -2 0 12 84 10 92 -2 5 -6 8 -5 8 3 0 10 5 10
20 2 14 -7 20 -7 20 0 0 5 5 10 11 10 5 0 8 -4 4 -9 -3 -6 6 -7 22 -2 35 9 65
3 57 -12 -3 -7 2 -3 10 7 12 15 16 16 16 5 0 -8 3 -10 8 -4 4 6 18 10 32 10
14 0 28 -4 32 -10 5 -6 8 -5 8 3 0 10 5 10 20 2 14 -7 20 -7 20 0 0 5 5 10 11
10 5 0 8 -4 5 -9 -3 -4 12 -5 34 -1 24 4 43 3 49 -3 7 -7 11 -7 11 -1 0 11 62
10 81 -1 7 -5 10 -4 6 1 -6 11 44 11 61 0 7 -4 12 -3 12 1 0 5 17 7 38 5 49
-4 103 -2 113 3 4 3 10 -1 12 -7 4 -10 6 -10 6 0 1 10 6 10 21 2 14 -7 20 -7
20 0 0 5 5 10 11 10 5 0 8 -4 4 -9 -3 -6 6 -7 22 -2 35 9 65 3 57 -12 -3 -7 2
-3 10 7 12 15 16 16 16 5 0 -8 3 -10 8 -4 4 6 18 10 32 10 14 0 28 -4 32 -10
5 -6 8 -5 8 3 0 10 5 10 20 2 14 -7 20 -7 20 0 0 5 5 10 11 10 5 0 8 -4 4 -9
-3 -6 6 -7 22 -2 35 9 65 3 57 -12 -3 -7 2 -3 10 7 12 15 16 16 16 5 0 -8 3
-10 8 -4 4 6 18 10 32 10 14 0 28 -4 32 -10 5 -6 8 -5 8 3 0 10 5 10 20 2 14
-7 20 -7 20 0 0 5 5 10 11 10 5 0 8 -4 5 -9 -3 -4 12 -5 34 -1 24 4 43 3 49
-3 7 -7 11 -7 11 -1 0 11 62 10 81 -1 7 -5 10 -4 6 1 -6 11 44 11 61 0 7 -4
12 -3 12 1 0 5 17 7 38 5 49 -4 103 -2 113 3 4 3 10 -1 12 -7 4 -10 6 -10 6 0
1 10 6 10 21 2 14 -7 20 -7 20 0 0 5 5 10 11 10 5 0 8 -4 4 -9 -3 -6 6 -7 22
-2 35 9 65 3 57 -12 -3 -7 2 -3 10 7 12 15 16 16 16 5 0 -8 3 -10 8 -4 4 6 18
10 32 10 14 0 28 -4 32 -10 5 -6 8 -5 8 3 0 10 5 10 20 2 14 -7 20 -7 20 0 0
5 5 10 11 10 5 0 8 -4 4 -9 -3 -6 6 -7 22 -2 35 9 65 3 57 -12 -3 -7 2 -3 10
7 12 15 16 16 16 5 0 -8 3 -10 8 -4 4 6 18 10 32 10 14 0 28 -4 32 -10 5 -6 8
-5 8 3 0 10 5 10 20 2 14 -7 20 -7 20 0 0 5 5 10 11 10 5 0 8 -4 4 -9 -3 -6 6
-6 25 -1 21 6 30 5 30 -3 0 -8 3 -8 8 -2 7 11 84 17 78 6 -2 -3 7 -6 20 -6 13
0 24 5 24 10 0 6 5 3 10 -5 9 -13 10 -13 10 0 0 13 1 13 10 0 7 -11 10 -11 10
-2 0 10 5 10 20 2 15 -8 20 -8 20 2 0 9 3 9 10 -2 9 -13 10 -13 10 0 0 12 2
12 9 2 7 -11 9 -11 14 2 4 9 1 16 -6 17 -7 0 -4 4 7 8 14 5 3 14 -51 38 l-69
30 -1292 0 c-710 0 -1294 -2 -1297 -5z"/>
<path d="M7221 5096 c-42 -30 -42 -31 -17 -34 27 -3 35 -26 14 -36 -7 -3 -4
-4 7 -3 11 1 23 7 27 12 5 6 8 4 8 -5 0 -13 1 -13 10 0 9 13 11 13 20 0 9 -13
10 -13 10 0 0 13 1 13 10 0 6 -9 10 -10 10 -3 0 8 9 9 30 3 18 -5 30 -5 30 1
0 5 5 9 11 9 5 0 8 -4 4 -9 -3 -6 6 -7 22 -2 35 9 65 3 57 -12 -3 -7 2 -3 10
7 12 15 16 16 16 5 0 -8 3 -10 8 -4 4 6 18 10 32 10 14 0 28 -4 32 -10 5 -6 8
-5 8 3 0 10 5 10 20 2 14 -7 20 -7 20 0 0 5 5 10 11 10 5 0 8 -4 5 -9 -3 -4
12 -5 34 -1 24 4 43 3 49 -3 7 -7 11 -7 11 -1 0 11 62 10 81 -1 7 -5 10 -4 6
1 -6 11 44 11 61 0 7 -4 12 -3 12 1 0 5 17 7 38 5 49 -4 103 -2 113 3 4 3 10
-1 12 -7 4 -10 6 -10 6 0 1 10 6 10 21 2 14 -7 20 -7 20 0 0 5 5 10 11 10 5 0
8 -4 4 -9 -3 -6 6 -7 22 -2 35 9 65 3 57 -12 -3 -7 2 -3 10 7 12 15 16 16 16
5 0 -8 3 -10 8 -4 4 6 18 10 32 10 14 0 28 -4 32 -10 5 -6 8 -5 8 3 0 10 5 10
20 2 14 -7 20 -7 20 0 0 5 5 10 11 10 5 0 8 -4 4 -9 -3 -6 6 -7 22 -2 35 9 65
3 57 -12 -3 -7 2 -3 10 7 12 15 16 16 16 5 0 -8 3 -10 8 -4 4 6 18 10 32 10
14 0 28 -4 32 -10 5 -6 8 -5 8 3 0 10 5 10 20 2 14 -7 20 -7 20 0 0 5 5 10 11
10 5 0 8 -4 5 -9 -3 -4 12 -5 34 -1 24 4 43 3 49 -3 7 -7 11 -7 11 -1 0 11 62
10 81 -1 7 -5 10 -4 6 1 -6 11 44 11 61 0 7 -4 12 -3 12 1 0 5 17 7 38 5 49
-4 103 -2 113 3 4 3 10 -1 12 -7 4 -10 6 -10 6 0 1 10 6 10 21 2 14 -7 20 -7
20 0 0 5 5 10 11 10 5 0 8 -4 4 -9 -3 -6 6 -7 22 -2 35 9 65 3 57 -12 -3 -7 2
-3 10 7 12 15 16 16 16 5 0 -8 3 -10 8 -4 4 6 18 10 32 10 14 0 28 -4 32 -10
5 -6 8 -5 8 3 0 10 5 10 20 2 14 -7 20 -7 20 0 0 5 5 10 11 10 5 0 8 -4 4 -9
-3 -6 6 -7 22 -2 35 9 65 3 57 -12 -3 -7 2 -3 10 7 12 15 16 16 16 5 0 -8 3
-10 8 -4 4 6 18 10 32 10 14 0 28 -4 32 -10 5 -6 8 -5 8 3 0 10 5 10 20 2 14
-7 20 -7 20 0 0 5 5 10 11 10 5 0 8 -4 5 -9 -3 -4 12 -5 34 -1 24 4 43 3 49
-3 7 -7 11 -7 11 -1 0 11 62 10 81 -1 7 -5 10 -4 6 1 -6 11 44 11 61 0 7 -4
12 -3 12 1 0 5 17 7 38 5 49 -4 103 -2 113 3 4 3 10 -1 12 -7 4 -10 6 -10 6 0
1 10 6 10 21 2 14 -7 20 -7 20 0 0 5 5 10 11 10 5 0 8 -4 4 -9 -3 -6 6 -7 22
-2 35 9 65 3 57 -12 -3 -7 2 -3 10 7 12 15 16 16 16 5 0 -8 3 -10 8 -4 4 6 18
10 32 10 14 0 28 -4 32 -10 5 -6 8 -5 8 3 0 10 5 10 20 2 14 -7 20 -7 20 0 0
5 5 10 11 10 5 0 8 -4 4 -9 -3 -6 6 -7 22 -2 35 9 65 3 57 -12 -3 -7 2 -3 10
7 12 15 16 16 16 5 0 -8 3 -10 8 -4 4 6 18 10 32 10 14 0 28 -4 32 -10 5 -6 8
-5 8 3 0 10 5 10 20 2 14 -7 20 -7 20 0 0 5 5 10 11 10 5 0 8 -4 5 -9 -3 -4
12 -5 34 -1 24 4 43 3 49 -3 7 -7 11 -7 11 -1 0 11 62 10 81 -1 7 -5 10 -4 6
1 -6 11 44 11 61 0 7 -4 12 -3 12 1 0 5 17 7 38 5 49 -4 103 -2 113 3 4 3 10
-1 12 -7 4 -10 6 -10 6 0 1 10 6 10 21 2 14 -7 20 -7 20 0 0 5 5 10 11 10 5 0
8 -4 4 -9 -3 -6 6 -7 22 -2 35 9 65 3 57 -12 -3 -7 2 -3 10 7 12 15 16 16 16
5 0 -8 3 -10 8 -4 4 6 18 10 32 10 14 0 28 -4 32 -10 5 -6 8 -5 8 3 0 10 5 10
20 2 14 -7 20 -7 20 0 0 5 5 10 11 10 5 0 8 -4 4 -9 -3 -6 6 -7 22 -2 35 9 65
3 57 -12 -3 -7 2 -3 10 7 12 15 16 16 16 5 0 -8 3 -10 8 -4 4 6 18 10 32 10
14 0 28 -4 32 -10 5 -6 8 -5 8 3 0 10 5 10 20 2 14 -7 20 -7 20 0 0 5 5 10 11
10 5 0 8 -4 5 -9 -3 -4 12 -5 34 -1 24 4 43 3 49 -3 7 -7 11 -7 11 -1 0 11 62
10 81 -1 7 -5 10 -4 6 1 -6 11 44 11 61 0 7 -4 12 -3 12 1 0 5 17 7 38 5 49
-4 103 -2 113 3 4 3 10 -1 12 -7 4 -10 6 -10 6 0 1 10 6 10 21 2 14 -7 20 -7
20 0 0 5 5 10 11 10 5 0 8 -4 4 -9 -3 -6 6 -7 22 -2 35 9 65 3 57 -12 -3 -7 2
-3 10 7 12 15 16 16 16 5 0 -8 3 -10 8 -4 4 6 18 10 32 10 14 0 28 -4 32 -10
5 -6 8 -5 8 3 0 10 5 10 20 2 14 -7 20 -7 20 0 0 5 5 10 11 10 5 0 8 -4 4 -9
-3 -6 6 -7 22 -2 35 9 65 3 57 -12 -3 -7 2 -3 10 7 12 15 16 16 16 5 0 -8 3
-10 8 -4 4 6 18 10 32 10 14 0 28 -4 32 -10 5 -6 8 -5 8 3 0 10 5 10 20 2 14
-7 20 -7 20 0 0 5 5 10 11 10 5 0 8 -4 5 -9 -3 -4 12 -5 34 -1 24 4 43 3 49
-3 7 -7 11 -7 11 -1 0 11 62 10 81 -1 7 -5 10 -4 6 1 -6 11 44 11 61 0 7 -4
12 -3 12 1 0 5 17 7 38 5 49 -4 103 -2 113 3 4 3 10 -1 12 -7 4 -10 6 -10 6 0
1 10 6 10 21 2 14 -7 20 -7 20 0 0 5 5 10 11 10 5 0 8 -4 4 -9 -3 -6 6 -7 22
-2 35 9 65 3 57 -12 -3 -7 2 -3 10 7 12 15 16 16 16 5 0 -8 3 -10 8 -4 4 6 18
10 32 10 14 0 28 -4 32 -10 5 -6 8 -5 8 3 0 10 5 10 20 2 14 -7 20 -7 20 0 0
5 5 10 11 10 5 0 8 -4 4 -9 -3 -6 6 -7 22 -2 35 9 65 3 57 -12 -3 -7 2 -3 10
7 12 15 16 16 16 5 0 -8 3 -10 8 -4 4 6 18 10 32 10 14 0 28 -4 32 -10 5 -6 8
-5 8 3 0 10 5 10 20 2 14 -7 20 -7 20 0 0 5 5 10 11 10 5 0 8 -4 5 -9 -3 -4
12 -5 34 -1 24 4 43 3 49 -3 7 -7 11 -7 11 -1 0 11 62 10 81 -1 7 -5 10 -4 6
1 -6 11 44 11 61 0 7 -4 12 -3 12 1 0 5 17 7 38 5 49 -4 103 -2 113 3 4 3 10
-1 12 -7 4 -10 6 -10 6 0 1 10 6 10 21 2 14 -7 20 -7 20 0 0 5 5 10 11 10 5 0
8 -4 4 -9 -3 -6 6 -7 22 -2 35 9 65 3 57 -12 -3 -7 2 -3 10 7 12 15 16 16 16
5 0 -8 3 -10 8 -4 4 6 18 10 32 10 14 0 28 -4 32 -10 5 -6 8 -5 8 3 0 10 5 10
20 2 14 -7 20 -7 20 0 0 5 5 10 11 10 5 0 8 -4 4 -9 -3 -6 6 -7 22 -2 35 9 65
3 57 -12 -3 -7 2 -3 10 7 12 15 16 16 16 5 0 -8 3 -10 8 -4 4 6 18 10 32 10
14 0 28 -4 32 -10 5 -6 8 -5 8 3 0 10 5 10 20 2 14 -7 20 -7 20 0 0 5 5 10 11
10 5 0 8 -4 5 -9 -3 -4 12 -5 34 -1 24 4 43 3 49 -3 7 -7 11 -7 11 -1 0 11 62
10 81 -1 7 -5 10 -4 6 1 -6 11 44 11 61 0 7 -4 12 -3 12 2 0 13 33 10 42 -3 5
-6 8 -5 8 4 0 11 3 11 15 1 10 -8 15 -9 15 -2 0 6 7 9 15 6 23 -9 36 5 25 26
-9 16 -8 19 7 14 14 -4 13 -1 -4 14 -13 11 -23 24 -23 30 0 6 -1382 9 -3722 9
l-3723 0 -44 -31z"/>
<path d="M3156 5033 c-6 -14 -5 -15 5 -6 7 7 10 15 7 18 -3 3 -9 -2 -12 -12z"/>
</g>
</svg>
