<?xml version="1.0" standalone="no"?>
<!DOCTYPE svg PUBLIC "-//W3C//DTD SVG 20010904//EN"
 "http://www.w3.org/TR/2001/REC-SVG-20010904/DTD/svg10.dtd">
<svg version="1.0" xmlns="http://www.w3.org/2000/svg"
 width="300.000000pt" height="300.000000pt" viewBox="0 0 300.000000 300.000000"
 preserveAspectRatio="xMidYMid meet">
<metadata>
Created by potrace 1.11, written by Peter Selinger 2001-2013
</metadata>
<g transform="translate(0.000000,300.000000) scale(0.100000,-0.100000)"
fill="#000000" stroke="none">
<path d="M1422 2915 c-551 -83 -997 -488 -1135 -1030 -79 -307 -41 -657 100
-938 l34 -68 -117 -227 c-64 -125 -159 -309 -211 -409 -51 -101 -92 -183 -89
-183 5 0 262 117 361 165 194 93 438 205 447 205 6 0 45 -22 87 -48 141 -89
319 -157 491 -188 97 -17 304 -23 395 -11 470 61 871 345 1074 760 96 198 131
344 136 572 2 88 0 187 -6 220 -5 33 -11 71 -13 85 -18 119 -109 346 -189 471
-98 154 -239 299 -382 396 -171 115 -360 190 -575 228 -69 12 -326 12 -408 0z
m-127 -617 c65 -206 281 -980 301 -1081 2 -10 5 -26 8 -35 3 -9 8 -35 12 -57
8 -53 11 -54 22 -9 81 334 105 422 306 1089 2 6 9 31 16 58 l12 47 188 0 189
0 -71 -207 c-39 -115 -147 -435 -240 -713 -93 -278 -181 -536 -194 -575 l-25
-70 -204 0 -205 0 -32 95 c-18 52 -33 100 -34 105 -1 6 -25 82 -54 170 -28 88
-88 273 -132 410 -44 138 -118 367 -164 511 -46 143 -84 263 -84 267 0 4 86 7
190 7 144 0 192 -3 195 -12z"/>
</g>
</svg>
