<?xml version="1.0" standalone="no"?>
<!DOCTYPE svg PUBLIC "-//W3C//DTD SVG 20010904//EN"
 "http://www.w3.org/TR/2001/REC-SVG-20010904/DTD/svg10.dtd">
<svg version="1.0" xmlns="http://www.w3.org/2000/svg"
 width="300.000000pt" height="300.000000pt" viewBox="0 0 300.000000 300.000000"
 preserveAspectRatio="xMidYMid meet">
<metadata>
Created by potrace 1.11, written by Peter Selinger 2001-2013
</metadata>
<g transform="translate(0.000000,300.000000) scale(0.100000,-0.100000)"
fill="#000000" stroke="none">
<path d="M1313 2129 c-97 -18 -200 -76 -279 -156 -207 -211 -197 -572 21 -771
103 -95 213 -133 369 -129 162 5 269 61 359 188 33 47 38 61 32 88 -8 38 -20
39 -39 4 -21 -41 -85 -106 -134 -137 -109 -69 -272 -66 -375 6 -107 75 -167
203 -172 367 -10 324 202 541 446 455 69 -24 166 -117 200 -191 18 -41 29 -53
46 -53 20 0 22 4 18 53 -2 28 -6 102 -10 162 -4 61 -9 113 -12 118 -9 16 -43
7 -43 -13 0 -41 -44 -47 -129 -16 -24 9 -56 19 -70 22 -43 9 -183 11 -228 3z"/>
<path d="M2213 2125 c-159 -37 -299 -168 -364 -340 -18 -48 -24 -94 -24 -190
0 -122 9 -165 50 -250 46 -96 116 -165 220 -216 100 -49 114 -52 258 -55 127
-3 205 13 319 63 86 38 86 38 84 191 -2 192 13 238 84 252 17 4 25 12 26 28
l1 22 -202 0 c-201 0 -202 0 -200 -22 1 -14 9 -22 26 -25 94 -13 102 -29 104
-215 1 -81 -1 -151 -4 -156 -9 -15 -82 -50 -121 -58 -63 -14 -162 -7 -210 14
-65 28 -142 101 -178 170 -81 151 -85 379 -10 538 83 177 288 240 449 139 67
-43 136 -133 153 -198 5 -20 13 -27 30 -27 21 0 23 3 20 58 -8 182 -14 274
-19 282 -8 13 -35 13 -35 0 0 -15 -42 -50 -62 -50 -10 0 -57 12 -105 26 -101
29 -215 37 -290 19z"/>
<path d="M460 2010 c0 -5 5 -12 11 -15 22 -14 49 -115 30 -115 -5 0 -12 9 -16
20 -7 23 -52 57 -80 60 -31 4 -49 1 -42 -7 4 -3 -1 -12 -11 -20 -9 -8 -11 -12
-4 -8 6 3 12 2 12 -2 0 -5 18 -9 41 -9 49 -2 79 -24 34 -25 -17 0 -39 -3 -50
-5 -11 -2 -28 -5 -37 -6 -10 -1 -18 -5 -18 -9 0 -4 -11 -10 -25 -13 -23 -6
-75 -53 -75 -68 0 -4 8 -4 18 -1 15 6 15 5 3 -10 -8 -10 -11 -20 -8 -23 3 -3
12 3 19 15 7 12 16 21 21 21 4 0 5 -5 1 -12 -4 -6 9 1 29 16 20 15 44 26 54
24 16 -3 16 -4 -1 -18 -37 -31 -75 -74 -71 -81 3 -4 -4 -28 -16 -53 -13 -31
-17 -51 -11 -62 8 -14 10 -12 16 10 3 14 12 25 18 23 7 -1 14 8 16 21 2 12 8
22 14 22 6 0 20 7 30 17 14 13 18 13 18 2 0 -8 10 -3 24 14 13 15 28 27 35 27
13 0 15 -26 2 -34 -4 -3 -12 -20 -16 -38 -8 -36 -11 -45 -15 -53 -1 -3 -4 -14
-5 -25 -1 -11 -4 -21 -5 -22 -1 -2 -3 -16 -5 -33 -1 -16 -6 -48 -9 -70 -4 -22
-8 -80 -10 -130 -2 -49 -4 -102 -5 -116 0 -15 -16 -44 -35 -65 -23 -26 -32
-42 -25 -49 14 -14 235 -13 249 1 7 7 2 20 -20 43 -17 17 -28 35 -26 40 3 5 8
26 12 47 3 22 12 51 20 66 8 15 14 30 14 33 0 3 6 19 15 35 10 19 20 27 30 24
9 -4 15 -11 14 -18 -1 -6 3 -22 9 -36 8 -19 11 -21 13 -7 1 9 3 22 4 27 1 6 3
15 4 22 1 7 6 5 14 -5 18 -25 43 -7 28 21 -15 27 -14 32 4 32 8 0 15 4 15 9 0
16 -25 29 -50 24 -24 -3 -24 -3 -5 13 17 13 17 15 3 10 -13 -4 -18 0 -18 14 0
10 -4 21 -8 24 -5 3 -6 -9 -4 -26 3 -21 1 -29 -7 -24 -6 4 -11 13 -11 21 0 7
-7 16 -16 19 -23 9 -34 7 -34 -4 0 -5 8 -10 17 -10 24 0 7 -13 -19 -15 -34 -2
-68 -15 -68 -26 0 -5 7 -9 15 -9 20 0 19 -12 -6 -43 l-20 -26 43 19 c47 21 67
17 45 -8 -13 -16 -48 -91 -77 -170 -13 -33 -33 -55 -29 -31 1 8 -1 21 -4 29
-7 19 -19 151 -18 205 2 94 9 174 16 185 4 7 9 26 11 42 2 16 8 38 14 48 14
25 42 27 33 3 -6 -15 -4 -16 9 -5 13 10 17 10 22 -3 3 -8 3 -21 0 -29 -3 -9 1
-13 13 -13 13 2 17 -4 16 -21 -2 -13 1 -21 7 -17 6 3 11 1 11 -4 1 -6 2 -15 3
-21 0 -5 6 -10 11 -10 11 0 26 46 18 53 -10 11 -13 97 -2 97 6 0 13 -9 16 -20
4 -16 8 -18 19 -9 13 11 19 2 15 -23 0 -5 4 -8 9 -8 6 0 10 11 10 25 0 26 15
34 23 13 4 -10 6 -9 6 1 1 19 -47 101 -59 101 -5 0 -5 11 2 25 9 19 14 22 25
14 10 -9 13 -6 13 13 0 48 -47 62 -115 34 -44 -19 -52 -9 -17 20 26 23 37 28
55 25 4 0 7 4 7 10 0 15 -50 2 -73 -18 -20 -19 -17 -21 -47 34 -22 39 -50 64
-50 43z"/>
<path d="M650 1160 c0 -3 14 -11 30 -17 17 -6 30 -19 30 -28 0 -68 -466 -82
-533 -16 -18 17 -17 18 6 33 13 9 34 18 48 21 13 3 -11 5 -54 4 -101 0 -120
-4 -148 -30 l-22 -21 26 -22 c25 -22 91 -41 172 -50 22 -2 55 -7 72 -9 53 -8
284 -17 485 -19 103 -1 191 -5 194 -9 4 -4 -13 -7 -37 -8 -72 -1 -134 -17 -78
-20 13 -1 33 -3 44 -4 11 -2 74 -6 140 -10 66 -4 145 -8 175 -10 30 -2 82 -4
114 -4 61 -1 70 -8 20 -17 -16 -3 -33 -9 -38 -14 -29 -29 207 -44 719 -44 339
0 641 10 885 29 19 1 50 3 68 4 29 1 33 4 30 24 -3 21 -7 22 -111 23 -160 2
-154 12 23 40 97 15 90 11 90 60 l0 45 -27 -14 c-31 -16 -137 -44 -198 -52
-22 -3 -53 -7 -70 -10 -140 -21 -487 -39 -745 -39 -145 0 -499 12 -565 18 -22
3 -74 7 -117 11 -42 3 -89 7 -105 10 -15 2 -50 6 -78 10 -81 11 -206 44 -239
63 -34 20 -46 50 -25 63 7 4 -30 9 -84 11 -53 2 -97 1 -97 -2z m350 -162 c0
-4 -7 -8 -15 -8 -8 0 -15 4 -15 8 0 5 7 9 15 9 8 0 15 -4 15 -9z"/>
</g>
</svg>
