<?xml version="1.0" encoding="utf-8"?>
<!-- Generator: Adobe Illustrator 19.2.1, SVG Export Plug-In . SVG Version: 6.00 Build 0)  -->
<svg version="1.1" id="Twitter" xmlns="http://www.w3.org/2000/svg" xmlns:xlink="http://www.w3.org/1999/xlink" x="0px" y="0px"
	 viewBox="0 0 131.9 50" style="enable-background:new 0 0 131.9 50;" xml:space="preserve">
<style type="text/css">
	.st0{fill:#1DA1F2;}
	.st1{fill:#8C8C8C;}
</style>
<title>Twitter</title>
<path class="st0" d="M36.8,0C23,0,11.9,11,11.8,24.7L0,27.2l12.7,4.6C15.7,42.3,25.3,50,36.8,50c13.8,0,25-11.2,25-25S50.6,0,36.8,0
	z M49,18.7L49,18.7c0,0.3,0,0.6,0,0.8c0,8.3-6.3,18-18,18c-3.4,0-6.8-1-9.7-2.8c0.5,0.1,1,0.1,1.5,0.1c2.8,0,5.6-0.9,7.8-2.7
	c-2.7,0-5.1-1.8-5.9-4.4c0.4,0.1,0.8,0.1,1.2,0.1c0.5,0,1-0.1,1.5-0.2c-3-0.6-5.2-3.2-5.2-6.2v-0.1c0.9,0.5,2,0.7,3,0.8
	c-1.7-1.2-2.8-3.2-2.7-5.2c0-1.1,0.3-2.2,0.9-3.2c3.2,3.9,7.9,6.3,13,6.6c-0.1-0.5-0.1-1-0.1-1.5c0-3.5,2.8-6.3,6.3-6.4
	c1.8,0,3.5,0.7,4.7,2c1.4-0.3,2.8-0.8,4-1.5c-0.5,1.5-1.5,2.7-2.8,3.5c1.3-0.2,2.5-0.5,3.6-1C51.2,16.7,50.2,17.8,49,18.7z"/>
<path class="st1" d="M106.9,0c-13.7,0-24.8,11-25,24.7l-11.8,2.6l12.7,4.6c3,10.5,12.6,18.2,24.1,18.2c13.8,0,25-11.2,25-25
	S120.7,0,106.9,0z M119.1,18.7L119.1,18.7c0,0.3,0,0.6,0,0.8c0,8.3-6.3,18-18,18c-3.4,0-6.8-1-9.7-2.8c0.5,0.1,1,0.1,1.5,0.1
	c2.8,0,5.6-0.9,7.8-2.7c-2.7,0-5.1-1.8-5.9-4.4c0.4,0.1,0.8,0.1,1.2,0.1c0.5,0,1-0.1,1.5-0.2c-3-0.6-5.2-3.2-5.2-6.2v-0.1
	c0.9,0.5,2,0.7,3,0.8c-1.7-1.2-2.8-3.2-2.7-5.2c0-1.1,0.3-2.2,0.9-3.2c3.2,3.9,7.9,6.3,13,6.6c-0.1-0.5-0.1-1-0.1-1.5
	c0-3.5,2.8-6.3,6.3-6.4c1.8,0,3.5,0.7,4.7,2c1.4-0.3,2.8-0.8,4-1.5c-0.5,1.5-1.5,2.7-2.8,3.5c1.3-0.2,2.5-0.5,3.6-1
	C121.4,16.7,120.3,17.8,119.1,18.7z"/>
</svg>
